SplineFontDB: 3.2
FontName: IRDastNevis
FullName: IRDastNevis
FamilyName: IRDast Nevis
Weight: Book
Copyright: Copyright (c) 2022, Information Technology Organization of Iran (ito.gov.ir)
Version: 1.001
ItalicAngle: 0
UnderlinePosition: -100
UnderlineWidth: 60
Ascent: 1638
Descent: 410
InvalidEm: 0
sfntRevision: 0x00010042
LayerCount: 2
Layer: 0 1 "Back" 1
Layer: 1 1 "Fore" 0
XUID: [1021 420 722297922 10911604]
StyleMap: 0x0040
FSType: 0
OS2Version: 3
OS2_WeightWidthSlopeOnly: 0
OS2_UseTypoMetrics: 0
CreationTime: 1356326327
ModificationTime: 1662614843
PfmFamily: 17
TTFWeight: 400
TTFWidth: 5
LineGap: 100
VLineGap: 0
Panose: 2 0 5 3 0 0 0 2 0 2
OS2TypoAscent: 2432
OS2TypoAOffset: 0
OS2TypoDescent: -1334
OS2TypoDOffset: 0
OS2TypoLinegap: 1500
OS2WinAscent: 2432
OS2WinAOffset: 0
OS2WinDescent: 1334
OS2WinDOffset: 0
HheadAscent: 2432
HheadAOffset: 0
HheadDescent: -1334
HheadDOffset: 0
OS2SubXSize: 1434
OS2SubYSize: 1331
OS2SubXOff: 0
OS2SubYOff: 293
OS2SupXSize: 1434
OS2SupYSize: 1331
OS2SupXOff: 0
OS2SupYOff: 930
OS2StrikeYSize: 50
OS2StrikeYPos: 250
OS2CapHeight: 2423
OS2XHeight: 594
OS2FamilyClass: 2048
OS2Vendor: 'PARS'
OS2CodePages: 20000041.00000000
OS2UnicodeRanges: 00002003.00000000.00000000.00000000
Lookup: 1 1 0 "'isol' Isolated Forms in Arabic lookup 0" { "'isol' Isolated Forms in Arabic lookup 0 subtable"  } ['isol' ('arab' <'dflt' > ) ]
Lookup: 1 1 0 "'init' Initial Forms in Arabic lookup 1" { "'init' Initial Forms in Arabic lookup 1 subtable"  } ['init' ('arab' <'dflt' > ) ]
Lookup: 1 1 0 "'fina' Terminal Forms in Arabic lookup 2" { "'fina' Terminal Forms in Arabic lookup 2 subtable"  } ['fina' ('arab' <'dflt' > ) ]
Lookup: 1 1 0 "'medi' Medial Forms in Arabic lookup 3" { "'medi' Medial Forms in Arabic lookup 3 subtable"  } ['medi' ('arab' <'dflt' > ) ]
Lookup: 4 1 0 "'ccmp' Glyph Composition/Decomposition in Arabic lookup 4" { "'ccmp' Glyph Composition/Decomposition in Arabic lookup 4 subtable"  } ['ccmp' ('arab' <'dflt' > ) ]

StartChar: quotedbl
Encoding: 34 34 4
Width: 966
Flags: W
LayerCount: 2
Fore
SplineSet
221 703 m 1,0,1
 214 732 214 732 209.5 754.5 c 128,-1,2
 205 777 205 777 202 787 c 0,3,4
 175 896 175 896 159.5 974 c 128,-1,5
 144 1052 144 1052 144 1079 c 0,6,7
 144 1136 144 1136 175 1169.5 c 128,-1,8
 206 1203 206 1203 256 1203 c 0,9,10
 280 1203 280 1203 300.5 1194 c 128,-1,11
 321 1185 321 1185 336.5 1169.5 c 128,-1,12
 352 1154 352 1154 360.5 1132.5 c 128,-1,13
 369 1111 369 1111 369 1086 c 0,14,15
 369 1072 369 1072 365.5 1046 c 128,-1,16
 362 1020 362 1020 353 976 c 128,-1,17
 344 932 344 932 329 865.5 c 128,-1,18
 314 799 314 799 292 703 c 1,19,-1
 221 703 l 1,0,1
674 703 m 1,20,21
 667 730 667 730 661.5 753.5 c 128,-1,22
 656 777 656 777 654 787 c 0,23,24
 627 897 627 897 612 974.5 c 128,-1,25
 597 1052 597 1052 597 1079 c 0,26,27
 597 1136 597 1136 628 1169.5 c 128,-1,28
 659 1203 659 1203 709 1203 c 0,29,30
 733 1203 733 1203 753.5 1194 c 128,-1,31
 774 1185 774 1185 789.5 1169.5 c 128,-1,32
 805 1154 805 1154 813.5 1132.5 c 128,-1,33
 822 1111 822 1111 822 1086 c 0,34,35
 822 1072 822 1072 817.5 1043 c 128,-1,36
 813 1014 813 1014 803.5 967.5 c 128,-1,37
 794 921 794 921 779.5 855.5 c 128,-1,38
 765 790 765 790 745 703 c 1,39,-1
 674 703 l 1,20,21
EndSplineSet
EndChar

StartChar: quotesingle
Encoding: 39 39 5
Width: 484
Flags: W
LayerCount: 2
Fore
SplineSet
207 703 m 1,0,1
 200 730 200 730 195 753.5 c 128,-1,2
 190 777 190 777 188 787 c 0,3,4
 160 896 160 896 145.5 974 c 128,-1,5
 131 1052 131 1052 131 1079 c 0,6,7
 131 1136 131 1136 161.5 1169.5 c 128,-1,8
 192 1203 192 1203 242 1203 c 0,9,10
 266 1203 266 1203 286.5 1194 c 128,-1,11
 307 1185 307 1185 322.5 1169.5 c 128,-1,12
 338 1154 338 1154 346.5 1132.5 c 128,-1,13
 355 1111 355 1111 355 1086 c 0,14,15
 355 1072 355 1072 351 1045.5 c 128,-1,16
 347 1019 347 1019 338 974.5 c 128,-1,17
 329 930 329 930 314.5 863.5 c 128,-1,18
 300 797 300 797 279 703 c 1,19,-1
 207 703 l 1,0,1
EndSplineSet
EndChar

StartChar: asterisk
Encoding: 42 42 6
Width: 1126
Flags: W
LayerCount: 2
Fore
SplineSet
568 347 m 1,0,-1
 574 687 l 1,1,-1
 355 467 l 1,2,-1
 250 467 l 1,3,-1
 527 746 l 1,4,-1
 203 746 l 1,5,-1
 223 839 l 1,6,-1
 547 839 l 1,7,-1
 277 1104 l 1,8,-1
 370 1104 l 1,9,-1
 579 899 l 1,10,-1
 585 1199 l 1,11,-1
 704 1239 l 1,12,-1
 699 912 l 1,13,-1
 905 1104 l 1,14,-1
 1013 1104 l 1,15,-1
 730 839 l 1,16,-1
 1065 839 l 1,17,-1
 1043 746 l 1,18,-1
 729 746 l 1,19,-1
 1002 467 l 1,20,-1
 910 467 l 1,21,-1
 696 687 l 1,22,-1
 688 386 l 1,23,-1
 568 347 l 1,0,-1
EndSplineSet
EndChar

StartChar: plus
Encoding: 43 43 7
Width: 1192
GlyphClass: 2
Flags: W
LayerCount: 2
Fore
SplineSet
533 111 m 1,0,1
 500 154 500 154 518 343 c 0,2,3
 523 400 523 400 525 458 c 1,4,5
 443 455 443 455 358 446 c 0,6,7
 150 423 150 423 153 510 c 0,8,9
 157 595 157 595 523 603 c 1,10,11
 520 671 520 671 513 741 c 0,12,13
 490 949 490 949 577 945 c 0,14,15
 659 942 659 942 669 604 c 1,16,17
 927 601 927 601 967 565 c 0,18,19
 1016 521 1016 521 988 466 c 1,20,21
 945 433 945 433 755 451 c 0,22,23
 713 455 713 455 671 457 c 1,24,25
 670 173 670 173 632 132 c 0,26,27
 588 83 588 83 533 111 c 1,0,1
EndSplineSet
EndChar

StartChar: hyphen
Encoding: 45 45 8
Width: 1144
Flags: W
LayerCount: 2
Fore
SplineSet
988 466 m 1,0,1
 945 433 945 433 755.5 451 c 128,-1,2
 566 469 566 469 358 446 c 128,-1,3
 150 423 150 423 153.5 510 c 128,-1,4
 157 597 157 597 537.5 603.5 c 128,-1,5
 918 610 918 610 967 565.5 c 128,-1,6
 1016 521 1016 521 988 466 c 1,0,1
EndSplineSet
EndChar

StartChar: period
Encoding: 46 46 9
Width: 597
GlyphClass: 2
Flags: W
LayerCount: 2
Fore
SplineSet
504 115 m 0,0,1
 504 66 504 66 471 32.5 c 128,-1,2
 438 -1 438 -1 389 -1 c 256,3,4
 340 -1 340 -1 307 32.5 c 128,-1,5
 274 66 274 66 274 115 c 0,6,7
 274 163 274 163 307.5 196.5 c 128,-1,8
 341 230 341 230 389 230 c 256,9,10
 437 230 437 230 470.5 196.5 c 128,-1,11
 504 163 504 163 504 115 c 0,0,1
EndSplineSet
EndChar

StartChar: slash
Encoding: 47 47 10
Width: 790
Flags: W
LayerCount: 2
Fore
SplineSet
653 1198 m 1,0,-1
 271 -107 l 1,1,-1
 134 -107 l 1,2,-1
 515 1198 l 1,3,-1
 653 1198 l 1,0,-1
EndSplineSet
EndChar

StartChar: less
Encoding: 60 60 11
Width: 1117
Flags: W
LayerCount: 2
Fore
SplineSet
955 58 m 1,0,-1
 150 444 l 1,1,-1
 150 534 l 1,2,-1
 955 918 l 1,3,-1
 955 784 l 1,4,-1
 331 489 l 1,5,-1
 955 192 l 1,6,-1
 955 58 l 1,0,-1
EndSplineSet
EndChar

StartChar: equal
Encoding: 61 61 12
Width: 1117
Flags: W
LayerCount: 2
Fore
SplineSet
988 519 m 1,0,1
 945 486 945 486 755.5 504 c 128,-1,2
 566 522 566 522 358 499 c 128,-1,3
 150 476 150 476 153.5 563 c 128,-1,4
 157 650 157 650 537.5 656.5 c 128,-1,5
 918 663 918 663 967 618.5 c 128,-1,6
 1016 574 1016 574 988 519 c 1,0,1
988 247 m 1,7,8
 945 214 945 214 755.5 232 c 128,-1,9
 566 250 566 250 358 227 c 128,-1,10
 150 204 150 204 153.5 291 c 128,-1,11
 157 378 157 378 537.5 384.5 c 128,-1,12
 918 391 918 391 967 346.5 c 128,-1,13
 1016 302 1016 302 988 247 c 1,7,8
EndSplineSet
EndChar

StartChar: greater
Encoding: 62 62 13
Width: 1117
Flags: W
LayerCount: 2
Fore
SplineSet
966 444 m 1,0,-1
 160 58 l 1,1,-1
 160 192 l 1,2,-1
 786 489 l 1,3,-1
 160 784 l 1,4,-1
 160 918 l 1,5,-1
 966 534 l 1,6,-1
 966 444 l 1,0,-1
EndSplineSet
EndChar

StartChar: bracketleft
Encoding: 91 91 14
Width: 649
GlyphClass: 2
Flags: W
LayerCount: 2
Fore
SplineSet
564 -233 m 1,0,-1
 191 -233 l 1,1,-1
 191 1693 l 1,2,-1
 564 1693 l 1,3,-1
 564 1595 l 1,4,-1
 331 1595 l 1,5,-1
 331 -137 l 1,6,-1
 564 -137 l 1,7,-1
 564 -233 l 1,0,-1
EndSplineSet
EndChar

StartChar: bracketright
Encoding: 93 93 15
Width: 649
GlyphClass: 2
Flags: W
LayerCount: 2
Fore
SplineSet
212 -137 m 1,0,-1
 445 -137 l 1,1,-1
 445 1595 l 1,2,-1
 212 1595 l 1,3,-1
 212 1693 l 1,4,-1
 585 1693 l 1,5,-1
 585 -233 l 1,6,-1
 212 -233 l 1,7,-1
 212 -137 l 1,0,-1
EndSplineSet
EndChar

StartChar: grave
Encoding: 96 96 16
Width: 615
Flags: W
LayerCount: 2
Fore
SplineSet
373 935 m 1,0,-1
 88 1114 l 2,1,2
 64 1132 64 1132 49.5 1151.5 c 128,-1,3
 35 1171 35 1171 35 1194 c 0,4,5
 35 1220 35 1220 52 1236 c 128,-1,6
 69 1252 69 1252 99 1252 c 0,7,8
 118 1252 118 1252 134.5 1242.5 c 128,-1,9
 151 1233 151 1233 176 1208 c 2,10,-1
 447 935 l 1,11,-1
 373 935 l 1,0,-1
EndSplineSet
EndChar

StartChar: braceleft
Encoding: 123 123 17
Width: 833
GlyphClass: 2
Flags: W
LayerCount: 2
Fore
SplineSet
713 -346 m 1,0,-1
 713 -375 l 1,1,2
 571 -355 571 -355 482.5 -259.5 c 128,-1,3
 394 -164 394 -164 394 -49 c 0,4,5
 394 13 394 13 414 94 c 128,-1,6
 434 175 434 175 434 219 c 0,7,8
 434 281 434 281 382.5 334 c 128,-1,9
 331 387 331 387 240 399 c 1,10,-1
 240 434 l 1,11,12
 331 445 331 445 382.5 497.5 c 128,-1,13
 434 550 434 550 434 613 c 0,14,15
 434 657 434 657 414 737.5 c 128,-1,16
 394 818 394 818 394 880 c 0,17,18
 394 995 394 995 482.5 1091 c 128,-1,19
 571 1187 571 1187 713 1206 c 1,20,-1
 713 1177 l 1,21,22
 614 1152 614 1152 568 1098.5 c 128,-1,23
 522 1045 522 1045 522 980 c 0,24,25
 522 931 522 931 541 848.5 c 128,-1,26
 560 766 560 766 560 709 c 0,27,28
 560 623 560 623 497.5 542.5 c 128,-1,29
 435 462 435 462 310 418 c 1,30,31
 431 373 431 373 495.5 291 c 128,-1,32
 560 209 560 209 560 123 c 0,33,34
 560 66 560 66 541 -16.5 c 128,-1,35
 522 -99 522 -99 522 -148 c 0,36,37
 522 -213 522 -213 568 -266.5 c 128,-1,38
 614 -320 614 -320 713 -346 c 1,0,-1
EndSplineSet
EndChar

StartChar: bar
Encoding: 124 124 18
Width: 348
Flags: W
LayerCount: 2
Fore
SplineSet
207 1206 m 1,0,-1
 207 -375 l 1,1,-1
 137 -375 l 1,2,-1
 137 1206 l 1,3,-1
 207 1206 l 1,0,-1
EndSplineSet
EndChar

StartChar: asciitilde
Encoding: 126 126 19
Width: 939
Flags: W
LayerCount: 2
Fore
SplineSet
884 572 m 1,0,-1
 922 572 l 1,1,2
 918 462 918 462 858.5 399.5 c 128,-1,3
 799 337 799 337 714 337 c 0,4,5
 675 337 675 337 630 350.5 c 128,-1,6
 585 364 585 364 397 440 c 0,7,8
 267 494 267 494 212 494 c 0,9,10
 153 494 153 494 112 458 c 128,-1,11
 71 422 71 422 54 339 c 1,12,-1
 17 339 l 1,13,14
 22 454 22 454 80 514.5 c 128,-1,15
 138 575 138 575 215 575 c 0,16,17
 252 575 252 575 291 563 c 0,18,19
 379 537 379 537 523.5 475.5 c 128,-1,20
 668 414 668 414 726 414 c 0,21,22
 790 414 790 414 833 455 c 128,-1,23
 876 496 876 496 884 572 c 1,0,-1
EndSplineSet
EndChar

StartChar: agrave
Encoding: 224 224 20
Width: 1075
Flags: W
LayerCount: 2
Fore
SplineSet
741 331 m 1,0,1
 720 266 720 266 690.5 213 c 128,-1,2
 661 160 661 160 626 114 c 0,3,4
 519 -19 519 -19 400 -19 c 0,5,6
 208 -19 208 -19 159 214 c 0,7,8
 133 334 133 334 157 451 c 128,-1,9
 181 568 181 568 252 683 c 0,10,11
 325 801 325 801 433 860 c 128,-1,12
 541 919 541 919 684 919 c 0,13,14
 712 919 712 919 746 918.5 c 128,-1,15
 780 918 780 918 815.5 916 c 128,-1,16
 851 914 851 914 886 912 c 128,-1,17
 921 910 921 910 952 908 c 1,18,-1
 946 646 l 1,19,-1
 946 647 l 1,20,-1
 950 254 l 2,21,22
 952 209 952 209 954.5 179.5 c 128,-1,23
 957 150 957 150 958 139 c 0,24,25
 961 114 961 114 985 114 c 0,26,27
 1053 114 1053 114 1214 346 c 1,28,-1
 1218 179 l 1,29,30
 1073 -19 1073 -19 925 -19 c 0,31,32
 785 -19 785 -19 753 126 c 0,33,34
 749 146 749 146 747 182 c 128,-1,35
 745 218 745 218 745 264 c 2,36,-1
 741 331 l 1,0,1
737 758 m 1,37,38
 688 775 688 775 647 783.5 c 128,-1,39
 606 792 606 792 561 792 c 0,40,41
 497 792 497 792 453.5 749.5 c 128,-1,42
 410 707 410 707 387 625 c 0,43,44
 362 522 362 522 357 425 c 128,-1,45
 352 328 352 328 368 248 c 0,46,47
 388 146 388 146 437 146 c 0,48,49
 493 146 493 146 589 280 c 0,50,51
 637 352 637 352 674 430 c 128,-1,52
 711 508 711 508 739 599 c 1,53,-1
 737 758 l 1,37,38
662 590 m 1,54,-1
 377 769 l 2,55,56
 353 787 353 787 338.5 806.5 c 128,-1,57
 324 826 324 826 324 849 c 0,58,59
 324 875 324 875 341 891 c 128,-1,60
 358 907 358 907 388 907 c 0,61,62
 407 907 407 907 423.5 897.5 c 128,-1,63
 440 888 440 888 465 863 c 2,64,-1
 736 590 l 1,65,-1
 662 590 l 1,54,-1
EndSplineSet
EndChar

StartChar: ocircumflex.001
Encoding: 65539 -1 26
Width: 1112
Flags: W
LayerCount: 2
Fore
SplineSet
416 -19 m 0,0,1
 301 -19 301 -19 205 70 c 0,2,3
 110 160 110 160 85 288 c 0,4,5
 32 528 32 528 170 726 c 0,6,7
 307 928 307 928 522 928 c 0,8,9
 643 928 643 928 742 842 c 1,10,11
 837 753 837 753 864 626 c 0,12,13
 890 499 890 499 869 388.5 c 128,-1,14
 848 278 848 278 781 179 c 0,15,16
 711 79 711 79 619.5 30 c 128,-1,17
 528 -19 528 -19 416 -19 c 0,0,1
483 98 m 0,18,19
 536 98 536 98 573.5 133 c 128,-1,20
 611 168 611 168 637 236 c 0,21,22
 665 310 665 310 668.5 393.5 c 128,-1,23
 672 477 672 477 652 574 c 0,24,25
 602 813 602 813 466 813 c 0,26,27
 365 813 365 813 313 670 c 0,28,29
 284 595 284 595 281 510.5 c 128,-1,30
 278 426 278 426 298 332 c 0,31,32
 324 213 324 213 370 155.5 c 128,-1,33
 416 98 416 98 483 98 c 0,18,19
EndSplineSet
EndChar

StartChar: dagger
Encoding: 8224 8224 30
Width: 932
Flags: W
LayerCount: 2
Fore
SplineSet
347 -231 m 1,0,-1
 567 622 l 1,1,-1
 248 592 l 1,2,-1
 297 700 l 1,3,-1
 576 668 l 1,4,-1
 607 1066 l 1,5,-1
 755 1093 l 1,6,-1
 621 668 l 1,7,-1
 941 700 l 1,8,-1
 895 592 l 1,9,-1
 612 622 l 1,10,-1
 496 -213 l 1,11,-1
 347 -231 l 1,0,-1
EndSplineSet
EndChar

StartChar: degree
Encoding: 176 176 31
Width: 409
Flags: W
LayerCount: 2
Fore
SplineSet
395 844 m 0,0,1
 344 844 344 844 307.5 880 c 128,-1,2
 271 916 271 916 271 968 c 0,3,4
 271 1021 271 1021 307.5 1057 c 128,-1,5
 344 1093 344 1093 395 1093 c 0,6,7
 447 1093 447 1093 483 1057 c 128,-1,8
 519 1021 519 1021 519 968 c 0,9,10
 519 916 519 916 483 880 c 128,-1,11
 447 844 447 844 395 844 c 0,0,1
395 888 m 256,12,13
 427 888 427 888 450.5 912 c 128,-1,14
 474 936 474 936 474 968 c 256,15,16
 474 1000 474 1000 450.5 1024 c 128,-1,17
 427 1048 427 1048 395 1048 c 256,18,19
 363 1048 363 1048 339 1024 c 128,-1,20
 315 1000 315 1000 315 968 c 256,21,22
 315 936 315 936 339 912 c 128,-1,23
 363 888 363 888 395 888 c 256,12,13
EndSplineSet
EndChar

StartChar: bullet
Encoding: 8226 8226 32
Width: 931
Flags: W
LayerCount: 2
Fore
SplineSet
817 662 m 256,0,1
 817 517 817 517 713.5 414 c 128,-1,2
 610 311 610 311 465 311 c 256,3,4
 320 311 320 311 217 414 c 128,-1,5
 114 517 114 517 114 662 c 256,6,7
 114 807 114 807 217 910 c 128,-1,8
 320 1013 320 1013 465 1013 c 256,9,10
 610 1013 610 1013 713.5 910 c 128,-1,11
 817 807 817 807 817 662 c 256,0,1
EndSplineSet
EndChar

StartChar: registered
Encoding: 174 174 33
Width: 897
Flags: W
LayerCount: 2
Fore
SplineSet
580 445 m 0,0,1
 448 445 448 445 354.5 538.5 c 128,-1,2
 261 632 261 632 261 764 c 256,3,4
 261 896 261 896 354.5 990 c 128,-1,5
 448 1084 448 1084 580 1084 c 0,6,7
 714 1084 714 1084 807 990 c 128,-1,8
 900 896 900 896 900 764 c 256,9,10
 900 632 900 632 806.5 538.5 c 128,-1,11
 713 445 713 445 580 445 c 0,0,1
580 484 m 0,12,13
 695 484 695 484 777.5 567 c 128,-1,14
 860 650 860 650 860 764 c 256,15,16
 860 878 860 878 777.5 961 c 128,-1,17
 695 1044 695 1044 580 1044 c 0,18,19
 466 1044 466 1044 383.5 961 c 128,-1,20
 301 878 301 878 301 764 c 256,21,22
 301 650 301 650 383.5 567 c 128,-1,23
 466 484 466 484 580 484 c 0,12,13
529 737 m 1,24,-1
 501 596 l 1,25,-1
 394 596 l 1,26,-1
 403 639 l 1,27,-1
 456 639 l 1,28,-1
 511 915 l 1,29,-1
 458 915 l 1,30,-1
 466 959 l 1,31,-1
 598 959 l 2,32,33
 751 959 751 959 751 875 c 0,34,35
 751 800 751 800 650 750 c 1,36,-1
 685 639 l 1,37,-1
 747 639 l 1,38,-1
 738 596 l 1,39,-1
 641 596 l 1,40,-1
 591 737 l 1,41,-1
 529 737 l 1,24,-1
538 782 m 1,42,-1
 574 782 l 2,43,44
 697 782 697 782 697 866 c 0,45,46
 697 915 697 915 607 915 c 2,47,-1
 564 915 l 1,48,-1
 538 782 l 1,42,-1
EndSplineSet
EndChar

StartChar: copyright
Encoding: 169 169 34
Width: 1244
Flags: W
LayerCount: 2
Fore
SplineSet
725 -27 m 0,0,1
 495 -27 495 -27 330.5 137 c 128,-1,2
 166 301 166 301 166 533 c 256,3,4
 166 765 166 765 330.5 929 c 128,-1,5
 495 1093 495 1093 725 1093 c 0,6,7
 958 1093 958 1093 1122 929 c 128,-1,8
 1286 765 1286 765 1286 533 c 256,9,10
 1286 301 1286 301 1122 137 c 128,-1,11
 958 -27 958 -27 725 -27 c 0,0,1
725 18 m 0,12,13
 939 18 939 18 1090 169 c 128,-1,14
 1241 320 1241 320 1241 533 c 256,15,16
 1241 746 1241 746 1090 897 c 128,-1,17
 939 1048 939 1048 725 1048 c 0,18,19
 513 1048 513 1048 362 897 c 128,-1,20
 211 746 211 746 211 533 c 256,21,22
 211 320 211 320 362 169 c 128,-1,23
 513 18 513 18 725 18 c 0,12,13
890 246 m 1,24,25
 785 213 785 213 704 213 c 0,26,27
 580 213 580 213 508 279.5 c 128,-1,28
 436 346 436 346 436 462 c 0,29,30
 436 625 436 625 541 734.5 c 128,-1,31
 646 844 646 844 805 844 c 0,32,33
 896 844 896 844 1003 814 c 1,34,-1
 967 675 l 1,35,-1
 915 684 l 1,36,-1
 923 766 l 1,37,38
 854 798 854 798 792 798 c 0,39,40
 688 798 688 798 616 700 c 128,-1,41
 544 602 544 602 544 462 c 0,42,43
 544 271 544 271 722 271 c 0,44,45
 823 271 823 271 902 307 c 1,46,-1
 890 246 l 1,24,25
EndSplineSet
EndChar

StartChar: trademark
Encoding: 8482 8482 35
Width: 1333
Flags: W
LayerCount: 2
Fore
SplineSet
440 1021 m 1,0,-1
 307 1021 l 1,1,-1
 288 923 l 1,2,-1
 225 923 l 1,3,-1
 254 1066 l 1,4,-1
 751 1066 l 1,5,-1
 723 923 l 1,6,-1
 661 923 l 1,7,-1
 679 1021 l 1,8,-1
 546 1021 l 1,9,-1
 456 569 l 1,10,-1
 554 569 l 1,11,-1
 545 524 l 1,12,-1
 243 524 l 1,13,-1
 253 569 l 1,14,-1
 350 569 l 1,15,-1
 440 1021 l 1,0,-1
1011 569 m 1,16,-1
 942 956 l 1,17,-1
 857 524 l 1,18,-1
 688 524 l 1,19,-1
 697 569 l 1,20,-1
 794 569 l 1,21,-1
 884 1021 l 1,22,-1
 787 1021 l 1,23,-1
 796 1066 l 1,24,-1
 1036 1066 l 1,25,-1
 1092 747 l 1,26,-1
 1265 1066 l 1,27,-1
 1481 1066 l 1,28,-1
 1473 1021 l 1,29,-1
 1375 1021 l 1,30,-1
 1285 569 l 1,31,-1
 1383 569 l 1,32,-1
 1373 524 l 1,33,-1
 1178 524 l 1,34,-1
 1270 985 l 1,35,-1
 1041 569 l 1,36,-1
 1011 569 l 1,16,-1
EndSplineSet
EndChar

StartChar: logicalnot
Encoding: 172 172 39
Width: 932
Flags: W
LayerCount: 2
Fore
SplineSet
177 510 m 1,0,-1
 193 590 l 1,1,-1
 975 590 l 1,2,-1
 906 248 l 1,3,-1
 814 248 l 1,4,-1
 866 510 l 1,5,-1
 177 510 l 1,0,-1
EndSplineSet
EndChar

StartChar: florin
Encoding: 402 402 40
Width: 679
Flags: W
LayerCount: 2
Fore
SplineSet
158 -231 m 1,0,-1
 210 -18 l 1,1,-1
 286 364 l 1,2,-1
 108 364 l 1,3,-1
 117 409 l 1,4,-1
 294 409 l 1,5,-1
 298 427 l 2,6,7
 330 586 330 586 463 692.5 c 128,-1,8
 596 799 596 799 761 799 c 0,9,10
 818 799 818 799 860 784 c 1,11,-1
 764 678 l 1,12,13
 712 729 712 729 643 729 c 0,14,15
 500 729 500 729 457 512 c 2,16,-1
 436 409 l 1,17,-1
 623 409 l 1,18,-1
 614 364 l 1,19,-1
 427 364 l 1,20,-1
 313 -213 l 1,21,-1
 158 -231 l 1,0,-1
EndSplineSet
EndChar

StartChar: ellipsis
Encoding: 8230 8230 41
Width: 1827
Flags: W
LayerCount: 2
Fore
SplineSet
758 113 m 0,0,1
 758 144 758 144 809.5 245.5 c 128,-1,2
 861 347 861 347 876 355 c 0,3,4
 907 369 907 369 964.5 307.5 c 128,-1,5
 1022 246 1022 246 1026 211 c 1,6,7
 1026 166 1026 166 977.5 79.5 c 128,-1,8
 929 -7 929 -7 908 -7 c 0,9,10
 899 -7 899 -7 851 26.5 c 128,-1,11
 803 60 803 60 778 79 c 0,12,13
 758 96 758 96 758 113 c 0,0,1
1308 113 m 0,14,15
 1308 144 1308 144 1359 245.5 c 128,-1,16
 1410 347 1410 347 1426 355 c 0,17,18
 1457 369 1457 369 1514.5 307.5 c 128,-1,19
 1572 246 1572 246 1575 211 c 0,20,21
 1575 166 1575 166 1527 79.5 c 128,-1,22
 1479 -7 1479 -7 1458 -7 c 0,23,24
 1449 -7 1449 -7 1401 26.5 c 128,-1,25
 1353 60 1353 60 1328 79 c 0,26,27
 1308 96 1308 96 1308 113 c 0,14,15
211 113 m 0,28,29
 211 144 211 144 262 245.5 c 128,-1,30
 313 347 313 347 329 355 c 0,31,32
 360 369 360 369 417.5 307.5 c 128,-1,33
 475 246 475 246 478 211 c 0,34,35
 478 166 478 166 430 79.5 c 128,-1,36
 382 -7 382 -7 361 -7 c 0,37,38
 352 -7 352 -7 304 26.5 c 128,-1,39
 256 60 256 60 231 79 c 0,40,41
 211 96 211 96 211 113 c 0,28,29
EndSplineSet
EndChar

StartChar: endash
Encoding: 8211 8211 42
Width: 434
Flags: W
LayerCount: 2
Fore
SplineSet
434 154 m 1,0,-1
 0 154 l 1,1,-1
 0 234 l 1,2,-1
 434 234 l 1,3,-1
 434 154 l 1,0,-1
EndSplineSet
EndChar

StartChar: emdash
Encoding: 8212 8212 43
Width: 1862
Flags: W
LayerCount: 2
Fore
SplineSet
1866 572 m 1,0,-1
 -4 572 l 1,1,-1
 -4 732 l 1,2,-1
 1866 732 l 1,3,-1
 1866 572 l 1,0,-1
EndSplineSet
EndChar

StartChar: quotedblleft
Encoding: 8220 8220 44
Width: 613
Flags: W
LayerCount: 2
Fore
SplineSet
340 993 m 0,0,1
 341 1058 341 1058 385 1121.5 c 128,-1,2
 429 1185 429 1185 483 1211 c 1,3,-1
 514 1153 l 1,4,5
 498 1144 498 1144 476 1120 c 128,-1,6
 454 1096 454 1096 444 1058 c 1,7,8
 510 1030 510 1030 507 975 c 0,9,10
 507 959 507 959 500.5 944.5 c 128,-1,11
 494 930 494 930 483.5 919 c 128,-1,12
 473 908 473 908 458 901.5 c 128,-1,13
 443 895 443 895 427 895 c 0,14,15
 406 895 406 895 390 903.5 c 128,-1,16
 374 912 374 912 363 925.5 c 128,-1,17
 352 939 352 939 346 957 c 128,-1,18
 340 975 340 975 340 993 c 0,0,1
121 993 m 0,19,20
 122 1058 122 1058 166 1121.5 c 128,-1,21
 210 1185 210 1185 265 1211 c 1,22,-1
 296 1153 l 1,23,24
 280 1144 280 1144 258 1120 c 128,-1,25
 236 1096 236 1096 226 1058 c 1,26,27
 292 1030 292 1030 289 975 c 0,28,29
 289 959 289 959 282.5 944.5 c 128,-1,30
 276 930 276 930 265 919 c 128,-1,31
 254 908 254 908 239 901.5 c 128,-1,32
 224 895 224 895 208 895 c 0,33,34
 188 895 188 895 171.5 903.5 c 128,-1,35
 155 912 155 912 144 925.5 c 128,-1,36
 133 939 133 939 127 957 c 128,-1,37
 121 975 121 975 121 993 c 0,19,20
EndSplineSet
EndChar

StartChar: quotedblright
Encoding: 8221 8221 45
Width: 597
Flags: W
LayerCount: 2
Fore
SplineSet
295 1113 m 0,0,1
 294 1048 294 1048 250 984.5 c 128,-1,2
 206 921 206 921 152 895 c 1,3,-1
 121 953 l 1,4,5
 137 962 137 962 159 986 c 128,-1,6
 181 1010 181 1010 191 1048 c 1,7,8
 125 1076 125 1076 128 1131 c 0,9,10
 128 1147 128 1147 134.5 1161.5 c 128,-1,11
 141 1176 141 1176 151.5 1187 c 128,-1,12
 162 1198 162 1198 176.5 1204.5 c 128,-1,13
 191 1211 191 1211 208 1211 c 0,14,15
 229 1211 229 1211 245 1202.5 c 128,-1,16
 261 1194 261 1194 272 1180.5 c 128,-1,17
 283 1167 283 1167 289 1149 c 128,-1,18
 295 1131 295 1131 295 1113 c 0,0,1
514 1113 m 0,19,20
 513 1048 513 1048 469 984.5 c 128,-1,21
 425 921 425 921 370 895 c 1,22,-1
 339 953 l 1,23,24
 355 962 355 962 377 986 c 128,-1,25
 399 1010 399 1010 409 1048 c 1,26,27
 343 1076 343 1076 346 1131 c 0,28,29
 346 1147 346 1147 352.5 1161.5 c 128,-1,30
 359 1176 359 1176 370 1187 c 128,-1,31
 381 1198 381 1198 395.5 1204.5 c 128,-1,32
 410 1211 410 1211 427 1211 c 0,33,34
 447 1211 447 1211 463 1202.5 c 128,-1,35
 479 1194 479 1194 490.5 1180.5 c 128,-1,36
 502 1167 502 1167 508 1149 c 128,-1,37
 514 1131 514 1131 514 1113 c 0,19,20
EndSplineSet
EndChar

StartChar: divide
Encoding: 247 247 46
Width: 1125
Flags: W
LayerCount: 2
Fore
SplineSet
993 404 m 1,0,1
 950 371 950 371 760.5 389 c 128,-1,2
 571 407 571 407 363 384 c 128,-1,3
 155 361 155 361 158.5 448 c 128,-1,4
 162 535 162 535 536 549 c 128,-1,5
 910 563 910 563 965.5 511 c 128,-1,6
 1021 459 1021 459 993 404 c 1,0,1
496 755 m 0,7,8
 496 779 496 779 505 799.5 c 128,-1,9
 514 820 514 820 529 835 c 128,-1,10
 544 850 544 850 564.5 859 c 128,-1,11
 585 868 585 868 608 868 c 0,12,13
 632 868 632 868 652.5 859 c 128,-1,14
 673 850 673 850 688 835 c 128,-1,15
 703 820 703 820 712 799.5 c 128,-1,16
 721 779 721 779 721 755 c 0,17,18
 721 732 721 732 712 711.5 c 128,-1,19
 703 691 703 691 688 676 c 128,-1,20
 673 661 673 661 652.5 652 c 128,-1,21
 632 643 632 643 608 643 c 0,22,23
 585 643 585 643 564.5 652 c 128,-1,24
 544 661 544 661 529 676 c 128,-1,25
 514 691 514 691 505 711.5 c 128,-1,26
 496 732 496 732 496 755 c 0,7,8
476 182 m 0,27,28
 476 206 476 206 485 226.5 c 128,-1,29
 494 247 494 247 509 262 c 128,-1,30
 524 277 524 277 544.5 286 c 128,-1,31
 565 295 565 295 588 295 c 0,32,33
 612 295 612 295 632.5 286 c 128,-1,34
 653 277 653 277 668 262 c 128,-1,35
 683 247 683 247 692 226.5 c 128,-1,36
 701 206 701 206 701 182 c 0,37,38
 701 159 701 159 692 138.5 c 128,-1,39
 683 118 683 118 668 103 c 128,-1,40
 653 88 653 88 632.5 79 c 128,-1,41
 612 70 612 70 588 70 c 0,42,43
 565 70 565 70 544.5 79 c 128,-1,44
 524 88 524 88 509 103 c 128,-1,45
 494 118 494 118 485 138.5 c 128,-1,46
 476 159 476 159 476 182 c 0,27,28
EndSplineSet
EndChar

StartChar: lozenge
Encoding: 9674 9674 47
Width: 1118
Flags: W
LayerCount: 2
Fore
SplineSet
1003 699 m 1,0,-1
 560 197 l 1,1,-1
 117 699 l 1,2,-1
 560 1202 l 1,3,-1
 1003 699 l 1,0,-1
848 699 m 1,4,-1
 560 1036 l 1,5,-1
 271 699 l 1,6,-1
 560 364 l 1,7,-1
 848 699 l 1,4,-1
EndSplineSet
EndChar

StartChar: fraction
Encoding: 8260 8260 48
Width: 742
Flags: W
LayerCount: 2
Fore
SplineSet
740 1101 m 1,0,-1
 101 -82 l 1,1,-1
 -9 -82 l 1,2,-1
 629 1101 l 1,3,-1
 740 1101 l 1,0,-1
EndSplineSet
EndChar

StartChar: guilsinglleft
Encoding: 8249 8249 49
Width: 1117
Flags: W
LayerCount: 2
Fore
SplineSet
955 58 m 1,0,-1
 150 444 l 1,1,-1
 150 534 l 1,2,-1
 955 918 l 1,3,-1
 955 784 l 1,4,-1
 331 489 l 1,5,-1
 955 192 l 1,6,-1
 955 58 l 1,0,-1
EndSplineSet
EndChar

StartChar: daggerdbl
Encoding: 8225 8225 52
Width: 932
Flags: W
LayerCount: 2
Fore
SplineSet
349 -231 m 1,0,-1
 481 185 l 1,1,-1
 161 154 l 1,2,-1
 211 261 l 1,3,-1
 490 229 l 1,4,-1
 567 616 l 1,5,-1
 247 586 l 1,6,-1
 297 693 l 1,7,-1
 575 661 l 1,8,-1
 608 1066 l 1,9,-1
 758 1093 l 1,10,-1
 620 661 l 1,11,-1
 940 693 l 1,12,-1
 889 586 l 1,13,-1
 611 616 l 1,14,-1
 535 229 l 1,15,-1
 855 261 l 1,16,-1
 804 154 l 1,17,-1
 525 185 l 1,18,-1
 499 -213 l 1,19,-1
 349 -231 l 1,0,-1
EndSplineSet
EndChar

StartChar: middot.001
Encoding: 8729 8729 53
Width: 620
Flags: W
LayerCount: 2
Fore
SplineSet
429 516 m 1,0,-1
 190 516 l 1,1,-1
 190 789 l 1,2,-1
 429 789 l 1,3,-1
 429 516 l 1,0,-1
EndSplineSet
EndChar

StartChar: quotesinglbase
Encoding: 8218 8218 54
Width: 418
Flags: W
LayerCount: 2
Fore
SplineSet
103 128 m 1,0,-1
 247 231 l 1,1,-1
 353 90 l 1,2,3
 345 -56 345 -56 262.5 -134.5 c 128,-1,4
 180 -213 180 -213 36 -213 c 1,5,-1
 76 -168 l 1,6,7
 189 -158 189 -158 211 -18 c 1,8,-1
 103 128 l 1,0,-1
EndSplineSet
EndChar

StartChar: quotedblbase
Encoding: 8222 8222 55
Width: 684
Flags: W
LayerCount: 2
Fore
SplineSet
91 92 m 1,0,-1
 204 178 l 1,1,-1
 292 64 l 1,2,3
 270 -213 270 -213 31 -213 c 1,4,-1
 60 -168 l 1,5,6
 166 -148 166 -148 179 -16 c 1,7,-1
 91 92 l 1,0,-1
401 92 m 1,8,-1
 516 178 l 1,9,-1
 602 64 l 1,10,11
 581 -213 581 -213 341 -213 c 1,12,-1
 372 -168 l 1,13,14
 476 -148 476 -148 490 -16 c 1,15,-1
 401 92 l 1,8,-1
EndSplineSet
EndChar

StartChar: perthousand
Encoding: 8240 8240 56
Width: 1571
Flags: W
LayerCount: 2
Fore
SplineSet
385 533 m 0,0,1
 304 533 304 533 254.5 584.5 c 128,-1,2
 205 636 205 636 205 722 c 0,3,4
 205 865 205 865 286.5 965.5 c 128,-1,5
 368 1066 368 1066 483 1066 c 0,6,7
 567 1066 567 1066 617.5 1014.5 c 128,-1,8
 668 963 668 963 668 877 c 0,9,10
 668 733 668 733 585.5 633 c 128,-1,11
 503 533 503 533 385 533 c 0,0,1
311 715 m 0,12,13
 311 578 311 578 398 578 c 0,14,15
 463 578 463 578 517 671.5 c 128,-1,16
 571 765 571 765 571 881 c 0,17,18
 571 1022 571 1022 483 1022 c 0,19,20
 416 1022 416 1022 363.5 928 c 128,-1,21
 311 834 311 834 311 715 c 0,12,13
850 0 m 0,22,23
 769 0 769 0 719.5 51.5 c 128,-1,24
 670 103 670 103 670 189 c 0,25,26
 670 331 670 331 751 432 c 128,-1,27
 832 533 832 533 947 533 c 0,28,29
 1031 533 1031 533 1081.5 481.5 c 128,-1,30
 1132 430 1132 430 1132 344 c 0,31,32
 1132 200 1132 200 1049.5 100 c 128,-1,33
 967 0 967 0 850 0 c 0,22,23
776 182 m 0,34,35
 776 44 776 44 862 44 c 0,36,37
 929 44 929 44 982 138 c 128,-1,38
 1035 232 1035 232 1035 348 c 0,39,40
 1035 490 1035 490 948 490 c 0,41,42
 880 490 880 490 828 395.5 c 128,-1,43
 776 301 776 301 776 182 c 0,34,35
131 -27 m 1,44,-1
 1111 1093 l 1,45,-1
 1206 1093 l 1,46,-1
 225 -27 l 1,47,-1
 131 -27 l 1,44,-1
1376 0 m 0,48,49
 1294 0 1294 0 1244.5 51.5 c 128,-1,50
 1195 103 1195 103 1195 189 c 0,51,52
 1195 331 1195 331 1276.5 432 c 128,-1,53
 1358 533 1358 533 1473 533 c 0,54,55
 1557 533 1557 533 1607.5 481.5 c 128,-1,56
 1658 430 1658 430 1658 344 c 0,57,58
 1658 200 1658 200 1575.5 100 c 128,-1,59
 1493 0 1493 0 1376 0 c 0,48,49
1301 183 m 0,60,61
 1301 44 1301 44 1389 44 c 0,62,63
 1453 44 1453 44 1507 138 c 128,-1,64
 1561 232 1561 232 1561 347 c 0,65,66
 1561 490 1561 490 1473 490 c 0,67,68
 1406 490 1406 490 1353.5 395.5 c 128,-1,69
 1301 301 1301 301 1301 183 c 0,60,61
EndSplineSet
EndChar

StartChar: multiply
Encoding: 215 215 60
Width: 918
Flags: W
LayerCount: 2
Fore
SplineSet
464 435 m 1,0,1
 274 251 274 251 241.5 224 c 128,-1,2
 209 197 209 197 174.5 206.5 c 128,-1,3
 140 216 140 216 134 257 c 1,4,-1
 134 263 l 2,5,6
 134 303 134 303 245 385 c 1,7,-1
 374 511 l 1,8,9
 248 620 248 620 192 670 c 128,-1,10
 136 720 136 720 166.5 765.5 c 128,-1,11
 197 811 197 811 260.5 765.5 c 128,-1,12
 324 720 324 720 458 594 c 1,13,-1
 460 594 l 1,14,15
 622 766 622 766 652 766 c 1,16,-1
 660 769 l 1,17,18
 716 758 716 758 716 713 c 2,19,-1
 716 710 l 2,20,21
 716 679 716 679 541 521 c 1,22,-1
 541 518 l 1,23,24
 673 404 673 404 750 328.5 c 128,-1,25
 827 253 827 253 801 212.5 c 128,-1,26
 775 172 775 172 730 200 c 128,-1,27
 685 228 685 228 605.5 305.5 c 128,-1,28
 526 383 526 383 464 435 c 1,0,1
EndSplineSet
EndChar

StartChar: macron
Encoding: 175 175 61
Width: 1118
Flags: W
LayerCount: 2
Fore
SplineSet
1134 1259 m 1,0,-1
 -16 1259 l 1,1,-1
 -16 1389 l 1,2,-1
 1134 1389 l 1,3,-1
 1134 1259 l 1,0,-1
EndSplineSet
EndChar

StartChar: periodcentered
Encoding: 183 183 62
Width: 724
Flags: W
LayerCount: 2
Fore
SplineSet
482 832 m 1,0,-1
 243 832 l 1,1,-1
 243 1117 l 1,2,-1
 482 1117 l 1,3,-1
 482 832 l 1,0,-1
EndSplineSet
EndChar

StartChar: H22073
Encoding: 9633 9633 63
Width: 1237
Flags: W
LayerCount: 2
Fore
SplineSet
146 944 m 1,0,-1
 1090 944 l 1,1,-1
 1090 0 l 1,2,-1
 146 0 l 1,3,-1
 146 944 l 1,0,-1
222 868 m 1,4,-1
 222 76 l 1,5,-1
 1014 76 l 1,6,-1
 1014 868 l 1,7,-1
 222 868 l 1,4,-1
EndSplineSet
EndChar

StartChar: H18543
Encoding: 9642 9642 64
Width: 1089
Flags: W
LayerCount: 2
Fore
SplineSet
886 894 m 1,0,-1
 886 200 l 1,1,-1
 192 200 l 1,2,-1
 192 894 l 1,3,-1
 886 894 l 1,0,-1
EndSplineSet
EndChar

StartChar: H18551
Encoding: 9643 9643 65
Width: 1089
Flags: W
LayerCount: 2
Fore
SplineSet
888 930 m 1,0,-1
 888 235 l 1,1,-1
 193 235 l 1,2,-1
 193 930 l 1,3,-1
 888 930 l 1,0,-1
774 816 m 1,4,-1
 307 816 l 1,5,-1
 307 349 l 1,6,-1
 774 349 l 1,7,-1
 774 816 l 1,4,-1
EndSplineSet
EndChar

StartChar: H18533
Encoding: 9679 9679 66
Width: 1339
Flags: W
LayerCount: 2
Fore
SplineSet
204 775 m 0,0,1
 204 976 204 976 345 1117 c 128,-1,2
 486 1258 486 1258 685 1258 c 0,3,4
 885 1258 885 1258 1026 1117 c 128,-1,5
 1167 976 1167 976 1167 775 c 0,6,7
 1167 577 1167 577 1026 436 c 128,-1,8
 885 295 885 295 685 295 c 0,9,10
 486 295 486 295 345 436 c 128,-1,11
 204 577 204 577 204 775 c 0,0,1
EndSplineSet
EndChar

StartChar: openbullet
Encoding: 9702 9702 67
Width: 1089
Flags: W
LayerCount: 2
Fore
SplineSet
544 1392 m 0,0,1
 700 1392 700 1392 810.5 1281.5 c 128,-1,2
 921 1171 921 1171 921 1015 c 256,3,4
 921 859 921 859 810.5 749 c 128,-1,5
 700 639 700 639 544 639 c 256,6,7
 388 639 388 639 278 749 c 128,-1,8
 168 859 168 859 168 1015 c 256,9,10
 168 1171 168 1171 277.5 1281.5 c 128,-1,11
 387 1392 387 1392 544 1392 c 0,0,1
544 1278 m 0,12,13
 435 1278 435 1278 358.5 1200.5 c 128,-1,14
 282 1123 282 1123 282 1015 c 0,15,16
 282 906 282 906 359 829.5 c 128,-1,17
 436 753 436 753 544 753 c 256,18,19
 652 753 652 753 729.5 829.5 c 128,-1,20
 807 906 807 906 807 1015 c 0,21,22
 807 1123 807 1123 730.5 1200.5 c 128,-1,23
 654 1278 654 1278 544 1278 c 0,12,13
EndSplineSet
EndChar

StartChar: uniFFFC
Encoding: 65532 65532 68
Width: 2048
Flags: W
LayerCount: 2
Fore
SplineSet
2048 1150 m 1,0,-1
 1948 1150 l 1,1,-1
 1948 1373 l 1,2,-1
 1725 1373 l 1,3,-1
 1725 1473 l 1,4,-1
 2048 1473 l 1,5,-1
 2048 1150 l 1,0,-1
1473 1373 m 1,6,-1
 1150 1373 l 1,7,-1
 1150 1473 l 1,8,-1
 1473 1473 l 1,9,-1
 1473 1373 l 1,6,-1
2048 575 m 1,10,-1
 1948 575 l 1,11,-1
 1948 898 l 1,12,-1
 2048 898 l 1,13,-1
 2048 575 l 1,10,-1
1782 611 m 2,14,15
 1782 370 1782 370 1571 370 c 0,16,17
 1485 370 1485 370 1433 415 c 1,18,-1
 1506 494 l 1,19,20
 1531 468 1531 468 1571 468 c 0,21,22
 1666 468 1666 468 1666 606 c 2,23,-1
 1666 1090 l 1,24,-1
 1782 1090 l 1,25,-1
 1782 611 l 2,14,15
898 1373 m 1,26,-1
 575 1373 l 1,27,-1
 575 1473 l 1,28,-1
 898 1473 l 1,29,-1
 898 1373 l 1,26,-1
2048 0 m 1,30,-1
 1725 0 l 1,31,-1
 1725 100 l 1,32,-1
 1948 100 l 1,33,-1
 1948 323 l 1,34,-1
 2048 323 l 1,35,-1
 2048 0 l 1,30,-1
1423 591 m 0,36,37
 1423 382 1423 382 1149 382 c 2,38,-1
 909 382 l 1,39,-1
 909 1090 l 1,40,-1
 1144 1090 l 2,41,42
 1393 1090 1393 1090 1393 904 c 0,43,44
 1393 813 1393 813 1304 759 c 1,45,46
 1423 713 1423 713 1423 591 c 0,36,37
323 1373 m 1,47,-1
 100 1373 l 1,48,-1
 100 1150 l 1,49,-1
 0 1150 l 1,50,-1
 0 1473 l 1,51,-1
 323 1473 l 1,52,-1
 323 1373 l 1,47,-1
1473 0 m 1,53,-1
 1150 0 l 1,54,-1
 1150 100 l 1,55,-1
 1473 100 l 1,56,-1
 1473 0 l 1,53,-1
854 735 m 0,57,58
 854 562 854 562 772 466 c 128,-1,59
 690 370 690 370 537 370 c 256,60,61
 384 370 384 370 303.5 466 c 128,-1,62
 223 562 223 562 223 735 c 0,63,64
 223 910 223 910 303.5 1006 c 128,-1,65
 384 1102 384 1102 537 1102 c 256,66,67
 690 1102 690 1102 772 1006 c 128,-1,68
 854 910 854 910 854 735 c 0,57,58
100 575 m 1,69,-1
 0 575 l 1,70,-1
 0 898 l 1,71,-1
 100 898 l 1,72,-1
 100 575 l 1,69,-1
898 0 m 1,73,-1
 575 0 l 1,74,-1
 575 100 l 1,75,-1
 898 100 l 1,76,-1
 898 0 l 1,73,-1
323 0 m 1,77,-1
 0 0 l 1,78,-1
 0 323 l 1,79,-1
 100 323 l 1,80,-1
 100 100 l 1,81,-1
 323 100 l 1,82,-1
 323 0 l 1,77,-1
1277 893 m 0,83,84
 1277 992 1277 992 1114 992 c 2,85,-1
 1025 992 l 1,86,-1
 1025 798 l 1,87,-1
 1126 798 l 2,88,89
 1277 798 1277 798 1277 893 c 0,83,84
1307 591 m 0,90,91
 1307 700 1307 700 1136 700 c 2,92,-1
 1025 700 l 1,93,-1
 1025 480 l 1,94,-1
 1149 480 l 2,95,96
 1307 480 1307 480 1307 591 c 0,90,91
738 735 m 0,97,98
 738 1004 738 1004 537 1004 c 0,99,100
 339 1004 339 1004 339 735 c 0,101,102
 339 468 339 468 537 468 c 0,103,104
 738 468 738 468 738 735 c 0,97,98
EndSplineSet
EndChar

StartChar: zerowidthnonjoiner
Encoding: 8204 8204 88
Width: 0
GlyphClass: 2
Flags: W
LayerCount: 2
Fore
SplineSet
36 1289 m 1,0,-1
 36 -275 l 1,1,-1
 -36 -275 l 1,2,-1
 -36 1289 l 1,3,-1
 36 1289 l 1,0,-1
EndSplineSet
EndChar

StartChar: zerowidthjoiner
Encoding: 8205 8205 89
Width: 0
GlyphClass: 2
Flags: W
LayerCount: 2
Fore
SplineSet
36 -275 m 1,0,-1
 -36 -275 l 1,1,-1
 -36 1114 l 1,2,-1
 -170 978 l 1,3,-1
 -219 1027 l 1,4,-1
 -48 1196 l 1,5,-1
 -219 1364 l 1,6,-1
 -170 1413 l 1,7,-1
 0 1242 l 1,8,-1
 170 1413 l 1,9,-1
 219 1364 l 1,10,-1
 48 1196 l 1,11,-1
 219 1027 l 1,12,-1
 170 978 l 1,13,-1
 36 1114 l 1,14,-1
 36 -275 l 1,0,-1
EndSplineSet
EndChar

StartChar: lefttorightmark
Encoding: 8206 8206 90
Width: 0
GlyphClass: 2
Flags: W
LayerCount: 2
Fore
SplineSet
430 1198 m 1,0,-1
 213 984 l 1,1,-1
 164 1033 l 1,2,-1
 301 1163 l 1,3,-1
 35 1163 l 1,4,-1
 35 -275 l 1,5,-1
 -36 -275 l 1,6,-1
 -36 1234 l 1,7,-1
 301 1234 l 1,8,-1
 164 1364 l 1,9,-1
 213 1413 l 1,10,-1
 430 1198 l 1,0,-1
EndSplineSet
EndChar

StartChar: righttoleftmark
Encoding: 8207 8207 91
Width: 0
GlyphClass: 2
Flags: W
LayerCount: 2
Fore
SplineSet
35 -275 m 1,0,-1
 -36 -275 l 1,1,-1
 -36 1163 l 1,2,-1
 -302 1163 l 1,3,-1
 -165 1033 l 1,4,-1
 -214 984 l 1,5,-1
 -431 1198 l 1,6,-1
 -214 1413 l 1,7,-1
 -165 1364 l 1,8,-1
 -302 1234 l 1,9,-1
 35 1234 l 1,10,-1
 35 -275 l 1,0,-1
EndSplineSet
EndChar

StartChar: afii57388.001
Encoding: 1644 1644 92
Width: 353
GlyphClass: 2
Flags: W
LayerCount: 2
Fore
SplineSet
210 654 m 0,0,1
 200 627 200 627 185 603 c 0,2,3
 180 597 180 597 173.5 593.5 c 128,-1,4
 167 590 167 590 162 590 c 128,-1,5
 157 590 157 590 154.5 593 c 128,-1,6
 152 596 152 596 155 603 c 0,7,8
 187 660 187 660 202.5 713.5 c 128,-1,9
 218 767 218 767 218 800 c 1,10,11
 194 806 194 806 179 816 c 128,-1,12
 164 826 164 826 155 837.5 c 128,-1,13
 146 849 146 849 143 859 c 128,-1,14
 140 869 140 869 140 874 c 0,15,16
 140 890 140 890 145.5 907 c 128,-1,17
 151 924 151 924 160.5 937.5 c 128,-1,18
 170 951 170 951 183.5 959.5 c 128,-1,19
 197 968 197 968 213 968 c 0,20,21
 272 968 272 968 272 874 c 0,22,23
 272 859 272 859 268 835 c 128,-1,24
 264 811 264 811 256 781.5 c 128,-1,25
 248 752 248 752 236.5 719.5 c 128,-1,26
 225 687 225 687 210 654 c 0,0,1
EndSplineSet
EndChar

StartChar: afii57409
Encoding: 1569 1569 93
Width: 474
GlyphClass: 2
Flags: W
AnchorPoint: "Anchor-3" 225 -480 basechar 0
AnchorPoint: "Anchor-2" 285 585 basechar 0
LayerCount: 2
Fore
SplineSet
317 435 m 1,0,1
 358 420 358 420 381.5 380.5 c 128,-1,2
 405 341 405 341 405 337 c 2,3,-1
 405 332 l 2,4,5
 402 312 402 312 358 315 c 1,6,-1
 352 317 l 1,7,8
 344 313 344 313 343 304 c 2,9,-1
 342 298 l 2,10,11
 338 275 338 275 378 191 c 0,12,13
 392 155 392 155 387 118 c 0,14,15
 377 60 377 60 277 -6 c 128,-1,16
 177 -72 177 -72 152 -68 c 1,17,-1
 143 -68 l 1,18,-1
 130 -66 l 2,19,20
 103 -62 103 -62 97 -26.5 c 128,-1,21
 91 9 91 9 145 38 c 1,22,23
 270 119 270 119 275 149 c 0,24,25
 280 194 280 194 249 255 c 128,-1,26
 218 316 218 316 223 365 c 1,27,28
 233 411 233 411 259.5 425.5 c 128,-1,29
 286 440 286 440 317 435 c 1,0,1
EndSplineSet
EndChar

StartChar: afii57440
Encoding: 1600 1600 94
Width: 242
GlyphClass: 2
Flags: W
LayerCount: 2
Fore
SplineSet
-5 0 m 2,0,1
 -35 -1 -35 -1 -51.5 21.5 c 128,-1,2
 -68 44 -68 44 -69.5 72.5 c 128,-1,3
 -71 101 -71 101 -55.5 126 c 128,-1,4
 -40 151 -40 151 -5 155 c 1,5,-1
 247 155 l 1,6,7
 272 149 272 149 282 125.5 c 128,-1,8
 292 102 292 102 290.5 76 c 128,-1,9
 289 50 289 50 277.5 27 c 128,-1,10
 266 4 266 4 247 0 c 1,11,-1
 -5 0 l 2,0,1
EndSplineSet
EndChar

StartChar: afii57453
Encoding: 1613 1613 95
Width: 0
GlyphClass: 4
Flags: W
AnchorPoint: "Anchor-3" 0 0 mark 0
AnchorPoint: "Anchor-1" 0 0 mark 0
LayerCount: 2
Fore
SplineSet
157 -36 m 1,0,1
 95 -82 95 -82 -23 -114.5 c 128,-1,2
 -141 -147 -141 -147 -218 -147 c 1,3,-1
 -255 -114 l 1,4,5
 13 -53 13 -53 167 52 c 1,6,7
 207 51 207 51 157 -36 c 1,0,1
155 134 m 1,8,9
 96 85 96 85 -20 46 c 128,-1,10
 -136 7 -136 7 -213 2 c 1,11,-1
 -252 33 l 1,12,13
 12 109 12 109 160 223 c 1,14,15
 200 224 200 224 155 134 c 1,8,9
EndSplineSet
EndChar

StartChar: afii57381
Encoding: 1642 1642 96
Width: 1507
GlyphClass: 2
Flags: W
LayerCount: 2
Fore
SplineSet
1023 1328 m 0,0,1
 1070 1328 1070 1328 1087 1227 c 1,2,-1
 1087 1222 l 2,3,4
 1087 1175 1087 1175 1000 1052 c 1,5,6
 851 801 851 801 600 219 c 1,7,8
 489 0 489 0 388 -130 c 1,9,-1
 364 -135 l 1,10,-1
 352 -135 l 2,11,12
 293 -135 293 -135 276 -29 c 1,13,-1
 276 -24 l 2,14,15
 276 14 276 14 360 150 c 1,16,17
 487 393 487 393 751 941 c 0,18,19
 820 1082 820 1082 983 1312 c 1,20,21
 1003 1328 1003 1328 1023 1328 c 0,0,1
383 1247 m 0,22,23
 486 1247 486 1247 542 1127 c 1,24,-1
 542 1084 l 2,25,26
 542 1009 542 1009 430 985 c 1,27,-1
 404 985 l 2,28,29
 289 985 289 985 289 1054 c 2,30,-1
 289 1067 l 2,31,32
 289 1080 289 1080 311 1114 c 1,33,34
 298 1136 298 1136 298 1157 c 0,35,36
 312 1247 312 1247 383 1247 c 0,22,23
1002 168 m 2,37,38
 1103 168 1103 168 1144 44 c 1,39,-1
 1144 10 l 2,40,41
 1144 -84 1144 -84 1037 -127 c 1,42,-1
 1002 -131 l 1,43,-1
 998 -131 l 2,44,45
 898 -131 898 -131 844 -11 c 1,46,-1
 844 -3 l 2,47,48
 844 41 844 41 917 100 c 1,49,50
 917 157 917 157 977 168 c 1,51,-1
 1002 168 l 2,37,38
EndSplineSet
EndChar

StartChar: afii57461
Encoding: 1643 1643 97
Width: 536
GlyphClass: 2
Flags: W
LayerCount: 2
Fore
SplineSet
518 521 m 1,0,-1
 115 -382 l 1,1,-1
 19 -352 l 1,2,-1
 425 551 l 1,3,-1
 518 521 l 1,0,-1
EndSplineSet
EndChar

StartChar: afii63167
Encoding: 1645 1645 98
Width: 1118
GlyphClass: 2
Flags: W
LayerCount: 2
Fore
SplineSet
694 729 m 1,0,-1
 1057 733 l 1,1,-1
 1057 610 l 1,2,-1
 702 612 l 1,3,-1
 971 352 l 1,4,-1
 883 264 l 1,5,-1
 616 539 l 1,6,-1
 623 168 l 1,7,-1
 498 168 l 1,8,-1
 502 539 l 1,9,-1
 236 264 l 1,10,-1
 147 352 l 1,11,-1
 422 614 l 1,12,-1
 63 610 l 1,13,-1
 63 733 l 1,14,-1
 420 729 l 1,15,-1
 170 975 l 1,16,-1
 258 1065 l 1,17,-1
 502 817 l 1,18,-1
 498 1176 l 1,19,-1
 623 1176 l 1,20,-1
 616 813 l 1,21,-1
 860 1065 l 1,22,-1
 948 975 l 1,23,-1
 694 729 l 1,0,-1
EndSplineSet
EndChar

StartChar: afii57459
Encoding: 65543 -1 99
Width: 707
GlyphClass: 2
Flags: W
LayerCount: 2
Fore
SplineSet
531 696 m 2,0,-1
 569 696 l 2,1,2
 691 696 691 696 707 539 c 1,3,4
 707 230 707 230 213 30 c 1,5,6
 124 0 124 0 11 0 c 2,7,-1
 -15 0 l 1,8,9
 -90 17 -90 17 -90 67 c 2,10,-1
 -90 90 l 2,11,12
 -90 146 -90 146 0 155 c 1,13,14
 97 155 97 155 146 170 c 1,15,-1
 146 173 l 1,16,17
 116 229 116 229 116 273 c 2,18,-1
 116 292 l 2,19,20
 116 413 116 413 348 617 c 1,21,22
 447 696 447 696 531 696 c 2,0,-1
247 307 m 2,23,-1
 247 288 l 2,24,25
 247 251 247 251 280 228 c 1,26,27
 371 264 371 264 501 393 c 1,28,29
 557 467 557 467 557 505 c 0,30,31
 557 519 557 519 535 535 c 1,32,-1
 531 535 l 2,33,34
 456 535 456 535 273 355 c 0,35,36
 247 326 247 326 247 307 c 2,23,-1
EndSplineSet
EndChar

StartChar: afii57543
Encoding: 65544 -1 100
Width: 400
Flags: W
LayerCount: 2
Fore
SplineSet
399 155 m 0,0,1
 462 156 462 156 479 91 c 1,2,-1
 479 73 l 1,3,4
 463 0 463 0 396 0 c 0,5,6
 231 -1 231 -1 214 122 c 1,7,8
 170 54 170 54 122 27 c 128,-1,9
 74 0 74 0 1 0 c 1,10,11
 -82 11 -82 11 -76.5 77 c 128,-1,12
 -71 143 -71 143 2 155 c 1,13,14
 122 155 122 155 184.5 349 c 128,-1,15
 247 543 247 543 282 580 c 128,-1,16
 317 617 317 617 360 604 c 1,17,18
 437 562 437 562 384 442 c 1,19,20
 344 333 344 333 327 286.5 c 128,-1,21
 310 240 310 240 320 198.5 c 128,-1,22
 330 157 330 157 399 155 c 0,0,1
EndSplineSet
EndChar

StartChar: afii57534
Encoding: 1749 1749 101
Width: 997
GlyphClass: 2
Flags: W
LayerCount: 2
Fore
SplineSet
617 585 m 0,0,1
 657 585 657 585 759 508 c 1,2,3
 838 437 838 437 853 410 c 0,4,5
 897 345 897 345 897 261 c 0,6,7
 897 145 897 145 807 83 c 1,8,9
 677 4 677 4 458 4 c 2,10,-1
 418 4 l 2,11,12
 212 4 212 4 163 34 c 1,13,14
 134 45 134 45 98 80 c 1,15,16
 53 132 53 132 53 195 c 0,17,18
 53 289 53 289 155 369 c 0,19,20
 229 432 229 432 299 470 c 0,21,22
 367 510 367 510 463 543 c 0,23,24
 545 571 545 571 564 571 c 2,25,-1
 573 571 l 1,26,-1
 590 579 l 2,27,28
 604 585 604 585 617 585 c 0,0,1
604 437 m 1,29,30
 594 429 594 429 544 417 c 0,31,32
 444 385 444 385 375 347 c 0,33,34
 309 311 309 311 229 242 c 0,35,36
 198 213 198 213 198 194 c 2,37,-1
 198 193 l 2,38,39
 198 174 198 174 240 160 c 0,40,41
 258 152 258 152 422 149 c 2,42,-1
 441 149 l 2,43,44
 644 149 644 149 735 209 c 1,45,46
 752 229 752 229 752 258 c 2,47,-1
 752 265 l 2,48,49
 752 314 752 314 714 351 c 0,50,51
 670 396 670 396 644 413 c 2,52,-1
 604 437 l 1,29,30
EndSplineSet
EndChar

StartChar: afii64240
Encoding: 65546 -1 103
Width: 227
Flags: W
LayerCount: 2
Fore
SplineSet
86 -1 m 1,0,1
 159 -1 159 -1 210 -97 c 1,2,-1
 210 -117 l 2,3,4
 210 -166 210 -166 122 -185 c 1,5,-1
 102 -185 l 2,6,7
 26 -185 26 -185 10 -69 c 1,8,9
 10 -10 10 -10 86 -1 c 1,0,1
EndSplineSet
EndChar

StartChar: afii64241
Encoding: 65547 -1 104
Width: 780
Flags: W
LayerCount: 2
Fore
SplineSet
555 164 m 0,0,1
 583 165 583 165 601 154 c 128,-1,2
 619 143 619 143 623.5 126.5 c 128,-1,3
 628 110 628 110 618 92 c 128,-1,4
 608 74 608 74 581 62 c 0,5,6
 523 39 523 39 134 -2 c 1,7,-1
 126 -2 l 2,8,9
 30 -2 30 -2 30 50 c 0,10,11
 30 115 30 115 138 138 c 1,12,13
 289 162 289 162 555 164 c 0,0,1
EndSplineSet
EndChar

StartChar: afii63954
Encoding: 65548 -1 105
Width: 615
Flags: W
LayerCount: 2
Fore
SplineSet
305 408 m 1,0,1
 378 408 378 408 429 312 c 1,2,-1
 429 292 l 2,3,4
 429 243 429 243 341 224 c 1,5,-1
 321 224 l 2,6,7
 245 224 245 224 229 340 c 1,8,9
 229 398 229 398 305 408 c 1,0,1
555 164 m 0,10,11
 590 164 590 164 607 136 c 1,12,-1
 581 68 l 1,13,14
 572 33 572 33 134 -2 c 1,15,-1
 126 -2 l 2,16,17
 30 -2 30 -2 30 50 c 0,18,19
 30 115 30 115 138 138 c 1,20,21
 289 162 289 162 555 164 c 0,10,11
EndSplineSet
EndChar

StartChar: afii57382
Encoding: 65549 -1 106
Width: 759
Flags: W
LayerCount: 2
Fore
SplineSet
352 -302 m 1,0,1
 424 -302 424 -302 476 -398 c 1,2,-1
 476 -418 l 2,3,4
 476 -467 476 -467 388 -486 c 1,5,-1
 368 -486 l 2,6,7
 292 -486 292 -486 276 -370 c 1,8,9
 276 -311 276 -311 352 -302 c 1,0,1
695 -2 m 0,10,11
 730 -2 730 -2 747 -30 c 1,12,-1
 721 -98 l 2,13,14
 712 -132 712 -132 131 -190 c 1,15,-1
 123 -190 l 2,16,17
 27 -190 27 -190 27 -138 c 0,18,19
 27 -72 27 -72 135 -50 c 1,20,21
 286 -26 286 -26 695 -2 c 0,10,11
EndSplineSet
EndChar

StartChar: afii64242
Encoding: 65550 -1 107
Width: 580
Flags: W
LayerCount: 2
Fore
SplineSet
-6 1 m 1,0,1
 -90 10 -90 10 -85 79.5 c 128,-1,2
 -80 149 -80 149 -9 155 c 0,3,4
 162 161 162 161 240 232 c 128,-1,5
 318 303 318 303 337.5 435.5 c 128,-1,6
 357 568 357 568 411 603 c 0,7,8
 431 615 431 615 462 610 c 0,9,10
 548 589 548 589 510 449 c 1,11,12
 471 265 471 265 408 178.5 c 128,-1,13
 345 92 345 92 236 43 c 128,-1,14
 127 -6 127 -6 -6 1 c 1,0,1
EndSplineSet
EndChar

StartChar: afii57373
Encoding: 65551 -1 112
Width: 454
Flags: W
LayerCount: 2
Fore
SplineSet
250 1428 m 0,0,1
 274 1428 274 1428 302 1401 c 0,2,3
 339 1366 339 1366 339 1362 c 2,4,-1
 340 1358 l 1,5,6
 340 1340 340 1340 312 1336 c 1,7,-1
 307 1336 l 1,8,9
 300 1332 300 1332 300 1323 c 2,10,-1
 300 1318 l 2,11,12
 300 1295 300 1295 347 1224 c 0,13,14
 366 1192 366 1192 366 1157 c 0,15,16
 366 1110 366 1110 323 1078 c 1,17,18
 198 953 198 953 173 953 c 2,19,-1
 165 952 l 1,20,-1
 153 952 l 2,21,22
 128 952 128 952 124 984 c 1,23,24
 124 1022 124 1022 170 1057 c 2,25,-1
 250 1124 l 1,26,27
 273 1156 273 1156 273 1184 c 0,28,29
 273 1227 273 1227 211 1295 c 0,30,31
 187 1326 187 1326 187 1354 c 0,32,33
 187 1403 187 1403 221 1421 c 0,34,35
 237 1428 237 1428 250 1428 c 0,0,1
EndSplineSet
EndChar

StartChar: afii57374
Encoding: 65552 -1 113
Width: 601
GlyphClass: 2
Flags: W
LayerCount: 2
Fore
SplineSet
531 696 m 2,0,-1
 569 696 l 2,1,2
 691 696 691 696 707 539 c 1,3,4
 707 327 707 327 475 163 c 1,5,6
 531 157 531 157 602 155 c 0,7,8
 651 150 651 150 674.5 119 c 128,-1,9
 698 88 698 88 687.5 56.5 c 128,-1,10
 677 25 677 25 644 10.5 c 128,-1,11
 611 -4 611 -4 558 -0.5 c 128,-1,12
 505 3 505 3 419 15.5 c 128,-1,13
 333 28 333 28 279 58 c 1,14,15
 247 44 247 44 213 30 c 0,16,17
 124 0 124 0 11 0 c 2,18,-1
 -15 0 l 1,19,20
 -90 17 -90 17 -90 67 c 2,21,-1
 -90 90 l 2,22,23
 -90 156 -90 156 0 165 c 1,24,25
 97 165 97 165 146 180 c 1,26,-1
 146 183 l 1,27,28
 116 229 116 229 116 273 c 2,29,-1
 116 292 l 2,30,31
 116 413 116 413 348 617 c 1,32,33
 447 696 447 696 531 696 c 2,0,-1
247 307 m 2,34,-1
 247 288 l 2,35,36
 247 251 247 251 280 228 c 1,37,38
 371 264 371 264 501 393 c 1,39,40
 557 467 557 467 557 505 c 0,41,42
 557 522 557 522 535 535 c 1,43,-1
 531 535 l 2,44,45
 456 535 456 535 273 355 c 0,46,47
 247 326 247 326 247 307 c 2,34,-1
EndSplineSet
EndChar

StartChar: afii57375
Encoding: 1619 1619 114
Width: 1177
GlyphClass: 2
Flags: W
LayerCount: 2
Fore
SplineSet
1101 1448 m 1,0,1
 1067 1407 1067 1407 854 1383.5 c 128,-1,2
 641 1360 641 1360 467 1291.5 c 128,-1,3
 293 1223 293 1223 300.5 1120 c 128,-1,4
 308 1017 308 1017 313 972.5 c 128,-1,5
 318 928 318 928 255 896 c 1,6,-1
 228 897 l 1,7,8
 169 911 169 911 163 999 c 1,9,10
 84 1360 84 1360 528.5 1467 c 128,-1,11
 973 1574 973 1574 1044.5 1541 c 128,-1,12
 1116 1508 1116 1508 1101 1448 c 1,0,1
EndSplineSet
EndChar

StartChar: afii57391
Encoding: 59450 59450 115
Width: 1024
GlyphClass: 2
Flags: W
LayerCount: 2
Fore
SplineSet
1024 0 m 1,0,-1
 -70 0 l 1,1,-1
 -70 188 l 1,2,-1
 1024 188 l 1,3,-1
 1024 0 l 1,0,-1
EndSplineSet
EndChar

StartChar: afii57471
Encoding: 65553 -1 116
Width: 1806
Flags: W
LayerCount: 2
Fore
SplineSet
1811 156 m 1,0,1
 1860 151 1860 151 1879 119.5 c 128,-1,2
 1898 88 1898 88 1887.5 55 c 128,-1,3
 1877 22 1877 22 1844 6 c 128,-1,4
 1811 -10 1811 -10 1746 13.5 c 128,-1,5
 1681 37 1681 37 1636 111 c 0,6,7
 1608 155 1608 155 1604 214 c 1,8,9
 1552 166 1552 166 1491 138 c 0,10,11
 1282 41 1282 41 1102 16 c 128,-1,12
 922 -9 922 -9 664 -9 c 0,13,14
 163 -9 163 -9 50 201 c 1,15,16
 27 261 27 261 27 299 c 0,17,18
 27 482 27 482 295 648 c 1,19,20
 408 706 408 706 530 739 c 1,21,22
 722 784 722 784 856 784 c 0,23,24
 907 784 907 784 931 716 c 1,25,-1
 931 688 l 2,26,27
 931 630 931 630 853 613 c 1,28,-1
 800 613 l 2,29,30
 489 613 489 613 277 438 c 1,31,32
 184 346 184 346 184 289 c 0,33,34
 184 155 184 155 550 127 c 1,35,-1
 674 125 l 1,36,-1
 676 125 l 1,37,38
 1254 149 1254 149 1427 264.5 c 128,-1,39
 1600 380 1600 380 1624 502 c 128,-1,40
 1648 624 1648 624 1693 658 c 1,41,42
 1710 665 1710 665 1729 665 c 0,43,44
 1804 661 1804 661 1810 584 c 1,45,46
 1781 486 1781 486 1742 408 c 1,47,48
 1712 304 1712 304 1725 257 c 0,49,50
 1743 184 1743 184 1811 156 c 1,0,1
EndSplineSet
EndChar

StartChar: afii52258
Encoding: 65554 -1 117
Width: 2270
GlyphClass: 2
Flags: W
LayerCount: 2
Fore
SplineSet
1007 1113 m 2,0,-1
 1012 1113 l 1,1,2
 1097 1101 1097 1101 1097 1032 c 2,3,-1
 1097 1017 l 2,4,5
 1097 951 1097 951 980 928 c 1,6,7
 565 790 565 790 408 662 c 1,8,9
 237 546 237 546 237 392 c 2,10,-1
 237 368 l 2,11,12
 237 81 237 81 698 -46 c 0,13,14
 817 -78 817 -78 960 -78 c 0,15,16
 1380 -78 1380 -78 1894 177 c 1,17,18
 1879 240 1879 240 1879 281 c 0,19,20
 1879 503 1879 503 2060 645 c 1,21,22
 2135 697 2135 697 2194 697 c 2,23,-1
 2201 697 l 2,24,25
 2322 697 2322 697 2360 558 c 1,26,-1
 2365 506 l 1,27,-1
 2365 501 l 2,28,29
 2365 364 2365 364 2243 207 c 1,30,31
 2218 183 2218 183 2194 162 c 1,32,33
 2228 155 2228 155 2277 156 c 1,34,35
 2326 151 2326 151 2345 116.5 c 128,-1,36
 2364 82 2364 82 2346 46.5 c 128,-1,37
 2328 11 2328 11 2302.5 2.5 c 128,-1,38
 2277 -6 2277 -6 2185.5 1 c 128,-1,39
 2094 8 2094 8 2042 33 c 0,40,41
 2029 39 2029 39 2018 47 c 1,42,43
 1894 -22 1894 -22 1758 -75 c 1,44,45
 1366 -214 1366 -214 1025 -214 c 0,46,47
 600 -214 600 -214 282 8 c 1,48,49
 71 173 71 173 71 383 c 0,50,51
 71 674 71 674 482 908 c 0,52,53
 610 982 610 982 856 1069 c 0,54,55
 988 1113 988 1113 1007 1113 c 2,0,-1
2050 308 m 0,56,57
 2050 278 2050 278 2058 278 c 1,58,59
 2158 363 2158 363 2177 442 c 1,60,61
 2191 467 2191 467 2191 501 c 2,62,-1
 2191 506 l 1,63,-1
 2189 519 l 1,64,65
 2104 478 2104 478 2058 360 c 0,66,67
 2050 334 2050 334 2050 308 c 0,56,57
EndSplineSet
EndChar

StartChar: afii62889
Encoding: 65555 -1 123
Width: 2474
Flags: W
LayerCount: 2
Fore
SplineSet
1612 1029 m 1,0,1
 1973 1021 1973 1021 1973 1007 c 1,2,3
 2018 981 2018 981 2018 930 c 0,4,5
 2018 877 2018 877 1956 854 c 1,6,-1
 1942 852 l 1,7,8
 1712 865 1712 865 1605 865 c 0,9,10
 1121 865 1121 865 703 672 c 1,11,12
 536 600 536 600 379 491 c 1,13,14
 194 356 194 356 139 184 c 1,15,16
 120 107 120 107 120 36 c 0,17,18
 120 -164 120 -164 368 -351 c 1,19,20
 637 -529 637 -529 984 -529 c 2,21,-1
 1006 -529 l 2,22,23
 1389 -529 1389 -529 1810 -332 c 0,24,25
 1914 -279 1914 -279 2016 -202 c 1,26,27
 2112 -120 2112 -120 2157 -59 c 2,28,-1
 2204 8 l 1,29,-1
 2204 10 l 1,30,-1
 2202 10 l 2,31,32
 2062 10 2062 10 2007 142 c 0,33,34
 1992 182 1992 182 1992 227 c 2,35,-1
 1992 240 l 2,36,37
 1992 413 1992 413 2146 504 c 1,38,39
 2203 529 2203 529 2249 529 c 2,40,-1
 2258 529 l 2,41,42
 2384 529 2384 529 2446 393 c 1,43,44
 2464 342 2464 342 2464 281 c 0,45,46
 2464 224 2464 224 2446 155 c 1,47,48
 2458 156 2458 156 2473 156 c 0,49,50
 2522 151 2522 151 2541 116.5 c 128,-1,51
 2560 82 2560 82 2542 46.5 c 128,-1,52
 2524 11 2524 11 2498 3 c 0,53,54
 2474 -4 2474 -4 2387 1 c 1,55,56
 2375 -22 2375 -22 2362 -49 c 0,57,58
 2315 -139 2315 -139 2195 -263 c 1,59,60
 2081 -369 2081 -369 1983 -423 c 1,61,62
 1879 -487 1879 -487 1690 -554 c 1,63,64
 1380 -654 1380 -654 1067 -654 c 0,65,66
 568 -654 568 -654 210 -388 c 1,67,68
 -34 -184 -34 -184 -34 26 c 2,69,-1
 -34 54 l 2,70,71
 -34 166 -34 166 27 317 c 0,72,73
 64 405 64 405 176 527 c 1,74,75
 322 661 322 661 422 711 c 1,76,77
 594 816 594 816 851 906 c 0,78,79
 1196 1029 1196 1029 1612 1029 c 1,0,1
2156 237 m 2,80,-1
 2156 227 l 2,81,82
 2156 186 2156 186 2185 173 c 0,83,84
 2219 157 2219 157 2245 157 c 2,85,-1
 2249 157 l 2,86,87
 2296 157 2296 157 2308 279 c 1,88,-1
 2310 294 l 1,89,90
 2301 365 2301 365 2249 365 c 0,91,92
 2194 365 2194 365 2163 287 c 0,93,94
 2156 263 2156 263 2156 237 c 2,80,-1
EndSplineSet
EndChar

StartChar: afii62887
Encoding: 65556 -1 124
Width: 1628
Flags: W
LayerCount: 2
Fore
SplineSet
1628 908 m 0,0,1
 1711 896 1711 896 1711 827 c 0,2,3
 1711 466 1711 466 1542 309 c 0,4,5
 1377 152 1377 152 1163 74 c 0,6,7
 926 -9 926 -9 668 -9 c 0,8,9
 167 -9 167 -9 54 201 c 1,10,11
 31 261 31 261 31 299 c 0,12,13
 31 482 31 482 299 648 c 1,14,15
 412 706 412 706 534 739 c 1,16,17
 726 784 726 784 860 784 c 0,18,19
 911 784 911 784 935 716 c 1,20,-1
 935 688 l 2,21,22
 935 630 935 630 857 613 c 1,23,-1
 804 613 l 2,24,25
 493 613 493 613 281 438 c 1,26,27
 188 346 188 346 188 289 c 0,28,29
 188 155 188 155 554 127 c 1,30,-1
 678 125 l 1,31,-1
 680 125 l 2,32,33
 1151 125 1151 125 1453 438 c 1,34,35
 1539 540 1539 540 1539 812 c 0,36,37
 1539 877 1539 877 1592 901 c 0,38,39
 1609 908 1609 908 1628 908 c 0,0,1
EndSplineSet
EndChar

StartChar: afii62888
Encoding: 1697 1697 125
Width: 2470
GlyphClass: 2
Flags: W
LayerCount: 2
Fore
SplineSet
1007 1170 m 2,0,-1
 1012 1170 l 1,1,2
 1097 1158 1097 1158 1097 1088 c 2,3,-1
 1097 1073 l 2,4,5
 1097 1007 1097 1007 980 984 c 1,6,7
 565 846 565 846 408 719 c 1,8,9
 237 602 237 602 237 449 c 2,10,-1
 237 424 l 2,11,12
 237 137 237 137 698 10 c 0,13,14
 817 -21 817 -21 960 -21 c 0,15,16
 1380 -21 1380 -21 1894 233 c 1,17,18
 1879 297 1879 297 1879 337 c 0,19,20
 1879 559 1879 559 2060 702 c 1,21,22
 2135 754 2135 754 2194 754 c 2,23,-1
 2201 754 l 2,24,25
 2322 754 2322 754 2360 615 c 1,26,-1
 2365 563 l 1,27,-1
 2365 558 l 2,28,29
 2365 421 2365 421 2243 266 c 1,30,31
 2123 151 2123 151 2033 112 c 1,32,33
 1903 37 1903 37 1758 -19 c 1,34,35
 1366 -157 1366 -157 1025 -157 c 0,36,37
 600 -157 600 -157 282 65 c 1,38,39
 71 229 71 229 71 439 c 0,40,41
 71 730 71 730 482 964 c 0,42,43
 610 1038 610 1038 856 1125 c 0,44,45
 988 1170 988 1170 1007 1170 c 2,0,-1
2050 365 m 0,46,47
 2050 335 2050 335 2058 335 c 1,48,49
 2158 419 2158 419 2177 498 c 1,50,51
 2191 524 2191 524 2191 558 c 2,52,-1
 2191 563 l 1,53,-1
 2189 575 l 1,54,55
 2104 535 2104 535 2058 417 c 0,56,57
 2050 391 2050 391 2050 365 c 0,46,47
EndSplineSet
Substitution2: "'medi' Medial Forms in Arabic lookup 3 subtable" afii57374
Substitution2: "'fina' Terminal Forms in Arabic lookup 2 subtable" afii52258
Substitution2: "'init' Initial Forms in Arabic lookup 1 subtable" afii57459
EndChar

StartChar: afii57567
Encoding: 1705 1705 132
Width: 1802
GlyphClass: 2
Flags: W
AnchorPoint: "Anchor-3" 750 -555 basechar 0
AnchorPoint: "Anchor-2" 1140 1575 basechar 0
LayerCount: 2
Fore
SplineSet
696 1033 m 1,0,-1
 710 1039 l 1,1,2
 780 1026 780 1026 780 970 c 2,3,-1
 780 959 l 2,4,5
 780 894 780 894 661 862 c 1,6,7
 186 668 186 668 186 422 c 0,8,9
 186 222 186 222 605 138 c 0,10,11
 678 124 678 124 759 124 c 0,12,13
 1052 124 1052 124 1434 338 c 0,14,15
 1540 401 1540 401 1686 551 c 1,16,17
 1801 685 1801 685 1801 862 c 1,18,-1
 1794 964 l 1,19,20
 1816 1026 1816 1026 1857 1026 c 2,21,-1
 1878 1026 l 2,22,23
 1940 1026 1940 1026 1948 946 c 2,24,-1
 1951 890 l 1,25,-1
 1951 838 l 2,26,27
 1951 441 1951 441 1431 163 c 1,28,29
 1091 9 1091 9 798 9 c 2,30,-1
 763 9 l 2,31,32
 374 9 374 9 137 201 c 1,33,34
 32 312 32 312 32 436 c 0,35,36
 32 763 32 763 584 998 c 1,37,-1
 696 1033 l 1,0,-1
3066 2133 m 1,38,39
 3122 2133 3122 2133 3143 2070 c 1,40,-1
 3143 2049 l 2,41,42
 3143 2010 3143 2010 3042 1916 c 1,43,44
 2490 1538 2490 1538 2037 1468 c 1,45,46
 2022 1461 2022 1461 1877 1440 c 1,47,48
 1825 1440 1825 1440 1810 1510 c 1,49,-1
 1810 1527 l 2,50,51
 1810 1564 1810 1564 1888 1580.5 c 128,-1,52
 1966 1597 1966 1597 2070 1620 c 128,-1,53
 2174 1643 2174 1643 2459.5 1753 c 128,-1,54
 2745 1863 2745 1863 3024 2119 c 1,55,-1
 3066 2133 l 1,38,39
EndSplineSet
Substitution2: "'medi' Medial Forms in Arabic lookup 3 subtable" afii52306
Substitution2: "'fina' Terminal Forms in Arabic lookup 2 subtable" afii62964
Substitution2: "'init' Initial Forms in Arabic lookup 1 subtable" afii52305
EndChar

StartChar: afii62964
Encoding: 64399 64399 133
Width: 2098
GlyphClass: 2
Flags: W
AnchorPoint: "Anchor-3" 930 -570 basechar 0
AnchorPoint: "Anchor-2" 1335 1440 basechar 0
LayerCount: 2
Fore
SplineSet
836 1034 m 1,0,-1
 850 1034 l 1,1,2
 920 1020 920 1020 920 964 c 2,3,-1
 920 953 l 2,4,5
 920 888 920 888 801 863 c 1,6,7
 326 668 326 668 326 422 c 0,8,9
 326 223 326 223 745 139 c 0,10,11
 818 125 818 125 899 125 c 0,12,13
 1192 125 1192 125 1574 338 c 1,14,15
 1680 402 1680 402 1826 551 c 1,16,17
 1941 686 1941 686 1941 863 c 1,18,-1
 1934 964 l 1,19,20
 1956 1027 1956 1027 1997 1027 c 2,21,-1
 2018 1027 l 2,22,23
 2080 1027 2080 1027 2088 946 c 2,24,-1
 2091 891 l 1,25,-1
 2091 838 l 2,26,27
 2091 442 2091 442 1571 163 c 1,28,29
 1231 9 1231 9 938 9 c 2,30,-1
 903 9 l 2,31,32
 514 9 514 9 277 202 c 1,33,34
 172 312 172 312 172 436 c 0,35,36
 172 763 172 763 724 999 c 1,37,-1
 836 1034 l 1,0,-1
3228 2020 m 1,38,39
 3284 2020 3284 2020 3305 1957 c 1,40,-1
 3305 1936 l 2,41,42
 3305 1898 3305 1898 3204 1804 c 1,43,44
 2618 1410 2618 1410 2199 1355 c 1,45,46
 2184 1348 2184 1348 2039 1327 c 1,47,48
 1987 1327 1987 1327 1972 1397 c 1,49,-1
 1972 1415 l 2,50,51
 1972 1452 1972 1452 2050 1468.5 c 128,-1,52
 2128 1485 2128 1485 2232 1507.5 c 128,-1,53
 2336 1530 2336 1530 2621.5 1640 c 128,-1,54
 2907 1750 2907 1750 3186 2006 c 1,55,-1
 3228 2020 l 1,38,39
2089 162 m 1,56,57
 2138 157 2138 157 2157 122.5 c 128,-1,58
 2176 88 2176 88 2158 52.5 c 128,-1,59
 2140 17 2140 17 2114.5 8.5 c 128,-1,60
 2089 0 2089 0 2056 1.5 c 128,-1,61
 2023 3 2023 3 1982.5 24 c 128,-1,62
 1942 45 1942 45 1902 123 c 128,-1,63
 1862 201 1862 201 1887 360 c 128,-1,64
 1912 519 1912 519 2012.5 720.5 c 128,-1,65
 2113 922 2113 922 2069 676 c 128,-1,66
 2025 430 2025 430 2020 330.5 c 128,-1,67
 2015 231 2015 231 2039.5 195 c 128,-1,68
 2064 159 2064 159 2089 162 c 1,56,57
EndSplineSet
EndChar

StartChar: afii52305
Encoding: 64400 64400 134
Width: 691
GlyphClass: 2
Flags: W
AnchorPoint: "Anchor-3" 270 -615 basechar 0
AnchorPoint: "Anchor-2" 315 1590 basechar 0
LayerCount: 2
Fore
SplineSet
7 0 m 1,0,1
 -78 8 -78 8 -78 70 c 2,2,-1
 -78 93 l 2,3,4
 -78 156 -78 156 7 156 c 0,5,6
 129 156 129 156 254.5 261.5 c 128,-1,7
 380 367 380 367 393.5 507 c 128,-1,8
 407 647 407 647 378.5 786.5 c 128,-1,9
 350 926 350 926 384.5 959.5 c 128,-1,10
 419 993 419 993 456 963.5 c 128,-1,11
 493 934 493 934 524 798 c 128,-1,12
 555 662 555 662 535 454.5 c 128,-1,13
 515 247 515 247 359.5 129.5 c 128,-1,14
 204 12 204 12 7 0 c 1,0,1
1310 1870 m 1,15,16
 1366 1870 1366 1870 1387 1807 c 1,17,-1
 1387 1786 l 2,18,19
 1387 1747 1387 1747 1141.5 1598.5 c 128,-1,20
 896 1450 896 1450 744 1363.5 c 128,-1,21
 592 1277 592 1277 504.5 1242.5 c 128,-1,22
 417 1208 417 1208 400.5 1276.5 c 128,-1,23
 384 1345 384 1345 468.5 1387.5 c 128,-1,24
 553 1430 553 1430 765 1536.5 c 128,-1,25
 977 1643 977 1643 1268 1856 c 1,26,-1
 1310 1870 l 1,15,16
EndSplineSet
EndChar

StartChar: afii52306
Encoding: 64401 64401 135
Width: 543
GlyphClass: 2
Flags: W
AnchorPoint: "Anchor-3" 210 -510 basechar 0
AnchorPoint: "Anchor-2" 555 1590 basechar 0
LayerCount: 2
Fore
SplineSet
-2 0 m 1,0,1
 -87 8 -87 8 -87 70 c 2,2,-1
 -87 93 l 2,3,4
 -87 162 -87 162 -2 162 c 0,5,6
 120 162 120 162 245.5 264.5 c 128,-1,7
 371 367 371 367 384.5 507 c 128,-1,8
 398 647 398 647 369.5 786.5 c 128,-1,9
 341 926 341 926 375.5 959.5 c 128,-1,10
 410 993 410 993 447 963.5 c 128,-1,11
 484 934 484 934 515 798 c 128,-1,12
 546 662 546 662 526 454 c 0,13,14
 518 377 518 377 492 307 c 1,15,16
 494 284 494 284 499 252 c 0,17,18
 509 179 509 179 548.5 164 c 128,-1,19
 588 149 588 149 602 126 c 128,-1,20
 616 103 616 103 611 67 c 128,-1,21
 606 31 606 31 576 11 c 128,-1,22
 546 -9 546 -9 497.5 14 c 128,-1,23
 449 37 449 37 402 109 c 0,24,25
 389 130 389 130 381 154 c 1,26,27
 366 141 366 141 350 129 c 0,28,29
 195 12 195 12 -2 0 c 1,0,1
1301 1870 m 1,30,31
 1357 1870 1357 1870 1378 1807 c 1,32,-1
 1378 1786 l 2,33,34
 1378 1747 1378 1747 1132.5 1598.5 c 128,-1,35
 887 1450 887 1450 735 1363.5 c 128,-1,36
 583 1277 583 1277 495.5 1242.5 c 128,-1,37
 408 1208 408 1208 391.5 1276.5 c 128,-1,38
 375 1345 375 1345 459.5 1387.5 c 128,-1,39
 544 1430 544 1430 756 1536.5 c 128,-1,40
 968 1643 968 1643 1259 1856 c 1,41,-1
 1301 1870 l 1,30,31
EndSplineSet
EndChar

StartChar: afii57509
Encoding: 1711 1711 136
Width: 1801
GlyphClass: 2
Flags: W
AnchorPoint: "Anchor-3" 750 -585 basechar 0
AnchorPoint: "Anchor-2" 1140 1440 basechar 0
LayerCount: 2
Fore
SplineSet
3079 2129 m 1,0,1
 3135 2129 3135 2129 3156 2066 c 1,2,-1
 3156 2045 l 2,3,4
 3156 2006 3156 2006 3055 1912 c 1,5,6
 2469 1518 2469 1518 2050 1464 c 1,7,8
 2035 1457 2035 1457 1890 1436 c 1,9,10
 1838 1436 1838 1436 1823 1506 c 1,11,-1
 1823 1523 l 2,12,13
 1823 1560 1823 1560 1879 1593 c 1,14,15
 1916 1699 1916 1699 2110 1894 c 0,16,17
 2319 2104 2319 2104 2397 2104 c 2,18,-1
 2418 2104 l 2,19,20
 2475 2104 2475 2104 2519 2013 c 1,21,-1
 2522 1985 l 1,22,-1
 2522 1974 l 2,23,24
 2522 1909 2522 1909 2327 1747 c 1,25,26
 2234 1681 2234 1681 2180 1681 c 2,27,-1
 2173 1681 l 2,28,29
 2144 1681 2144 1681 2096 1716 c 1,30,-1
 2092 1716 l 1,31,32
 1995 1622 1995 1622 1987 1604 c 1,33,-1
 1991 1604 l 2,34,35
 2106 1604 2106 1604 2432 1731.5 c 128,-1,36
 2758 1859 2758 1859 3037 2115 c 1,37,-1
 3079 2129 l 1,0,1
696 1033 m 1,38,-1
 710 1033 l 1,39,40
 780 1020 780 1020 780 964 c 2,41,-1
 780 953 l 2,42,43
 780 888 780 888 661 862 c 1,44,45
 186 668 186 668 186 422 c 0,46,47
 186 222 186 222 605 138 c 0,48,49
 678 124 678 124 759 124 c 0,50,51
 1052 124 1052 124 1434 338 c 0,52,53
 1540 401 1540 401 1686 551 c 1,54,55
 1801 685 1801 685 1801 862 c 1,56,-1
 1794 964 l 1,57,58
 1816 1026 1816 1026 1857 1026 c 2,59,-1
 1878 1026 l 2,60,61
 1940 1026 1940 1026 1948 946 c 2,62,-1
 1951 890 l 1,63,-1
 1951 838 l 2,64,65
 1951 441 1951 441 1431 163 c 1,66,67
 1091 9 1091 9 798 9 c 2,68,-1
 763 9 l 2,69,70
 374 9 374 9 137 201 c 1,71,72
 32 312 32 312 32 436 c 0,73,74
 32 763 32 763 584 998 c 1,75,-1
 696 1033 l 1,38,-1
EndSplineSet
Substitution2: "'medi' Medial Forms in Arabic lookup 3 subtable" afii62966
Substitution2: "'fina' Terminal Forms in Arabic lookup 2 subtable" afii62967
Substitution2: "'init' Initial Forms in Arabic lookup 1 subtable" afii62965
EndChar

StartChar: afii62967
Encoding: 64403 64403 137
Width: 2087
GlyphClass: 2
Flags: W
AnchorPoint: "Anchor-3" 975 -495 basechar 0
AnchorPoint: "Anchor-2" 1185 1500 basechar 0
LayerCount: 2
Fore
SplineSet
845 1033 m 1,0,-1
 859 1033 l 1,1,2
 929 1020 929 1020 929 964 c 2,3,-1
 929 953 l 2,4,5
 929 888 929 888 810 862 c 1,6,7
 335 668 335 668 335 422 c 0,8,9
 335 222 335 222 754 138 c 0,10,11
 827 124 827 124 908 124 c 0,12,13
 1201 124 1201 124 1583 338 c 0,14,15
 1689 401 1689 401 1835 551 c 1,16,17
 1950 685 1950 685 1950 862 c 1,18,-1
 1943 964 l 1,19,20
 1965 1026 1965 1026 2006 1026 c 2,21,-1
 2027 1026 l 2,22,23
 2089 1026 2089 1026 2097 946 c 2,24,-1
 2100 890 l 1,25,-1
 2100 838 l 2,26,27
 2100 441 2100 441 1580 163 c 1,28,29
 1240 9 1240 9 947 9 c 2,30,-1
 912 9 l 2,31,32
 523 9 523 9 286 201 c 1,33,34
 181 312 181 312 181 436 c 0,35,36
 181 763 181 763 733 998 c 1,37,-1
 845 1033 l 1,0,-1
2089 162 m 1,38,39
 2138 157 2138 157 2157 122.5 c 128,-1,40
 2176 88 2176 88 2158 52.5 c 128,-1,41
 2140 17 2140 17 2114.5 8.5 c 128,-1,42
 2089 0 2089 0 2055.5 1.5 c 128,-1,43
 2022 3 2022 3 1981.5 24 c 128,-1,44
 1941 45 1941 45 1901 123 c 128,-1,45
 1861 201 1861 201 1886 360 c 128,-1,46
 1911 519 1911 519 2011.5 720.5 c 128,-1,47
 2112 922 2112 922 2068.5 676 c 128,-1,48
 2025 430 2025 430 2019.5 330.5 c 128,-1,49
 2014 231 2014 231 2038.5 195 c 128,-1,50
 2063 159 2063 159 2089 162 c 1,38,39
3088 2020 m 1,51,52
 3144 2020 3144 2020 3165 1957 c 1,53,-1
 3165 1936 l 2,54,55
 3165 1897 3165 1897 3064 1803 c 1,56,57
 2478 1409 2478 1409 2059 1355 c 1,58,59
 2044 1348 2044 1348 1899 1327 c 1,60,61
 1847 1327 1847 1327 1832 1397 c 1,62,-1
 1832 1414 l 2,63,64
 1832 1451 1832 1451 1888 1484 c 1,65,66
 1925 1590 1925 1590 2119 1785 c 0,67,68
 2328 1995 2328 1995 2406 1995 c 2,69,-1
 2427 1995 l 2,70,71
 2484 1995 2484 1995 2528 1904 c 1,72,-1
 2531 1876 l 1,73,-1
 2531 1865 l 2,74,75
 2531 1800 2531 1800 2336 1638 c 1,76,77
 2243 1572 2243 1572 2189 1572 c 2,78,-1
 2182 1572 l 2,79,80
 2153 1572 2153 1572 2105 1607 c 1,81,-1
 2101 1607 l 1,82,83
 2004 1513 2004 1513 1996 1495 c 1,84,-1
 2000 1495 l 2,85,86
 2115 1495 2115 1495 2441 1622.5 c 128,-1,87
 2767 1750 2767 1750 3046 2006 c 1,88,-1
 3088 2020 l 1,51,52
EndSplineSet
EndChar

StartChar: afii62965
Encoding: 64404 64404 138
Width: 763
GlyphClass: 2
Flags: W
AnchorPoint: "Anchor-3" 210 -510 basechar 0
AnchorPoint: "Anchor-2" 480 1845 basechar 0
LayerCount: 2
Fore
SplineSet
1527 1929 m 1,0,1
 1583 1929 1583 1929 1604 1866 c 1,2,-1
 1604 1845 l 2,3,4
 1604 1806 1604 1806 1503 1712 c 1,5,6
 917 1318 917 1318 498 1264 c 1,7,8
 483 1257 483 1257 338 1236 c 1,9,10
 286 1236 286 1236 271 1306 c 1,11,-1
 271 1323 l 2,12,13
 271 1360 271 1360 327 1393 c 1,14,15
 364 1499 364 1499 558 1694 c 0,16,17
 767 1904 767 1904 845 1904 c 2,18,-1
 866 1904 l 2,19,20
 923 1904 923 1904 967 1813 c 1,21,-1
 970 1785 l 1,22,-1
 970 1774 l 2,23,24
 970 1709 970 1709 775 1547 c 1,25,26
 682 1481 682 1481 628 1481 c 2,27,-1
 621 1481 l 2,28,29
 592 1481 592 1481 544 1516 c 1,30,-1
 540 1516 l 1,31,32
 443 1422 443 1422 435 1404 c 1,33,-1
 439 1404 l 2,34,35
 554 1404 554 1404 880 1531.5 c 128,-1,36
 1206 1659 1206 1659 1485 1915 c 1,37,-1
 1527 1929 l 1,0,1
3 0 m 1,38,39
 -82 8 -82 8 -82 70 c 2,40,-1
 -82 93 l 2,41,42
 -82 162 -82 162 3 162 c 0,43,44
 125 162 125 162 220.5 292.5 c 128,-1,45
 316 423 316 423 324.5 539 c 128,-1,46
 333 655 333 655 339.5 790.5 c 128,-1,47
 346 926 346 926 380.5 959.5 c 128,-1,48
 415 993 415 993 452 963.5 c 128,-1,49
 489 934 489 934 485 802 c 128,-1,50
 481 670 481 670 466 486.5 c 128,-1,51
 451 303 451 303 325.5 157.5 c 128,-1,52
 200 12 200 12 3 0 c 1,38,39
EndSplineSet
EndChar

StartChar: afii62966
Encoding: 64405 64405 139
Width: 405
GlyphClass: 2
Flags: W
AnchorPoint: "Anchor-3" 210 -585 basechar 0
AnchorPoint: "Anchor-2" 435 1920 basechar 0
LayerCount: 2
Fore
SplineSet
1514 1946 m 1,0,1
 1570 1946 1570 1946 1591 1883 c 1,2,-1
 1591 1862 l 2,3,4
 1591 1823 1591 1823 1490 1729 c 1,5,6
 904 1335 904 1335 485 1281 c 1,7,8
 470 1274 470 1274 325 1253 c 1,9,10
 273 1253 273 1253 258 1323 c 1,11,-1
 258 1340 l 2,12,13
 258 1377 258 1377 314 1410 c 1,14,15
 351 1516 351 1516 545 1711 c 0,16,17
 754 1921 754 1921 832 1921 c 2,18,-1
 853 1921 l 2,19,20
 910 1921 910 1921 954 1830 c 1,21,-1
 957 1802 l 1,22,-1
 957 1791 l 2,23,24
 957 1726 957 1726 762 1564 c 1,25,26
 669 1498 669 1498 615 1498 c 2,27,-1
 608 1498 l 2,28,29
 579 1498 579 1498 531 1533 c 1,30,-1
 527 1533 l 1,31,32
 430 1439 430 1439 422 1421 c 1,33,-1
 426 1421 l 2,34,35
 541 1421 541 1421 867 1548.5 c 128,-1,36
 1193 1676 1193 1676 1472 1932 c 1,37,-1
 1514 1946 l 1,0,1
372 361 m 0,38,39
 368 332 368 332 378 258.5 c 128,-1,40
 388 185 388 185 427.5 170 c 128,-1,41
 467 155 467 155 481 129 c 128,-1,42
 495 103 495 103 490 67 c 128,-1,43
 485 31 485 31 455 11 c 128,-1,44
 425 -9 425 -9 376.5 14 c 128,-1,45
 328 37 328 37 281.5 109.5 c 128,-1,46
 235 182 235 182 252 293.5 c 128,-1,47
 269 405 269 405 322.5 398 c 128,-1,48
 376 391 376 391 372 361 c 0,38,39
-1 0 m 1,49,50
 -86 8 -86 8 -86 70 c 2,51,-1
 -86 93 l 2,52,53
 -86 162 -86 162 -1 162 c 0,54,55
 151 162 151 162 205.5 292.5 c 128,-1,56
 260 423 260 423 268.5 539 c 128,-1,57
 277 655 277 655 283.5 790.5 c 128,-1,58
 290 926 290 926 324.5 959.5 c 128,-1,59
 359 993 359 993 396 963.5 c 128,-1,60
 433 934 433 934 429 802 c 128,-1,61
 425 670 425 670 410 486.5 c 128,-1,62
 395 303 395 303 310.5 157.5 c 128,-1,63
 226 12 226 12 -1 0 c 1,49,50
EndSplineSet
EndChar

StartChar: afii57555
Encoding: 1740 1740 140
Width: 3204
GlyphClass: 2
Flags: W
AnchorPoint: "Anchor-3" 1275 -720 basechar 0
AnchorPoint: "Anchor-2" 1500 1500 basechar 0
LayerCount: 2
Fore
SplineSet
1591 1253 m 0,0,1
 1892 1253 1892 1253 1961 1155 c 0,2,3
 1977 1130 1977 1130 1977 1103 c 2,4,-1
 1977 1093 l 2,5,6
 1977 1025 1977 1025 1883 966 c 1,7,-1
 1860 963 l 1,8,-1
 1852 963 l 2,9,10
 1799 963 1799 963 1779 1027 c 1,11,-1
 1779 1046 l 2,12,13
 1779 1054 1779 1054 1794 1075 c 1,14,-1
 1794 1078 l 1,15,16
 1693 1096 1693 1096 1580 1096 c 0,17,18
 1063 1096 1063 1096 582 843 c 0,19,20
 461 781 461 781 336 676 c 1,21,22
 178 523 178 523 178 405 c 2,23,-1
 178 393 l 2,24,25
 178 241 178 241 395 106 c 0,26,27
 487 46 487 46 743 -20 c 1,28,29
 1074 -100 1074 -100 1450 -100 c 0,30,31
 1825 -100 1825 -100 2203 -26 c 1,32,33
 2403 26 2403 26 2528 88 c 0,34,35
 2734 197 2734 197 2734 295 c 0,36,37
 2734 385 2734 385 2483 555 c 0,38,39
 2405 608 2405 608 2350 669 c 0,40,41
 2305 722 2305 722 2305 774 c 2,42,-1
 2305 777 l 2,43,44
 2305 899 2305 899 2586 957 c 1,45,46
 2890 1041 2890 1041 3035 1041 c 2,47,-1
 3071 1041 l 2,48,49
 3150 1041 3150 1041 3167 982 c 1,50,-1
 3169 963 l 1,51,-1
 3169 961 l 2,52,53
 3169 901 3169 901 3105 884 c 1,54,-1
 3094 882 l 1,55,-1
 3043 886 l 1,56,57
 2860 886 2860 886 2553 786 c 1,58,59
 2499 758 2499 758 2499 745 c 1,60,61
 2505 732 2505 732 2585 679 c 0,62,63
 2891 494 2891 494 2891 314 c 2,64,-1
 2891 296 l 2,65,66
 2891 78 2891 78 2553 -60 c 0,67,68
 2459 -101 2459 -101 2241 -149 c 1,69,70
 1890 -215 1890 -215 1544 -215 c 2,71,-1
 1498 -215 l 2,72,73
 896 -215 896 -215 404 -20 c 1,74,75
 46 141 46 141 46 398 c 2,76,-1
 46 417 l 2,77,78
 46 611 46 611 258 813 c 1,79,80
 362 901 362 901 449 948 c 0,81,82
 983 1253 983 1253 1591 1253 c 0,0,1
EndSplineSet
Substitution2: "'medi' Medial Forms in Arabic lookup 3 subtable" afii62832
Substitution2: "'fina' Terminal Forms in Arabic lookup 2 subtable" afii52364
Substitution2: "'init' Initial Forms in Arabic lookup 1 subtable" uniFBFE
EndChar

StartChar: afii52364
Encoding: 64509 64509 141
Width: 1818
GlyphClass: 2
Flags: W
AnchorPoint: "Anchor-3" 510 -1080 basechar 0
AnchorPoint: "Anchor-2" 1170 900 basechar 0
LayerCount: 2
Fore
SplineSet
1133 660 m 2,0,-1
 1164 660 l 2,1,2
 1237 660 1237 660 1249 606 c 2,3,-1
 1251 594 l 1,4,5
 1251 511 1251 511 1083 357 c 1,6,-1
 1062 352 l 1,7,-1
 1052 352 l 2,8,9
 984 352 984 352 971 435 c 1,10,11
 976 455 976 455 1009 497 c 1,12,13
 762 455 762 455 597 345 c 1,14,15
 500 292 500 292 314 122 c 1,16,17
 162 -44 162 -44 162 -172 c 0,18,19
 162 -278 162 -278 312 -373 c 1,20,21
 446 -442 446 -442 613 -442 c 2,22,-1
 661 -442 l 2,23,24
 892 -442 892 -442 1190 -350 c 1,25,26
 1325 -300 1325 -300 1422 -238 c 0,27,28
 1591 -122 1591 -122 1591 -79 c 0,29,30
 1591 -51 1591 -51 1439 25 c 1,31,32
 1391 57 1391 57 1391 98 c 2,33,-1
 1391 101 l 2,34,35
 1391 173 1391 173 1474 181 c 0,36,37
 1497 182 1497 182 1527.5 177.5 c 128,-1,38
 1558 173 1558 173 1599 167 c 128,-1,39
 1640 161 1640 161 1693 157 c 128,-1,40
 1746 153 1746 153 1814 156 c 0,41,42
 1869 156 1869 156 1890 98 c 1,43,-1
 1890 84 l 1,44,45
 1898 12 1898 12 1817 0 c 1,46,-1
 1786 0 l 1,47,-1
 1726 3 l 1,48,49
 1752 -45 1752 -45 1752 -84 c 0,50,51
 1752 -180 1752 -180 1548 -309 c 1,52,53
 1417 -405 1417 -405 1202 -483 c 1,54,55
 900 -582 900 -582 601 -582 c 0,56,57
 138 -582 138 -582 34 -286 c 1,58,59
 20 -234 20 -234 20 -188 c 2,60,-1
 20 -167 l 2,61,62
 20 21 20 21 317 288 c 1,63,64
 532 461 532 461 680 518 c 1,65,66
 982 660 982 660 1133 660 c 2,0,-1
EndSplineSet
EndChar

StartChar: afii62945
Encoding: 65557 -1 147
Width: 1821
GlyphClass: 3
Flags: W
LayerCount: 2
Fore
SplineSet
1095 0 m 0,0,1
 946 -6 946 -6 906 64 c 1,2,3
 883 92 883 92 869 280 c 1,4,5
 854 338 854 338 811 338 c 1,6,-1
 796 340 l 1,7,-1
 783 340 l 2,8,9
 626 340 626 340 404 97 c 1,10,11
 327 -1 327 -1 314 -48 c 1,12,-1
 317 -48 l 1,13,-1
 352 -43 l 1,14,-1
 359 -43 l 1,15,16
 440 -55 440 -55 440 -121 c 1,17,-1
 442 -124 l 1,18,-1
 442 -126 l 2,19,20
 442 -221 442 -221 292 -221 c 0,21,22
 173 -221 173 -221 144 -119 c 1,23,-1
 141 -93 l 1,24,-1
 141 -71 l 2,25,26
 141 69 141 69 409 313 c 1,27,28
 622 488 622 488 791 488 c 0,29,30
 969 488 969 488 1024 358 c 0,31,32
 1039 319 1039 319 1047 195 c 0,33,34
 1053 155 1053 155 1095 162 c 1,35,36
 1195 162 1195 162 1223.5 292.5 c 128,-1,37
 1252 423 1252 423 1260.5 539 c 128,-1,38
 1269 655 1269 655 1263 742 c 128,-1,39
 1257 829 1257 829 1291.5 862.5 c 128,-1,40
 1326 896 1326 896 1363 866.5 c 128,-1,41
 1400 837 1400 837 1408.5 753.5 c 128,-1,42
 1417 670 1417 670 1402 486 c 0,43,44
 1393 374 1393 374 1367 276 c 0,45,46
 1368 267 1368 267 1370 258 c 0,47,48
 1380 185 1380 185 1419 170 c 0,49,50
 1429 166 1429 166 1438 161 c 0,51,52
 1444 162 1444 162 1452 162 c 0,53,54
 1552 162 1552 162 1577.5 296.5 c 128,-1,55
 1603 431 1603 431 1580.5 579 c 128,-1,56
 1558 727 1558 727 1523.5 829 c 128,-1,57
 1489 931 1489 931 1515 959.5 c 128,-1,58
 1541 988 1541 988 1587 976.5 c 128,-1,59
 1633 965 1633 965 1675.5 843 c 128,-1,60
 1718 721 1718 721 1731 512 c 128,-1,61
 1744 303 1744 303 1685.5 157.5 c 128,-1,62
 1627 12 1627 12 1452 0 c 0,63,64
 1439 1 1439 1 1428 3 c 1,65,66
 1403 -2 1403 -2 1368 14 c 0,67,68
 1327 33 1327 33 1288 88 c 1,69,70
 1222 8 1222 8 1095 0 c 0,0,1
EndSplineSet
EndChar

StartChar: afii64184
Encoding: 65010 65010 148
Width: 1832
GlyphClass: 3
Flags: W
AnchorPoint: "Anchor-1" 1575 -390 baselig 0
AnchorPoint: "Anchor-0" 1650 1170 baselig 0
AnchorPoint: "Anchor-1" 1140 -405 baselig 1
AnchorPoint: "Anchor-0" 1335 1065 baselig 1
AnchorPoint: "Anchor-1" 450 -540 baselig 2
AnchorPoint: "Anchor-0" 555 735 baselig 2
LayerCount: 2
Fore
SplineSet
1496 1169 m 0,0,1
 1496 1114 1496 1114 1467 1077 c 0,2,3
 1436 1037 1436 1037 1382 1037 c 0,4,5
 1338 1037 1338 1037 1294 1069 c 1,6,7
 1234 1005 1234 1005 1184 1005 c 0,8,9
 1142 1005 1142 1005 1116 1035.5 c 128,-1,10
 1090 1066 1090 1066 1090 1109 c 0,11,12
 1090 1174 1090 1174 1142 1211 c 0,13,14
 1152 1218 1152 1218 1162 1218 c 0,15,16
 1175 1218 1175 1218 1175 1207 c 0,17,18
 1175 1199 1175 1199 1166 1187 c 0,19,20
 1130 1137 1130 1137 1142 1115 c 256,21,22
 1154 1093 1154 1093 1193 1093 c 0,23,24
 1245 1093 1245 1093 1266 1127 c 0,25,26
 1277 1144 1277 1144 1279 1194 c 0,27,28
 1281 1231 1281 1231 1298 1231 c 0,29,30
 1304 1231 1304 1231 1323.5 1173 c 128,-1,31
 1343 1115 1343 1115 1376 1115 c 0,32,33
 1444 1115 1444 1115 1444 1154 c 0,34,35
 1444 1166 1444 1166 1440 1179 c 0,36,37
 1424 1232 1424 1232 1450 1237 c 0,38,39
 1470 1241 1470 1241 1484 1213 c 0,40,41
 1496 1190 1496 1190 1496 1169 c 0,0,1
1285 1524 m 1,42,43
 1349 1289 1349 1289 1277 1302 c 1,44,45
 1272 1309 1272 1309 1265 1351 c 0,46,47
 1246 1447 1246 1447 1234 1483 c 0,48,49
 1229 1502 1229 1502 1233 1516 c 128,-1,50
 1237 1530 1237 1530 1245 1536.5 c 128,-1,51
 1253 1543 1253 1543 1264 1540.5 c 128,-1,52
 1275 1538 1275 1538 1285 1524 c 1,42,43
1095 0 m 0,53,54
 946 -6 946 -6 906 64 c 1,55,56
 883 92 883 92 869 280 c 1,57,58
 854 338 854 338 811 338 c 1,59,-1
 796 340 l 1,60,-1
 783 340 l 2,61,62
 626 340 626 340 404 97 c 1,63,64
 327 -1 327 -1 314 -48 c 1,65,-1
 317 -48 l 1,66,-1
 352 -43 l 1,67,-1
 359 -43 l 1,68,69
 440 -55 440 -55 440 -121 c 1,70,-1
 442 -124 l 1,71,-1
 442 -126 l 2,72,73
 442 -221 442 -221 292 -221 c 0,74,75
 173 -221 173 -221 144 -119 c 1,76,-1
 141 -93 l 1,77,-1
 141 -71 l 2,78,79
 141 69 141 69 409 313 c 1,80,81
 622 488 622 488 791 488 c 0,82,83
 969 488 969 488 1024 358 c 0,84,85
 1039 319 1039 319 1047 195 c 0,86,87
 1053 155 1053 155 1095 162 c 1,88,89
 1195 162 1195 162 1223.5 292.5 c 128,-1,90
 1252 423 1252 423 1260.5 539 c 128,-1,91
 1269 655 1269 655 1263 742 c 128,-1,92
 1257 829 1257 829 1291.5 862.5 c 128,-1,93
 1326 896 1326 896 1363 866.5 c 128,-1,94
 1400 837 1400 837 1408.5 753.5 c 128,-1,95
 1417 670 1417 670 1402 486 c 0,96,97
 1393 374 1393 374 1367 276 c 0,98,99
 1368 267 1368 267 1370 258 c 0,100,101
 1380 185 1380 185 1419 170 c 0,102,103
 1429 166 1429 166 1438 161 c 0,104,105
 1444 162 1444 162 1452 162 c 0,106,107
 1552 162 1552 162 1577.5 296.5 c 128,-1,108
 1603 431 1603 431 1580.5 579 c 128,-1,109
 1558 727 1558 727 1523.5 829 c 128,-1,110
 1489 931 1489 931 1515 959.5 c 128,-1,111
 1541 988 1541 988 1587 976.5 c 128,-1,112
 1633 965 1633 965 1675.5 843 c 128,-1,113
 1718 721 1718 721 1731 512 c 128,-1,114
 1744 303 1744 303 1685.5 157.5 c 128,-1,115
 1627 12 1627 12 1452 0 c 0,116,117
 1439 1 1439 1 1428 3 c 1,118,119
 1403 -2 1403 -2 1368 14 c 0,120,121
 1327 33 1327 33 1288 88 c 1,122,123
 1222 8 1222 8 1095 0 c 0,53,54
EndSplineSet
Ligature2: "'rlig' Required Ligatures in Arabic lookup 5 subtable" afii62817 afii62818 uniFC63 afii62828
Ligature2: "'rlig' Required Ligatures in Arabic lookup 5 subtable" afii62817 afii62818 afii57457 uni0670 afii62828
EndChar

StartChar: afii57415.001
Encoding: 1575 1575 162
Width: 490
GlyphClass: 2
Flags: W
AnchorPoint: "Anchor-3" 165 -465 basechar 0
AnchorPoint: "Anchor-2" 315 1245 basechar 0
LayerCount: 2
Fore
SplineSet
306 1115 m 2,0,1
 365 1115 365 1115 384 1051 c 1,2,-1
 385 1037 l 1,3,4
 385 960 385 960 326 348 c 1,5,-1
 300 8 l 1,6,7
 273 -52 273 -52 224 -52 c 2,8,-1
 223 -52 l 1,9,10
 143 -43 143 -43 143 22 c 1,11,12
 208 515 208 515 208 644 c 1,13,14
 226 900 226 900 226 1037 c 0,15,16
 226 1096 226 1096 297 1115 c 1,17,-1
 306 1115 l 2,0,1
EndSplineSet
Substitution2: "'fina' Terminal Forms in Arabic lookup 2 subtable" afii62760
EndChar

StartChar: afii62760.001
Encoding: 65558 -1 163
Width: 387
GlyphClass: 2
Flags: W
LayerCount: 2
Fore
SplineSet
499 958 m 1,0,-1
 526 958 l 2,1,2
 577 958 577 958 595 896 c 1,3,-1
 595 881 l 2,4,5
 595 840 595 840 480 722 c 1,6,7
 256 457 256 457 256 321 c 2,8,-1
 256 298 l 1,9,10
 278 156 278 156 378 156 c 0,11,12
 449 156 449 156 456 93 c 1,13,-1
 456 70 l 2,14,15
 456 8 456 8 371 0 c 1,16,17
 178 0 178 0 109 213 c 1,18,-1
 101 298 l 1,19,-1
 101 309 l 2,20,21
 101 558 101 558 468 946 c 1,22,-1
 499 958 l 1,0,-1
EndSplineSet
EndChar

StartChar: afii57421
Encoding: 1581 1581 182
Width: 1400
GlyphClass: 2
Flags: W
AnchorPoint: "Anchor-3" 480 -1470 basechar 0
AnchorPoint: "Anchor-2" 735 1140 basechar 0
LayerCount: 2
Fore
SplineSet
484 867 m 0,0,1
 586 867 586 867 821 687 c 1,2,3
 853 675 853 675 881 675 c 0,4,5
 912 675 912 675 991 711 c 1,6,7
 1025 718 1025 718 1056 718 c 0,8,9
 1203 718 1203 718 1314 615 c 0,10,11
 1328 597 1328 597 1328 586 c 2,12,-1
 1328 581 l 2,13,14
 1328 513 1328 513 1244 482 c 1,15,-1
 1213 478 l 1,16,17
 1121 478 1121 478 917 523 c 1,18,-1
 905 523 l 2,19,20
 818 523 818 523 462 278 c 0,21,22
 345 201 345 201 164 25 c 1,23,24
 -74 -230 -74 -230 -74 -419 c 2,25,-1
 -74 -448 l 2,26,27
 -74 -714 -74 -714 142 -833 c 1,28,29
 288 -929 288 -929 544 -926 c 2,30,-1
 549 -926 l 1,31,32
 786 -917 786 -917 1085 -843 c 1,33,34
 1107 -831 1107 -831 1107 -823 c 2,35,-1
 1098 -807 l 1,36,-1
 1098 -787 l 1,37,38
 1106 -754 1106 -754 1127 -754 c 1,39,40
 1224 -801 1224 -801 1261 -869 c 1,41,-1
 1263 -881 l 1,42,43
 1261 -948 1261 -948 1022 -989 c 0,44,45
 736 -1035 736 -1035 575 -1035 c 2,46,-1
 556 -1035 l 2,47,48
 276 -1035 276 -1035 51 -926 c 0,49,50
 18 -914 18 -914 -93 -806 c 1,51,52
 -170 -710 -170 -710 -187 -619 c 1,53,54
 -204 -551 -204 -551 -204 -467 c 2,55,-1
 -204 -431 l 2,56,57
 -204 -53 -204 -53 330 336 c 1,58,59
 521 484 521 484 664 567 c 1,60,61
 688 576 688 576 688 595 c 1,62,63
 664 652 664 652 532 711 c 1,64,-1
 498 716 l 1,65,-1
 491 716 l 1,66,67
 406 701 406 701 272 519 c 1,68,69
 177 333 177 333 152 314 c 1,70,-1
 142 314 l 2,71,72
 132 314 132 314 130 365 c 2,73,-1
 130 396 l 2,74,75
 130 544 130 544 171 588 c 1,76,77
 204 662 204 662 368 814 c 1,78,79
 432 867 432 867 484 867 c 0,0,1
EndSplineSet
Substitution2: "'medi' Medial Forms in Arabic lookup 3 subtable" afii62775
Substitution2: "'fina' Terminal Forms in Arabic lookup 2 subtable" afii62776
Substitution2: "'init' Initial Forms in Arabic lookup 1 subtable" afii62774
EndChar

StartChar: afii62776
Encoding: 65186 65186 183
Width: 1288
GlyphClass: 2
Flags: W
AnchorPoint: "Anchor-3" 330 -1575 basechar 0
AnchorPoint: "Anchor-2" 660 1005 basechar 0
LayerCount: 2
Fore
SplineSet
1288 155 m 0,0,1
 1337 150 1337 150 1355.5 118.5 c 128,-1,2
 1374 87 1374 87 1363.5 53.5 c 128,-1,3
 1353 20 1353 20 1320 6 c 128,-1,4
 1287 -8 1287 -8 1192.5 13 c 128,-1,5
 1098 34 1098 34 1017.5 103.5 c 128,-1,6
 937 173 937 173 934 298 c 0,7,8
 934 330 934 330 936 354 c 1,9,10
 927 357 927 357 917 359 c 2,11,-1
 905 359 l 2,12,13
 818 359 818 359 462 114 c 0,14,15
 345 37 345 37 164 -139 c 1,16,17
 -74 -394 -74 -394 -74 -583 c 2,18,-1
 -74 -612 l 2,19,20
 -74 -878 -74 -878 142 -997 c 1,21,22
 288 -1093 288 -1093 544 -1090 c 2,23,-1
 549 -1090 l 1,24,25
 786 -1081 786 -1081 1085 -1007 c 1,26,27
 1107 -995 1107 -995 1107 -987 c 2,28,-1
 1098 -971 l 1,29,-1
 1098 -951 l 1,30,31
 1106 -918 1106 -918 1127 -918 c 1,32,33
 1224 -965 1224 -965 1261 -1033 c 1,34,-1
 1263 -1045 l 1,35,36
 1261 -1112 1261 -1112 1022 -1153 c 0,37,38
 736 -1199 736 -1199 575 -1199 c 2,39,-1
 556 -1199 l 2,40,41
 276 -1199 276 -1199 51 -1090 c 0,42,43
 18 -1078 18 -1078 -93 -970 c 1,44,45
 -170 -874 -170 -874 -187 -783 c 1,46,47
 -204 -715 -204 -715 -204 -631 c 2,48,-1
 -204 -595 l 2,49,50
 -204 -217 -204 -217 330 172 c 1,51,52
 521 320 521 320 664 403 c 1,53,54
 688 412 688 412 688 431 c 1,55,56
 664 488 664 488 532 547 c 1,57,-1
 498 552 l 1,58,-1
 491 552 l 1,59,60
 406 537 406 537 272 355 c 1,61,62
 177 169 177 169 152 150 c 1,63,-1
 142 150 l 2,64,65
 132 150 132 150 130 201 c 2,66,-1
 130 232 l 2,67,68
 130 380 130 380 171 424 c 1,69,70
 204 498 204 498 368 650 c 1,71,72
 432 703 432 703 484 703 c 0,73,74
 586 703 586 703 821 523 c 1,75,76
 853 511 853 511 881 511 c 0,77,78
 912 511 912 511 991 547 c 1,79,80
 1025 554 1025 554 1056 554 c 0,81,82
 1203 554 1203 554 1314 451 c 0,83,84
 1328 433 1328 433 1328 422 c 2,85,-1
 1328 417 l 2,86,87
 1328 349 1328 349 1244 318 c 1,88,-1
 1213 314 l 1,89,90
 1165 314 1165 314 1088 326 c 1,91,92
 1090 316 1090 316 1092 304 c 0,93,94
 1113 175 1113 175 1288 155 c 0,0,1
EndSplineSet
EndChar

StartChar: afii62774
Encoding: 65187 65187 184
Width: 1000
GlyphClass: 2
Flags: W
AnchorPoint: "Anchor-3" 225 -555 basechar 0
AnchorPoint: "Anchor-2" 315 960 basechar 0
LayerCount: 2
Fore
SplineSet
375 727 m 2,0,-1
 377 727 l 2,1,2
 466 727 466 727 581 568 c 1,3,4
 655 473 655 473 671 457 c 1,5,6
 758 517 758 517 793 517 c 2,7,-1
 811 517 l 2,8,9
 851 517 851 517 877 464 c 0,10,11
 883 451 883 451 883 435 c 0,12,13
 883 375 883 375 809 304 c 1,14,15
 760 266 760 266 714 266 c 1,16,-1
 678 275 l 1,17,18
 500 168 500 168 375 110 c 1,19,20
 121 5 121 5 76 5 c 1,21,22
 52 0 52 0 11 0 c 2,23,-1
 4 0 l 2,24,25
 -47 0 -47 0 -69 51 c 1,26,-1
 -73 73 l 1,27,-1
 -73 84 l 2,28,29
 -73 134 -73 134 -12 155 c 1,30,31
 79 155 79 155 187 205 c 1,32,33
 384 280 384 280 558 388 c 1,34,35
 441 564 441 564 372 564 c 0,36,37
 326 563 326 563 194 374 c 0,38,39
 160 331 160 331 139 331 c 0,40,41
 114 331 114 331 83 387 c 1,42,-1
 79 412 l 1,43,44
 79 488 79 488 198 604 c 1,45,46
 311 727 311 727 375 727 c 2,0,-1
EndSplineSet
EndChar

StartChar: afii62775
Encoding: 65188 65188 185
Width: 848
GlyphClass: 2
Flags: W
AnchorPoint: "Anchor-3" 240 -570 basechar 0
AnchorPoint: "Anchor-2" 390 975 basechar 0
LayerCount: 2
Fore
SplineSet
373 727 m 2,0,-1
 375 727 l 2,1,2
 464 727 464 727 579 568 c 1,3,4
 653 473 653 473 669 457 c 1,5,6
 756 517 756 517 791 517 c 2,7,-1
 809 517 l 2,8,9
 849 517 849 517 875 464 c 0,10,11
 881 451 881 451 881 435 c 0,12,13
 881 375 881 375 807 304 c 1,14,15
 758 266 758 266 712 266 c 1,16,-1
 676 275 l 1,17,18
 669 270 669 270 662 264 c 1,19,20
 678 175 678 175 851 155 c 0,21,22
 900 150 900 150 919 118.5 c 128,-1,23
 938 87 938 87 927.5 54 c 128,-1,24
 917 21 917 21 884 7 c 128,-1,25
 851 -7 851 -7 770 3 c 128,-1,26
 689 13 689 13 609 113 c 0,27,28
 576 155 576 155 560 191 c 1,29,30
 463 125 463 125 384 86 c 0,31,32
 260 25 260 25 155 12.5 c 128,-1,33
 50 0 50 0 9 0 c 2,34,-1
 2 0 l 2,35,36
 -49 0 -49 0 -71 51 c 1,37,-1
 -75 73 l 1,38,-1
 -75 84 l 2,39,40
 -75 134 -75 134 -14 155 c 1,41,42
 158 158 158 158 296.5 214.5 c 128,-1,43
 435 271 435 271 556 388 c 1,44,45
 439 564 439 564 370 564 c 0,46,47
 324 563 324 563 192 374 c 0,48,49
 158 331 158 331 137 331 c 0,50,51
 112 331 112 331 81 387 c 1,52,-1
 77 412 l 1,53,54
 77 488 77 488 196 604 c 1,55,56
 309 727 309 727 373 727 c 2,0,-1
EndSplineSet
EndChar

StartChar: afii57423
Encoding: 1583 1583 190
Width: 701
GlyphClass: 2
Flags: W
AnchorPoint: "Anchor-3" 75 -630 basechar 0
AnchorPoint: "Anchor-2" 285 1035 basechar 0
LayerCount: 2
Fore
SplineSet
366 757 m 2,0,-1
 371 757 l 2,1,2
 430 757 430 757 471 654 c 1,3,4
 574 473 574 473 574 307 c 0,5,6
 574 138 574 138 448 35 c 1,7,8
 334 -66 334 -66 167 -151 c 1,9,10
 -86 -270 -86 -270 -136 -270 c 1,11,12
 -212 -256 -212 -256 -212 -201 c 2,13,-1
 -212 -181 l 2,14,15
 -212 -121 -212 -121 -113 -108 c 1,16,17
 40 -59 40 -59 154 1 c 0,18,19
 274 62 274 62 398 176 c 1,20,21
 444 229 444 229 444 293 c 2,22,-1
 444 295 l 2,23,24
 444 409 444 409 295 654 c 1,25,-1
 291 681 l 1,26,27
 303 757 303 757 366 757 c 2,0,-1
EndSplineSet
Substitution2: "'fina' Terminal Forms in Arabic lookup 2 subtable" afii62780
PairPos2: "'kern' Horizontal Kerning in Arabic lookup 0 subtable" uniFBFE dx=0 dy=0 dh=0 dv=0 dx=0 dy=0 dh=330 dv=0
PairPos2: "'kern' Horizontal Kerning in Arabic lookup 0 subtable" afii62831 dx=0 dy=0 dh=0 dv=0 dx=0 dy=0 dh=330 dv=0
PairPos2: "'kern' Horizontal Kerning in Arabic lookup 0 subtable" afii57448 dx=0 dy=0 dh=0 dv=0 dx=0 dy=0 dh=100 dv=0
PairPos2: "'kern' Horizontal Kerning in Arabic lookup 0 subtable" afii62817 dx=0 dy=0 dh=0 dv=0 dx=0 dy=0 dh=100 dv=0
PairPos2: "'kern' Horizontal Kerning in Arabic lookup 0 subtable" afii57443 dx=0 dy=0 dh=0 dv=0 dx=0 dy=0 dh=100 dv=0
PairPos2: "'kern' Horizontal Kerning in Arabic lookup 0 subtable" afii57441 dx=0 dy=0 dh=0 dv=0 dx=0 dy=0 dh=100 dv=0
PairPos2: "'kern' Horizontal Kerning in Arabic lookup 0 subtable" afii57426 dx=0 dy=0 dh=0 dv=0 dx=0 dy=0 dh=100 dv=0
PairPos2: "'kern' Horizontal Kerning in Arabic lookup 0 subtable" afii57425 dx=0 dy=0 dh=0 dv=0 dx=0 dy=0 dh=100 dv=0
PairPos2: "'kern' Horizontal Kerning in Arabic lookup 0 subtable" afii62777 dx=0 dy=0 dh=0 dv=0 dx=0 dy=0 dh=100 dv=0
PairPos2: "'kern' Horizontal Kerning in Arabic lookup 0 subtable" afii57422 dx=0 dy=0 dh=0 dv=0 dx=0 dy=0 dh=100 dv=0
PairPos2: "'kern' Horizontal Kerning in Arabic lookup 0 subtable" afii62774 dx=0 dy=0 dh=0 dv=0 dx=0 dy=0 dh=100 dv=0
PairPos2: "'kern' Horizontal Kerning in Arabic lookup 0 subtable" afii57421 dx=0 dy=0 dh=0 dv=0 dx=0 dy=0 dh=100 dv=0
PairPos2: "'kern' Horizontal Kerning in Arabic lookup 0 subtable" afii62771 dx=0 dy=0 dh=0 dv=0 dx=0 dy=0 dh=100 dv=0
PairPos2: "'kern' Horizontal Kerning in Arabic lookup 0 subtable" afii57420 dx=0 dy=0 dh=0 dv=0 dx=0 dy=0 dh=100 dv=0
PairPos2: "'kern' Horizontal Kerning in Arabic lookup 0 subtable" afii57419 dx=0 dy=0 dh=0 dv=0 dx=0 dy=0 dh=100 dv=0
PairPos2: "'kern' Horizontal Kerning in Arabic lookup 0 subtable" afii57418 dx=0 dy=0 dh=0 dv=0 dx=0 dy=0 dh=100 dv=0
PairPos2: "'kern' Horizontal Kerning in Arabic lookup 0 subtable" afii62761 dx=0 dy=0 dh=0 dv=0 dx=0 dy=0 dh=330 dv=0
PairPos2: "'kern' Horizontal Kerning in Arabic lookup 0 subtable" afii57416 dx=0 dy=0 dh=0 dv=0 dx=0 dy=0 dh=100 dv=0
PairPos2: "'kern' Horizontal Kerning in Arabic lookup 0 subtable" afii57413 dx=0 dy=0 dh=0 dv=0 dx=0 dy=0 dh=100 dv=0
PairPos2: "'kern' Horizontal Kerning in Arabic lookup 0 subtable" afii52399 dx=0 dy=0 dh=0 dv=0 dx=0 dy=0 dh=100 dv=0
PairPos2: "'kern' Horizontal Kerning in Arabic lookup 0 subtable" afii57509 dx=0 dy=0 dh=0 dv=0 dx=0 dy=0 dh=100 dv=0
PairPos2: "'kern' Horizontal Kerning in Arabic lookup 0 subtable" afii57567 dx=0 dy=0 dh=0 dv=0 dx=0 dy=0 dh=100 dv=0
PairPos2: "'kern' Horizontal Kerning in Arabic lookup 0 subtable" afii62959 dx=0 dy=0 dh=0 dv=0 dx=0 dy=0 dh=100 dv=0
PairPos2: "'kern' Horizontal Kerning in Arabic lookup 0 subtable" afii57507 dx=0 dy=0 dh=0 dv=0 dx=0 dy=0 dh=100 dv=0
PairPos2: "'kern' Horizontal Kerning in Arabic lookup 0 subtable" afii57505 dx=0 dy=0 dh=0 dv=0 dx=0 dy=0 dh=100 dv=0
PairPos2: "'kern' Horizontal Kerning in Arabic lookup 0 subtable" afii62956 dx=0 dy=0 dh=0 dv=0 dx=0 dy=0 dh=330 dv=0
PairPos2: "'kern' Horizontal Kerning in Arabic lookup 0 subtable" afii57506 dx=0 dy=0 dh=0 dv=0 dx=0 dy=0 dh=100 dv=0
EndChar

StartChar: afii62780
Encoding: 65194 65194 191
Width: 719
GlyphClass: 2
Flags: W
AnchorPoint: "Anchor-3" 60 -645 basechar 0
AnchorPoint: "Anchor-2" 720 1110 basechar 0
LayerCount: 2
Fore
SplineSet
710 156 m 1,0,1
 766 156 766 156 785 98 c 1,2,-1
 787 84 l 1,3,-1
 787 73 l 2,4,5
 787 25 787 25 729 3 c 1,6,-1
 710 1 l 1,7,8
 601 1 601 1 559 60.5 c 128,-1,9
 517 120 517 120 523 239 c 1,10,-1
 521 239 l 1,11,12
 398 54 398 54 280 -27 c 1,13,14
 179 -103 179 -103 96 -145 c 0,15,16
 30 -179 30 -179 12 -179 c 2,17,-1
 -5 -179 l 2,18,19
 -65 -179 -65 -179 -92 -122 c 1,20,-1
 -94 -104 l 1,21,-1
 -94 -96 l 2,22,23
 -94 -40 -94 -40 -9 -11 c 1,24,25
 127 54 127 54 203.5 115.5 c 128,-1,26
 280 177 280 177 387.5 309.5 c 128,-1,27
 495 442 495 442 557.5 607 c 128,-1,28
 620 772 620 772 665 783 c 128,-1,29
 710 794 710 794 737 752.5 c 128,-1,30
 764 711 764 711 699.5 543 c 128,-1,31
 635 375 635 375 646.5 268.5 c 128,-1,32
 658 162 658 162 710 156 c 1,0,1
EndSplineSet
PairPos2: "'kern' Horizontal Kerning in Arabic lookup 0 subtable" uniFBFE dx=0 dy=0 dh=0 dv=0 dx=0 dy=0 dh=330 dv=0
PairPos2: "'kern' Horizontal Kerning in Arabic lookup 0 subtable" afii62831 dx=0 dy=0 dh=0 dv=0 dx=0 dy=0 dh=330 dv=0
PairPos2: "'kern' Horizontal Kerning in Arabic lookup 0 subtable" afii57448 dx=0 dy=0 dh=0 dv=0 dx=0 dy=0 dh=100 dv=0
PairPos2: "'kern' Horizontal Kerning in Arabic lookup 0 subtable" afii62817 dx=0 dy=0 dh=0 dv=0 dx=0 dy=0 dh=100 dv=0
PairPos2: "'kern' Horizontal Kerning in Arabic lookup 0 subtable" afii57443 dx=0 dy=0 dh=0 dv=0 dx=0 dy=0 dh=100 dv=0
PairPos2: "'kern' Horizontal Kerning in Arabic lookup 0 subtable" afii57441 dx=0 dy=0 dh=0 dv=0 dx=0 dy=0 dh=100 dv=0
PairPos2: "'kern' Horizontal Kerning in Arabic lookup 0 subtable" afii57426 dx=0 dy=0 dh=0 dv=0 dx=0 dy=0 dh=100 dv=0
PairPos2: "'kern' Horizontal Kerning in Arabic lookup 0 subtable" afii57425 dx=0 dy=0 dh=0 dv=0 dx=0 dy=0 dh=100 dv=0
PairPos2: "'kern' Horizontal Kerning in Arabic lookup 0 subtable" afii62777 dx=0 dy=0 dh=0 dv=0 dx=0 dy=0 dh=100 dv=0
PairPos2: "'kern' Horizontal Kerning in Arabic lookup 0 subtable" afii57422 dx=0 dy=0 dh=0 dv=0 dx=0 dy=0 dh=100 dv=0
PairPos2: "'kern' Horizontal Kerning in Arabic lookup 0 subtable" afii62774 dx=0 dy=0 dh=0 dv=0 dx=0 dy=0 dh=100 dv=0
PairPos2: "'kern' Horizontal Kerning in Arabic lookup 0 subtable" afii57421 dx=0 dy=0 dh=0 dv=0 dx=0 dy=0 dh=100 dv=0
PairPos2: "'kern' Horizontal Kerning in Arabic lookup 0 subtable" afii62771 dx=0 dy=0 dh=0 dv=0 dx=0 dy=0 dh=100 dv=0
PairPos2: "'kern' Horizontal Kerning in Arabic lookup 0 subtable" afii57420 dx=0 dy=0 dh=0 dv=0 dx=0 dy=0 dh=100 dv=0
PairPos2: "'kern' Horizontal Kerning in Arabic lookup 0 subtable" afii57419 dx=0 dy=0 dh=0 dv=0 dx=0 dy=0 dh=100 dv=0
PairPos2: "'kern' Horizontal Kerning in Arabic lookup 0 subtable" afii57418 dx=0 dy=0 dh=0 dv=0 dx=0 dy=0 dh=100 dv=0
PairPos2: "'kern' Horizontal Kerning in Arabic lookup 0 subtable" afii62761 dx=0 dy=0 dh=0 dv=0 dx=0 dy=0 dh=330 dv=0
PairPos2: "'kern' Horizontal Kerning in Arabic lookup 0 subtable" afii57416 dx=0 dy=0 dh=0 dv=0 dx=0 dy=0 dh=100 dv=0
PairPos2: "'kern' Horizontal Kerning in Arabic lookup 0 subtable" afii57413 dx=0 dy=0 dh=0 dv=0 dx=0 dy=0 dh=100 dv=0
PairPos2: "'kern' Horizontal Kerning in Arabic lookup 0 subtable" afii52399 dx=0 dy=0 dh=0 dv=0 dx=0 dy=0 dh=100 dv=0
PairPos2: "'kern' Horizontal Kerning in Arabic lookup 0 subtable" afii57509 dx=0 dy=0 dh=0 dv=0 dx=0 dy=0 dh=100 dv=0
PairPos2: "'kern' Horizontal Kerning in Arabic lookup 0 subtable" afii57567 dx=0 dy=0 dh=0 dv=0 dx=0 dy=0 dh=100 dv=0
PairPos2: "'kern' Horizontal Kerning in Arabic lookup 0 subtable" afii62959 dx=0 dy=0 dh=0 dv=0 dx=0 dy=0 dh=100 dv=0
PairPos2: "'kern' Horizontal Kerning in Arabic lookup 0 subtable" afii57507 dx=0 dy=0 dh=0 dv=0 dx=0 dy=0 dh=100 dv=0
PairPos2: "'kern' Horizontal Kerning in Arabic lookup 0 subtable" afii57505 dx=0 dy=0 dh=0 dv=0 dx=0 dy=0 dh=100 dv=0
PairPos2: "'kern' Horizontal Kerning in Arabic lookup 0 subtable" afii62956 dx=0 dy=0 dh=0 dv=0 dx=0 dy=0 dh=330 dv=0
PairPos2: "'kern' Horizontal Kerning in Arabic lookup 0 subtable" afii57506 dx=0 dy=0 dh=0 dv=0 dx=0 dy=0 dh=100 dv=0
EndChar

StartChar: afii57425
Encoding: 1585 1585 194
Width: 553
GlyphClass: 2
Flags: W
AnchorPoint: "Anchor-3" -105 -1020 basechar 0
AnchorPoint: "Anchor-2" 525 915 basechar 0
LayerCount: 2
Fore
SplineSet
554 579 m 0,0,1
 598 579 598 579 623 534 c 0,2,3
 630 520 630 520 630 503 c 2,4,-1
 630 500 l 2,5,6
 630 474 630 474 600 431 c 0,7,8
 545 338 545 338 481 243 c 1,9,10
 440 171 440 171 350 65 c 1,11,12
 189 -146 189 -146 -46 -410 c 0,13,14
 -150 -524 -150 -524 -231 -609 c 0,15,16
 -269 -652 -269 -652 -282 -652 c 1,17,18
 -294 -658 -294 -658 -313 -658 c 0,19,20
 -359 -658 -359 -658 -383 -608 c 0,21,22
 -388 -595 -388 -595 -388 -584 c 2,23,-1
 -388 -578 l 2,24,25
 -388 -542 -388 -542 -344 -505 c 0,26,27
 -344 -502 -344 -502 -175 -337 c 0,28,29
 3 -158 3 -158 49 -98 c 0,30,31
 180 56 180 56 271 192 c 0,32,33
 387 366 387 366 490 548 c 1,34,35
 515 579 515 579 554 579 c 0,0,1
EndSplineSet
Substitution2: "'fina' Terminal Forms in Arabic lookup 2 subtable" afii62782
PairPos2: "'kern' Horizontal Kerning in Arabic lookup 0 subtable" uniFBFE dx=0 dy=0 dh=0 dv=0 dx=0 dy=0 dh=300 dv=0
PairPos2: "'kern' Horizontal Kerning in Arabic lookup 0 subtable" afii62831 dx=0 dy=0 dh=0 dv=0 dx=0 dy=0 dh=300 dv=0
PairPos2: "'kern' Horizontal Kerning in Arabic lookup 0 subtable" afii62777 dx=0 dy=0 dh=0 dv=0 dx=0 dy=0 dh=100 dv=0
PairPos2: "'kern' Horizontal Kerning in Arabic lookup 0 subtable" afii57422 dx=0 dy=0 dh=0 dv=0 dx=0 dy=0 dh=100 dv=0
PairPos2: "'kern' Horizontal Kerning in Arabic lookup 0 subtable" afii62774 dx=0 dy=0 dh=0 dv=0 dx=0 dy=0 dh=100 dv=0
PairPos2: "'kern' Horizontal Kerning in Arabic lookup 0 subtable" afii57421 dx=0 dy=0 dh=0 dv=0 dx=0 dy=0 dh=100 dv=0
PairPos2: "'kern' Horizontal Kerning in Arabic lookup 0 subtable" afii62771 dx=0 dy=0 dh=0 dv=0 dx=0 dy=0 dh=100 dv=0
PairPos2: "'kern' Horizontal Kerning in Arabic lookup 0 subtable" afii57420 dx=0 dy=0 dh=0 dv=0 dx=0 dy=0 dh=100 dv=0
PairPos2: "'kern' Horizontal Kerning in Arabic lookup 0 subtable" afii62761 dx=0 dy=0 dh=0 dv=0 dx=0 dy=0 dh=300 dv=0
PairPos2: "'kern' Horizontal Kerning in Arabic lookup 0 subtable" afii57413 dx=0 dy=0 dh=0 dv=0 dx=0 dy=0 dh=300 dv=0
PairPos2: "'kern' Horizontal Kerning in Arabic lookup 0 subtable" afii62959 dx=0 dy=0 dh=0 dv=0 dx=0 dy=0 dh=100 dv=0
PairPos2: "'kern' Horizontal Kerning in Arabic lookup 0 subtable" afii57507 dx=0 dy=0 dh=0 dv=0 dx=0 dy=0 dh=100 dv=0
PairPos2: "'kern' Horizontal Kerning in Arabic lookup 0 subtable" afii62956 dx=0 dy=0 dh=0 dv=0 dx=0 dy=0 dh=300 dv=0
EndChar

StartChar: afii62782
Encoding: 65198 65198 195
Width: 511
GlyphClass: 2
Flags: W
AnchorPoint: "Anchor-3" -300 -1080 basechar 0
AnchorPoint: "Anchor-2" 435 900 basechar 0
LayerCount: 2
Fore
SplineSet
502 585 m 1,0,1
 547 585 547 585 572 540 c 0,2,3
 579 525 579 525 579 508 c 2,4,-1
 579 505 l 2,5,6
 579 479 579 479 552 410 c 128,-1,7
 525 341 525 341 500.5 287 c 128,-1,8
 476 233 476 233 492 195 c 128,-1,9
 508 157 508 157 549.5 148.5 c 128,-1,10
 591 140 591 140 595 78 c 0,11,12
 595 29 595 29 545 6 c 0,13,14
 531 2 531 2 520 2 c 2,15,-1
 510 2 l 1,16,17
 389 10 389 10 372 106 c 1,18,19
 209 -138 209 -138 -53 -418 c 0,20,21
 -159 -534 -159 -534 -241 -621 c 0,22,23
 -280 -664 -280 -664 -293 -664 c 1,24,25
 -305 -671 -305 -671 -324 -671 c 0,26,27
 -371 -671 -371 -671 -395 -620 c 0,28,29
 -401 -606 -401 -606 -401 -595 c 2,30,-1
 -401 -589 l 2,31,32
 -401 -553 -401 -553 -356 -515 c 0,33,34
 -356 -512 -356 -512 -184 -344 c 0,35,36
 -3 -162 -3 -162 43 -101 c 1,37,38
 176 55 176 55 269 193 c 0,39,40
 376 359 376 359 411.5 478.5 c 128,-1,41
 447 598 447 598 502 585 c 1,0,1
EndSplineSet
PairPos2: "'kern' Horizontal Kerning in Arabic lookup 0 subtable" uniFBFE dx=0 dy=0 dh=0 dv=0 dx=0 dy=0 dh=300 dv=0
PairPos2: "'kern' Horizontal Kerning in Arabic lookup 0 subtable" afii62831 dx=0 dy=0 dh=0 dv=0 dx=0 dy=0 dh=300 dv=0
PairPos2: "'kern' Horizontal Kerning in Arabic lookup 0 subtable" afii57434 dx=0 dy=0 dh=0 dv=0 dx=0 dy=0 dh=150 dv=0
PairPos2: "'kern' Horizontal Kerning in Arabic lookup 0 subtable" afii57433 dx=0 dy=0 dh=0 dv=0 dx=0 dy=0 dh=150 dv=0
PairPos2: "'kern' Horizontal Kerning in Arabic lookup 0 subtable" afii62777 dx=0 dy=0 dh=0 dv=0 dx=0 dy=0 dh=100 dv=0
PairPos2: "'kern' Horizontal Kerning in Arabic lookup 0 subtable" afii57422 dx=0 dy=0 dh=0 dv=0 dx=0 dy=0 dh=100 dv=0
PairPos2: "'kern' Horizontal Kerning in Arabic lookup 0 subtable" afii62774 dx=0 dy=0 dh=0 dv=0 dx=0 dy=0 dh=100 dv=0
PairPos2: "'kern' Horizontal Kerning in Arabic lookup 0 subtable" afii57421 dx=0 dy=0 dh=0 dv=0 dx=0 dy=0 dh=100 dv=0
PairPos2: "'kern' Horizontal Kerning in Arabic lookup 0 subtable" afii62771 dx=0 dy=0 dh=0 dv=0 dx=0 dy=0 dh=100 dv=0
PairPos2: "'kern' Horizontal Kerning in Arabic lookup 0 subtable" afii57420 dx=0 dy=0 dh=0 dv=0 dx=0 dy=0 dh=100 dv=0
PairPos2: "'kern' Horizontal Kerning in Arabic lookup 0 subtable" afii62761 dx=0 dy=0 dh=0 dv=0 dx=0 dy=0 dh=300 dv=0
PairPos2: "'kern' Horizontal Kerning in Arabic lookup 0 subtable" afii57413 dx=0 dy=0 dh=0 dv=0 dx=0 dy=0 dh=300 dv=0
PairPos2: "'kern' Horizontal Kerning in Arabic lookup 0 subtable" afii62959 dx=0 dy=0 dh=0 dv=0 dx=0 dy=0 dh=100 dv=0
PairPos2: "'kern' Horizontal Kerning in Arabic lookup 0 subtable" afii57507 dx=0 dy=0 dh=0 dv=0 dx=0 dy=0 dh=100 dv=0
PairPos2: "'kern' Horizontal Kerning in Arabic lookup 0 subtable" afii62956 dx=0 dy=0 dh=0 dv=0 dx=0 dy=0 dh=300 dv=0
EndChar

StartChar: afii57427
Encoding: 1587 1587 198
Width: 3104
GlyphClass: 2
Flags: W
AnchorPoint: "Anchor-3" 1080 -765 basechar 0
AnchorPoint: "Anchor-2" 1830 1500 basechar 0
LayerCount: 2
Fore
SplineSet
1279 1454 m 1,0,1
 1380 1438 1380 1438 1380 1360 c 2,2,-1
 1380 1348 l 2,3,4
 1380 1291 1380 1291 1312 1242 c 1,5,-1
 1279 1234 l 1,6,7
 1233 1234 1233 1234 1209 1277 c 1,8,9
 1010 1259 1010 1259 843 1216 c 1,10,11
 672 1167 672 1167 563 1108 c 0,12,13
 468 1056 468 1056 377 967 c 1,14,15
 197 778 197 778 197 573 c 2,16,-1
 197 568 l 2,17,18
 197 331 197 331 374 157 c 1,19,20
 642 -59 642 -59 1047 -59 c 0,21,22
 1505 -59 1505 -59 1907 220 c 1,23,24
 2039 319 2039 319 2079 447 c 1,25,-1
 2081 465 l 1,26,27
 2061 565 2061 565 2061 599 c 2,28,-1
 2061 619 l 2,29,30
 2061 698 2061 698 2106 720 c 0,31,32
 2135 732 2135 732 2149 732 c 0,33,34
 2248 732 2248 732 2248 536 c 2,35,-1
 2248 523 l 1,36,-1
 2245 493 l 1,37,-1
 2356 485 l 1,38,39
 2605 485 2605 485 2916 568 c 1,40,41
 3004 555 3004 555 3004 483 c 0,42,43
 3004 398 3004 398 2858 379 c 1,44,45
 2592 316 2592 316 2366 316 c 0,46,47
 2267 316 2267 316 2197 334 c 1,48,49
 2048 48 2048 48 1589 -137 c 1,50,51
 1359 -215 1359 -215 1148 -215 c 2,52,-1
 1080 -215 l 2,53,54
 682 -215 682 -215 331 29 c 1,55,56
 217 118 217 118 150 213 c 0,57,58
 26 392 26 392 26 568 c 0,59,60
 26 818 26 818 215 1045 c 1,61,62
 335 1172 335 1172 384 1196 c 1,63,64
 527 1298 527 1298 740 1365 c 0,65,66
 884 1408 884 1408 1090 1438 c 1,67,68
 1237 1454 1237 1454 1279 1454 c 1,0,1
EndSplineSet
Substitution2: "'medi' Medial Forms in Arabic lookup 3 subtable" afii62785
Substitution2: "'fina' Terminal Forms in Arabic lookup 2 subtable" afii62786
Substitution2: "'init' Initial Forms in Arabic lookup 1 subtable" afii62784
EndChar

StartChar: afii62786
Encoding: 65202 65202 199
Width: 3182
GlyphClass: 2
Flags: W
AnchorPoint: "Anchor-3" 1335 -1020 basechar 0
AnchorPoint: "Anchor-2" 2265 1140 basechar 0
LayerCount: 2
Fore
SplineSet
1326 1111 m 1,0,1
 1427 1096 1427 1096 1427 1018 c 2,2,-1
 1427 1006 l 2,3,4
 1427 949 1427 949 1359 900 c 1,5,-1
 1326 892 l 1,6,7
 1280 892 1280 892 1256 935 c 1,8,9
 1057 917 1057 917 890 874 c 1,10,11
 719 825 719 825 610 766 c 0,12,13
 515 714 515 714 424 625 c 1,14,15
 244 436 244 436 244 231 c 2,16,-1
 244 226 l 2,17,18
 244 -10 244 -10 421 -183 c 1,19,20
 689 -400 689 -400 1094 -400 c 0,21,22
 1552 -400 1552 -400 1954 -121 c 0,23,24
 2090 -22 2090 -22 2130 125 c 1,25,-1
 2137 160 l 1,26,27
 2113 207 2113 207 2112 277 c 2,28,-1
 2112 297 l 2,29,30
 2112 376 2112 376 2157 398 c 0,31,32
 2186 410 2186 410 2200 410 c 0,33,34
 2299 410 2299 410 2300 222 c 1,35,36
 2336 160 2336 160 2508 162.5 c 128,-1,37
 2680 165 2680 165 3186 156 c 0,38,39
 3281 153 3281 153 3281 92 c 0,40,41
 3281 8 3281 8 3188 1 c 0,42,43
 2332 -41 2332 -41 2250 40 c 1,44,45
 2095 -293 2095 -293 1636 -478 c 1,46,47
 1406 -556 1406 -556 1195 -556 c 2,48,-1
 1127 -556 l 2,49,50
 729 -556 729 -556 378 -312 c 1,51,52
 264 -223 264 -223 197 -128 c 0,53,54
 73 50 73 50 73 226 c 0,55,56
 73 476 73 476 262 703 c 1,57,58
 382 830 382 830 431 854 c 1,59,60
 574 956 574 956 787 1023 c 0,61,62
 931 1066 931 1066 1137 1096 c 1,63,64
 1284 1111 1284 1111 1326 1111 c 1,0,1
EndSplineSet
EndChar

StartChar: afii62784
Encoding: 65203 65203 200
Width: 1310
GlyphClass: 2
Flags: W
AnchorPoint: "Anchor-3" 450 -540 basechar 0
AnchorPoint: "Anchor-2" 525 810 basechar 0
LayerCount: 2
Fore
SplineSet
1152 367 m 1,0,-1
 1152 364 l 1,1,2
 1157 298 1157 298 980.5 190 c 128,-1,3
 804 82 804 82 547 33.5 c 128,-1,4
 290 -15 290 -15 139.5 -13 c 128,-1,5
 -11 -11 -11 -11 -55 25 c 0,6,7
 -78 46 -78 46 -78 78 c 1,8,9
 -64 154 -64 154 -1 154 c 1,10,11
 205 124 205 124 483.5 176 c 128,-1,12
 762 228 762 228 940 374 c 128,-1,13
 1118 520 1118 520 1152 367 c 1,0,-1
EndSplineSet
EndChar

StartChar: afii62785
Encoding: 65204 65204 201
Width: 1142
GlyphClass: 2
Flags: W
AnchorPoint: "Anchor-3" 525 -510 basechar 0
AnchorPoint: "Anchor-2" 510 570 basechar 0
LayerCount: 2
Fore
SplineSet
1151 156 m 1,0,1
 1186 150 1186 150 1197.5 125 c 128,-1,2
 1209 100 1209 100 1205 72.5 c 128,-1,3
 1201 45 1201 45 1185.5 23 c 128,-1,4
 1170 1 1170 1 1151 0 c 0,5,6
 576 -47 576 -47 -13 0 c 0,7,8
 -30 1 -30 1 -39.5 24.5 c 128,-1,9
 -49 48 -49 48 -50 75.5 c 128,-1,10
 -51 103 -51 103 -42.5 127.5 c 128,-1,11
 -34 152 -34 152 -13 156 c 1,12,13
 578 118 578 118 1151 156 c 1,0,1
EndSplineSet
EndChar

StartChar: afii57429
Encoding: 1589 1589 206
Width: 2916
GlyphClass: 2
Flags: W
AnchorPoint: "Anchor-3" 1065 -840 basechar 0
AnchorPoint: "Anchor-2" 1920 1320 basechar 0
LayerCount: 2
Fore
SplineSet
1225 1013 m 2,0,-1
 1283 1013 l 2,1,2
 1356 1013 1356 1013 1369 948 c 1,3,-1
 1369 931 l 1,4,5
 1353 862 1353 862 1307 862 c 2,6,-1
 1215 862 l 2,7,8
 712 862 712 862 291 534 c 1,9,10
 148 404 148 404 148 257 c 0,11,12
 148 24 148 24 466 -133 c 1,13,14
 628 -191 628 -191 818 -191 c 2,15,-1
 893 -191 l 2,16,17
 1259 -191 1259 -191 1663 69 c 1,18,19
 1852 198 1852 198 1933 418 c 1,20,-1
 1947 462 l 1,21,22
 1926 519 1926 519 1926 589 c 0,23,24
 1934 756 1934 756 1978 756 c 1,25,26
 1978 767 1978 767 2026 773 c 1,27,28
 2118 757 2118 757 2118 654 c 1,29,-1
 2121 619 l 1,30,-1
 2108 483 l 1,31,32
 2125 448 2125 448 2156 448 c 1,33,34
 2187 517 2187 517 2388 715 c 1,35,36
 2627 917 2627 917 2809 917 c 0,37,38
 2947 917 2947 917 2984 780 c 1,39,-1
 2987 746 l 1,40,-1
 2987 722 l 2,41,42
 2987 551 2987 551 2676 363 c 1,43,44
 2498 270 2498 270 2299 270 c 2,45,-1
 2296 270 l 2,46,47
 2248 270 2248 270 2204 288 c 1,48,49
 2117 141 2117 141 2111 140 c 2,50,-1
 2108 140 l 1,51,52
 2060 157 2060 157 2060 226 c 2,53,-1
 2060 233 l 2,54,55
 2060 269 2060 269 2084 318 c 1,56,-1
 2056 332 l 1,57,58
 1951 43 1951 43 1625 -140 c 0,59,60
 1302 -317 1302 -317 934 -317 c 0,61,62
 284 -317 284 -317 59 34 c 1,63,64
 -3 141 -3 141 -3 267 c 0,65,66
 -3 664 -3 664 705 931 c 1,67,68
 963 1013 963 1013 1225 1013 c 2,0,-1
2282 418 m 1,69,-1
 2282 414 l 1,70,-1
 2299 414 l 2,71,72
 2557 414 2557 414 2744 595 c 0,73,74
 2840 686 2840 686 2840 732 c 0,75,76
 2840 767 2840 767 2813 767 c 2,77,-1
 2802 767 l 2,78,79
 2656 767 2656 767 2323 469 c 1,80,-1
 2282 418 l 1,69,-1
EndSplineSet
Substitution2: "'medi' Medial Forms in Arabic lookup 3 subtable" afii62791
Substitution2: "'fina' Terminal Forms in Arabic lookup 2 subtable" afii62792
Substitution2: "'init' Initial Forms in Arabic lookup 1 subtable" afii62790
EndChar

StartChar: afii62792
Encoding: 65210 65210 207
Width: 3060
GlyphClass: 2
Flags: W
AnchorPoint: "Anchor-3" 1245 -1035 basechar 0
AnchorPoint: "Anchor-2" 2085 1035 basechar 0
LayerCount: 2
Fore
SplineSet
3059 155 m 1,0,1
 3108 150 3108 150 3127 116 c 128,-1,2
 3146 82 3146 82 3128 47.5 c 128,-1,3
 3110 13 3110 13 3084.5 4.5 c 128,-1,4
 3059 -4 3059 -4 2992.5 4.5 c 128,-1,5
 2926 13 2926 13 2876 47 c 0,6,7
 2832 79 2832 79 2811 117 c 1,8,9
 2794 107 2794 107 2777 97 c 0,10,11
 2599 4 2599 4 2400 4 c 2,12,-1
 2397 4 l 2,13,14
 2349 4 2349 4 2305 22 c 1,15,16
 2218 -125 2218 -125 2212 -125 c 2,17,-1
 2209 -125 l 1,18,19
 2161 -109 2161 -109 2161 -39 c 2,20,-1
 2161 -33 l 2,21,22
 2161 3 2161 3 2185 52 c 1,23,-1
 2157 66 l 1,24,25
 2052 -223 2052 -223 1726 -406 c 0,26,27
 1403 -583 1403 -583 1035 -583 c 0,28,29
 385 -583 385 -583 160 -231 c 1,30,31
 98 -125 98 -125 98 1 c 0,32,33
 98 398 98 398 806 665 c 1,34,35
 1064 747 1064 747 1326 747 c 2,36,-1
 1384 747 l 2,37,38
 1457 747 1457 747 1470 682 c 1,39,-1
 1470 665 l 1,40,41
 1454 596 1454 596 1408 596 c 2,42,-1
 1316 596 l 2,43,44
 813 596 813 596 392 268 c 1,45,46
 249 138 249 138 249 -9 c 0,47,48
 249 -242 249 -242 567 -399 c 1,49,50
 729 -457 729 -457 919 -457 c 2,51,-1
 994 -457 l 2,52,53
 1360 -457 1360 -457 1764 -197 c 1,54,55
 1953 -67 1953 -67 2034 152 c 1,56,-1
 2048 196 l 1,57,58
 2027 253 2027 253 2027 323 c 0,59,60
 2035 490 2035 490 2079 490 c 1,61,62
 2079 501 2079 501 2127 507 c 1,63,64
 2219 491 2219 491 2219 388 c 1,65,-1
 2222 353 l 1,66,-1
 2209 217 l 1,67,68
 2226 182 2226 182 2257 182 c 1,69,70
 2288 251 2288 251 2489 449 c 1,71,72
 2728 651 2728 651 2910 651 c 0,73,74
 3048 651 3048 651 3085 514 c 1,75,-1
 3088 480 l 1,76,-1
 3088 456 l 2,77,78
 3088 334 3088 334 2929 200 c 1,79,80
 2936 191 2936 191 2943 182 c 0,81,82
 2967 154 2967 154 3059 155 c 1,0,1
2383 152 m 1,83,-1
 2383 148 l 1,84,-1
 2400 148 l 2,85,86
 2658 148 2658 148 2845 329 c 0,87,88
 2941 420 2941 420 2941 466 c 0,89,90
 2941 501 2941 501 2914 501 c 2,91,-1
 2903 501 l 2,92,93
 2757 501 2757 501 2424 203 c 1,94,-1
 2383 152 l 1,83,-1
EndSplineSet
EndChar

StartChar: afii62790
Encoding: 65211 65211 208
Width: 1300
GlyphClass: 2
Flags: W
AnchorPoint: "Anchor-3" 345 -660 basechar 0
AnchorPoint: "Anchor-2" 555 1050 basechar 0
LayerCount: 2
Fore
SplineSet
951 670 m 0,0,1
 1092 670 1092 670 1134 542 c 0,2,3
 1144 509 1144 509 1144 480 c 0,4,5
 1144 298 1144 298 856 113 c 1,6,7
 653 -9 653 -9 412 -9 c 0,8,9
 374 -9 374 -9 317 9 c 1,10,-1
 226 -142 l 2,11,12
 221 -147 221 -147 215 -147 c 0,13,14
 192 -147 192 -147 171 -83 c 1,15,-1
 167 -52 l 1,16,17
 169 -8 169 -8 194 41 c 1,18,19
 188 41 188 41 163 56 c 1,20,21
 119 0 119 0 49 0 c 2,22,-1
 14 -1 l 1,23,-1
 -6 -1 l 2,24,25
 -60 -1 -60 -1 -78 50 c 0,26,27
 -82 62 -82 62 -82 70 c 2,28,-1
 -82 80 l 2,29,30
 -82 128 -82 128 -31 151 c 1,31,32
 23 156 23 156 23 163 c 1,33,34
 40 173 40 173 46 197 c 128,-1,35
 52 221 52 221 62.5 297 c 128,-1,36
 73 373 73 373 99.5 436 c 128,-1,37
 126 499 126 499 186 502.5 c 128,-1,38
 246 506 246 506 266 450.5 c 128,-1,39
 286 395 286 395 262.5 330 c 128,-1,40
 239 265 239 265 214 216 c 1,41,42
 224 190 224 190 249 178 c 1,43,-1
 266 174 l 1,44,45
 304 237 304 237 412 356 c 1,46,47
 506 452 506 452 563 497 c 0,48,49
 786 670 786 670 951 670 c 0,0,1
397 142 m 1,50,-1
 397 141 l 1,51,-1
 430 140 l 1,52,53
 690 140 690 140 888 331 c 1,54,55
 962 395 962 395 982 447 c 0,56,57
 988 464 988 464 988 476 c 2,58,-1
 988 483 l 2,59,60
 988 514 988 514 960 514 c 2,61,-1
 948 514 l 2,62,63
 822 514 822 514 541 287 c 0,64,65
 442 204 442 204 397 142 c 1,50,-1
EndSplineSet
EndChar

StartChar: afii62791
Encoding: 65212 65212 209
Width: 1104
GlyphClass: 2
Flags: W
AnchorPoint: "Anchor-3" 360 -660 basechar 0
AnchorPoint: "Anchor-2" 450 1125 basechar 0
LayerCount: 2
Fore
SplineSet
955 670 m 0,0,1
 1096 670 1096 670 1138 542 c 0,2,3
 1148 509 1148 509 1148 480 c 0,4,5
 1148 338 1148 338 972 191 c 1,6,7
 975 187 975 187 978 183 c 0,8,9
 1002 155 1002 155 1094 156 c 1,10,11
 1143 151 1143 151 1162 116.5 c 128,-1,12
 1181 82 1181 82 1163 47.5 c 128,-1,13
 1145 13 1145 13 1119.5 4.5 c 128,-1,14
 1094 -4 1094 -4 1027.5 4.5 c 128,-1,15
 961 13 961 13 911 47 c 0,16,17
 872 75 872 75 851 108 c 1,18,19
 652 -9 652 -9 416 -9 c 0,20,21
 378 -9 378 -9 321 9 c 1,22,-1
 230 -142 l 2,23,24
 225 -147 225 -147 219 -147 c 0,25,26
 196 -147 196 -147 175 -83 c 1,27,-1
 171 -52 l 1,28,29
 173 -8 173 -8 198 41 c 1,30,31
 192 41 192 41 167 56 c 1,32,33
 123 0 123 0 53 1 c 2,34,-1
 18 0 l 1,35,-1
 -2 0 l 2,36,37
 -56 -1 -56 -1 -74 50 c 0,38,39
 -78 62 -78 62 -78 70 c 2,40,-1
 -78 80 l 2,41,42
 -78 128 -78 128 -27 151 c 1,43,44
 27 156 27 156 27 163 c 1,45,46
 44 173 44 173 50 197 c 128,-1,47
 56 221 56 221 66.5 297 c 128,-1,48
 77 373 77 373 103.5 436 c 128,-1,49
 130 499 130 499 190 502.5 c 128,-1,50
 250 506 250 506 270 450.5 c 128,-1,51
 290 395 290 395 266.5 330 c 128,-1,52
 243 265 243 265 218 216 c 1,53,54
 228 190 228 190 253 178 c 1,55,-1
 270 174 l 1,56,57
 308 237 308 237 416 356 c 1,58,59
 510 452 510 452 567 497 c 0,60,61
 790 670 790 670 955 670 c 0,0,1
401 142 m 1,62,-1
 401 141 l 1,63,-1
 434 140 l 1,64,65
 694 140 694 140 892 331 c 1,66,67
 966 395 966 395 986 447 c 0,68,69
 992 464 992 464 992 476 c 2,70,-1
 992 483 l 2,71,72
 992 514 992 514 964 514 c 2,73,-1
 952 514 l 2,74,75
 826 514 826 514 545 287 c 0,76,77
 446 204 446 204 401 142 c 1,62,-1
EndSplineSet
EndChar

StartChar: afii57431
Encoding: 1591 1591 214
Width: 1053
GlyphClass: 2
Flags: W
AnchorPoint: "Anchor-3" 420 -525 basechar 0
AnchorPoint: "Anchor-2" 870 1800 basechar 0
LayerCount: 2
Fore
SplineSet
826 1683 m 0,0,1
 883 1683 883 1683 905 1621 c 1,2,-1
 905 1597 l 1,3,4
 805 1129 805 1129 777 783 c 2,5,-1
 772 726 l 1,6,-1
 774 726 l 1,7,8
 868 783 868 783 936 783 c 0,9,10
 1037 783 1037 783 1076 671 c 1,11,-1
 1081 631 l 1,12,13
 1099 284 1099 284 867.5 135.5 c 128,-1,14
 636 -13 636 -13 273 0 c 1,15,16
 110 -2 110 -2 110 10 c 1,17,18
 71 38 71 38 71 76 c 1,19,20
 83 157 83 157 148 157 c 2,21,-1
 247 160 l 1,22,-1
 247 182 l 2,23,24
 247 220 247 220 411 410 c 1,25,26
 560 567 560 567 613 607 c 1,27,-1
 606 638 l 1,28,29
 606 804 606 804 679 1274 c 1,30,31
 729 1549 729 1549 757 1647 c 1,32,33
 787 1683 787 1683 826 1683 c 0,0,1
432 182 m 1,34,-1
 435 182 l 1,35,36
 591 154 591 154 752 253 c 128,-1,37
 913 352 913 352 931 495.5 c 128,-1,38
 949 639 949 639 874 610 c 128,-1,39
 799 581 799 581 628 417 c 1,40,41
 470 244 470 244 432 182 c 1,34,-1
EndSplineSet
Substitution2: "'medi' Medial Forms in Arabic lookup 3 subtable" afii62797
Substitution2: "'fina' Terminal Forms in Arabic lookup 2 subtable" afii62798
Substitution2: "'init' Initial Forms in Arabic lookup 1 subtable" afii62796
EndChar

StartChar: afii62798
Encoding: 65218 65218 215
Width: 1049
GlyphClass: 2
Flags: W
AnchorPoint: "Anchor-3" 390 -555 basechar 0
AnchorPoint: "Anchor-2" 1005 1890 basechar 0
LayerCount: 2
Fore
SplineSet
826 1679 m 0,0,1
 883 1679 883 1679 905 1617 c 1,2,-1
 905 1593 l 1,3,4
 805 1125 805 1125 777 779 c 2,5,-1
 772 722 l 1,6,-1
 774 722 l 1,7,8
 868 779 868 779 936 779 c 0,9,10
 1037 779 1037 779 1076 667 c 1,11,-1
 1081 627 l 1,12,13
 1096 335 1096 335 935 180 c 1,14,15
 961 155 961 155 1048 156 c 1,16,17
 1097 151 1097 151 1116 117.5 c 128,-1,18
 1135 84 1135 84 1117 48.5 c 128,-1,19
 1099 13 1099 13 1073.5 4.5 c 128,-1,20
 1048 -4 1048 -4 981.5 4.5 c 128,-1,21
 915 13 915 13 865 49 c 0,22,23
 832 73 832 73 812 99 c 1,24,25
 594 -15 594 -15 273 -4 c 1,26,27
 110 -6 110 -6 110 6 c 1,28,29
 71 34 71 34 71 72 c 1,30,31
 83 153 83 153 148 153 c 2,32,-1
 247 156 l 1,33,-1
 247 178 l 2,34,35
 247 216 247 216 411 406 c 1,36,37
 560 563 560 563 613 603 c 1,38,-1
 606 634 l 1,39,40
 606 800 606 800 679 1270 c 1,41,42
 729 1545 729 1545 757 1643 c 1,43,44
 787 1679 787 1679 826 1679 c 0,0,1
432 178 m 1,45,-1
 435 178 l 1,46,47
 591 150 591 150 752 249 c 128,-1,48
 913 348 913 348 931 491.5 c 128,-1,49
 949 635 949 635 874 606 c 128,-1,50
 799 577 799 577 628 413 c 1,51,52
 470 240 470 240 432 178 c 1,45,-1
EndSplineSet
EndChar

StartChar: afii62796
Encoding: 65219 65219 216
Width: 1055
GlyphClass: 2
Flags: W
AnchorPoint: "Anchor-3" 360 -540 basechar 0
AnchorPoint: "Anchor-2" 795 1875 basechar 0
LayerCount: 2
Fore
SplineSet
675 1683 m 0,0,1
 732 1683 732 1683 754 1621 c 1,2,-1
 754 1597 l 1,3,4
 654 1129 654 1129 626 783 c 2,5,-1
 621 726 l 1,6,-1
 623 726 l 1,7,8
 717 783 717 783 785 783 c 0,9,10
 886 783 886 783 925 671 c 1,11,-1
 930 631 l 1,12,13
 948 284 948 284 716.5 135.5 c 128,-1,14
 485 -13 485 -13 122 0 c 1,15,16
 -41 -2 -41 -2 -41 10 c 1,17,18
 -80 38 -80 38 -80 76 c 1,19,20
 -68 157 -68 157 -3 157 c 2,21,-1
 96 160 l 1,22,-1
 96 182 l 2,23,24
 96 220 96 220 260 410 c 1,25,26
 409 567 409 567 462 607 c 1,27,-1
 455 638 l 1,28,29
 455 804 455 804 528 1274 c 1,30,31
 578 1549 578 1549 606 1647 c 1,32,33
 636 1683 636 1683 675 1683 c 0,0,1
281 182 m 1,34,-1
 284 182 l 1,35,36
 440 154 440 154 601 253 c 128,-1,37
 762 352 762 352 780 495.5 c 128,-1,38
 798 639 798 639 723 610 c 128,-1,39
 648 581 648 581 477 417 c 1,40,41
 319 244 319 244 281 182 c 1,34,-1
EndSplineSet
EndChar

StartChar: afii62797
Encoding: 65220 65220 217
Width: 902
GlyphClass: 2
Flags: W
AnchorPoint: "Anchor-3" 360 -480 basechar 0
AnchorPoint: "Anchor-2" 735 1800 basechar 0
LayerCount: 2
Fore
SplineSet
674 1679 m 0,0,1
 731 1679 731 1679 753 1617 c 1,2,-1
 753 1593 l 1,3,4
 653 1125 653 1125 625 779 c 2,5,-1
 620 722 l 1,6,-1
 622 722 l 1,7,8
 716 779 716 779 784 779 c 0,9,10
 885 779 885 779 924 667 c 1,11,-1
 929 627 l 1,12,13
 944 335 944 335 783 180 c 1,14,15
 809 155 809 155 896 156 c 1,16,17
 945 151 945 151 964 117.5 c 128,-1,18
 983 84 983 84 965 48.5 c 128,-1,19
 947 13 947 13 921.5 4.5 c 128,-1,20
 896 -4 896 -4 829.5 4.5 c 128,-1,21
 763 13 763 13 713 49 c 0,22,23
 680 73 680 73 660 99 c 1,24,25
 442 -15 442 -15 121 -4 c 1,26,27
 -42 -6 -42 -6 -42 6 c 1,28,29
 -81 34 -81 34 -81 72 c 1,30,31
 -69 153 -69 153 -4 153 c 2,32,-1
 95 156 l 1,33,-1
 95 178 l 2,34,35
 95 216 95 216 259 406 c 1,36,37
 408 563 408 563 461 603 c 1,38,-1
 454 634 l 1,39,40
 454 800 454 800 527 1270 c 1,41,42
 577 1545 577 1545 605 1643 c 1,43,44
 635 1679 635 1679 674 1679 c 0,0,1
280 178 m 1,45,-1
 283 178 l 1,46,47
 439 150 439 150 600 249 c 128,-1,48
 761 348 761 348 779 491.5 c 128,-1,49
 797 635 797 635 722 606 c 128,-1,50
 647 577 647 577 476 413 c 1,51,52
 318 240 318 240 280 178 c 1,45,-1
EndSplineSet
EndChar

StartChar: afii57433
Encoding: 1593 1593 222
Width: 1201
GlyphClass: 2
Flags: W
AnchorPoint: "Anchor-3" 375 -1425 basechar 0
AnchorPoint: "Anchor-2" 825 1005 basechar 0
LayerCount: 2
Fore
SplineSet
991 849 m 1,0,-1
 1003 849 l 1,1,2
 1065 834 1065 834 1065 788 c 2,3,-1
 1065 768 l 2,4,5
 1065 718 1065 718 976 696 c 1,6,7
 907 669 907 669 785 560 c 1,8,9
 700 474 700 474 700 439 c 2,10,-1
 700 437 l 1,11,-1
 706 435 l 1,12,13
 963 520 963 520 1044 520 c 0,14,15
 1104 520 1104 520 1114 443 c 1,16,17
 1114 354 1114 354 857 297 c 0,18,19
 816 288 816 288 770 288 c 2,20,-1
 727 288 l 1,21,-1
 725 290 l 1,22,23
 418 205 418 205 158 0 c 1,24,25
 21 -125 21 -125 -20 -185 c 0,26,27
 -124 -335 -124 -335 -124 -438 c 2,28,-1
 -124 -465 l 2,29,30
 -124 -575 -124 -575 -22.5 -686 c 128,-1,31
 79 -797 79 -797 314 -856 c 128,-1,32
 549 -915 549 -915 785.5 -878.5 c 128,-1,33
 1022 -842 1022 -842 1126.5 -799 c 128,-1,34
 1231 -756 1231 -756 1298 -756 c 128,-1,35
 1365 -756 1365 -756 1365 -837 c 0,36,37
 1365 -902 1365 -902 1253 -928 c 128,-1,38
 1141 -954 1141 -954 902.5 -996.5 c 128,-1,39
 664 -1039 664 -1039 304.5 -996.5 c 128,-1,40
 -55 -954 -55 -954 -211 -648 c 1,41,42
 -252 -552 -252 -552 -252 -457 c 0,43,44
 -252 -124 -252 -124 188 197 c 1,45,46
 328 289 328 289 434 337 c 1,47,-1
 568 390 l 1,48,49
 555 416 555 416 555 437 c 0,50,51
 555 588 555 588 825 777 c 1,52,53
 930 842 930 842 991 849 c 1,0,-1
EndSplineSet
Substitution2: "'medi' Medial Forms in Arabic lookup 3 subtable" afii62803
Substitution2: "'fina' Terminal Forms in Arabic lookup 2 subtable" afii62804
Substitution2: "'init' Initial Forms in Arabic lookup 1 subtable" afii62802
EndChar

StartChar: afii62804
Encoding: 65226 65226 223
Width: 913
GlyphClass: 2
Flags: W
AnchorPoint: "Anchor-3" 360 -1485 basechar 0
AnchorPoint: "Anchor-2" 660 870 basechar 0
LayerCount: 2
Fore
SplineSet
501 524 m 2,0,-1
 665 524 l 2,1,2
 959 524 959 524 959 441 c 2,3,-1
 959 422 l 2,4,5
 959 318 959 318 850 204 c 1,6,-1
 809 165 l 1,7,8
 888 154 888 154 914 156 c 1,9,10
 996 131 996 131 996 87 c 2,11,-1
 996 76 l 2,12,13
 996 14 996 14 913 0 c 1,14,15
 708 -7 708 -7 605 72 c 1,16,17
 494 76 494 76 242 -121 c 1,18,19
 105 -246 105 -246 64 -306 c 0,20,21
 -40 -456 -40 -456 -40 -559 c 2,22,-1
 -40 -586 l 2,23,24
 -40 -696 -40 -696 61.5 -807 c 128,-1,25
 163 -918 163 -918 374 -968.5 c 128,-1,26
 585 -1019 585 -1019 867.5 -969.5 c 128,-1,27
 1150 -920 1150 -920 1213 -898.5 c 128,-1,28
 1276 -877 1276 -877 1351 -877 c 2,29,-1
 1359 -877 l 2,30,31
 1449 -877 1449 -877 1449 -958 c 0,32,33
 1449 -1023 1449 -1023 1300 -1077 c 0,34,35
 1285 -1085 1285 -1085 1266 -1073 c 128,-1,36
 1247 -1061 1247 -1061 1235 -1036.5 c 128,-1,37
 1223 -1012 1223 -1012 983 -1073 c 128,-1,38
 743 -1134 743 -1134 386 -1104.5 c 128,-1,39
 29 -1075 29 -1075 -127 -769 c 1,40,41
 -168 -673 -168 -673 -168 -578 c 0,42,43
 -168 -245 -168 -245 272 75 c 1,44,45
 412 167 412 167 518 215 c 1,46,-1
 582 240 l 1,47,-1
 582 241 l 1,48,49
 630 271 630 271 647 294 c 1,50,-1
 647 309 l 2,51,52
 647 358 647 358 561 358 c 1,53,-1
 437 350 l 1,54,55
 342 363 342 363 342 425 c 2,56,-1
 342 455 l 2,57,58
 342 527 342 527 501 524 c 2,0,-1
EndSplineSet
EndChar

StartChar: afii62802
Encoding: 65227 65227 224
Width: 792
GlyphClass: 2
Flags: W
AnchorPoint: "Anchor-3" 300 -510 basechar 0
AnchorPoint: "Anchor-2" 465 1110 basechar 0
LayerCount: 2
Fore
SplineSet
471 716 m 1,0,1
 522 716 522 716 548 662 c 1,2,-1
 550 644 l 1,3,4
 550 586 550 586 427 532 c 1,5,6
 267 430 267 430 235 329 c 1,7,8
 210 222 210 222 258 194 c 1,9,-1
 583 299 l 1,10,-1
 619 304 l 1,11,-1
 642 304 l 2,12,13
 696 304 696 304 709 245 c 1,14,-1
 709 214 l 2,15,16
 709 169 709 169 596 135 c 1,17,18
 251 -7 251 -7 1 0 c 1,19,20
 -73 9 -73 9 -82 78 c 1,21,22
 -65 152 -65 152 1 156 c 2,23,-1
 49 158 l 1,24,-1
 79 158 l 1,25,-1
 82 161 l 1,26,-1
 84 161 l 1,27,28
 67 211 67 211 67 243 c 0,29,30
 67 474 67 474 438 711 c 1,31,-1
 471 716 l 1,0,1
EndSplineSet
EndChar

StartChar: afii62803
Encoding: 65228 65228 225
Width: 730
GlyphClass: 2
Flags: W
AnchorPoint: "Anchor-3" 300 -555 basechar 0
AnchorPoint: "Anchor-2" 480 855 basechar 0
LayerCount: 2
Fore
SplineSet
310 524 m 2,0,-1
 474 524 l 2,1,2
 768 524 768 524 768 441 c 2,3,-1
 768 422 l 2,4,5
 768 318 768 318 659 199 c 1,6,-1
 618 164 l 1,7,8
 697 154 697 154 729 155 c 1,9,10
 805 130 805 130 805 87 c 2,11,-1
 805 76 l 2,12,13
 805 11 805 11 722 -1 c 1,14,15
 517 -7 517 -7 414 72 c 1,16,17
 193 -7 193 -7 -4 0 c 1,18,-1
 -7 0 l 2,19,20
 -72 0 -72 0 -87 83 c 1,21,22
 -87 159 -87 159 30 156 c 0,23,24
 207 155 207 155 323 213 c 128,-1,25
 439 271 439 271 456 294 c 1,26,-1
 456 309 l 2,27,28
 456 358 456 358 370 358 c 1,29,-1
 246 350 l 1,30,31
 151 363 151 363 151 425 c 2,32,-1
 151 455 l 2,33,34
 151 527 151 527 310 524 c 2,0,-1
EndSplineSet
EndChar

StartChar: afii57443
Encoding: 1603 1603 238
Width: 1865
GlyphClass: 2
Flags: W
AnchorPoint: "Anchor-3" 735 -555 basechar 0
AnchorPoint: "Anchor-2" 1140 1455 basechar 0
LayerCount: 2
Fore
SplineSet
583 980 m 1,0,-1
 597 980 l 1,1,2
 667 967 667 967 667 911 c 2,3,-1
 667 900 l 2,4,5
 667 835 667 835 548 809 c 1,6,7
 186 668 186 668 186 422 c 0,8,9
 186 222 186 222 605 138 c 0,10,11
 678 124 678 124 759 124 c 0,12,13
 1052 124 1052 124 1434 338 c 0,14,15
 1638 452 1638 452 1742.5 647.5 c 128,-1,16
 1847 843 1847 843 1798 1370 c 1,17,18
 1820 1432 1820 1432 1861 1432 c 2,19,-1
 1882 1432 l 1,20,21
 2004 1385 2004 1385 1951 838 c 1,22,23
 1881 381 1881 381 1431 163 c 1,24,25
 1091 9 1091 9 798 9 c 2,26,-1
 763 9 l 2,27,28
 374 9 374 9 137 201 c 1,29,30
 32 312 32 312 32 436 c 0,31,32
 32 763 32 763 471 945 c 1,33,-1
 583 980 l 1,0,-1
1272 1169 m 1,34,35
 1313 1154 1313 1154 1336.5 1114.5 c 128,-1,36
 1360 1075 1360 1075 1360 1071 c 2,37,-1
 1360 1066 l 2,38,39
 1357 1046 1357 1046 1313 1049 c 1,40,-1
 1307 1051 l 1,41,42
 1299 1047 1299 1047 1298 1038 c 2,43,-1
 1297 1032 l 2,44,45
 1293 1009 1293 1009 1333 925 c 0,46,47
 1347 889 1347 889 1342 852 c 0,48,49
 1332 794 1332 794 1232 728 c 128,-1,50
 1132 662 1132 662 1107 666 c 1,51,-1
 1098 666 l 1,52,-1
 1085 668 l 2,53,54
 1058 672 1058 672 1052 707.5 c 128,-1,55
 1046 743 1046 743 1100 772 c 1,56,57
 1225 853 1225 853 1230 883 c 0,58,59
 1235 928 1235 928 1204 989 c 128,-1,60
 1173 1050 1173 1050 1178 1099 c 1,61,62
 1188 1145 1188 1145 1214.5 1159.5 c 128,-1,63
 1241 1174 1241 1174 1272 1169 c 1,34,35
EndSplineSet
Substitution2: "'medi' Medial Forms in Arabic lookup 3 subtable" afii52306
Substitution2: "'fina' Terminal Forms in Arabic lookup 2 subtable" afii62816
Substitution2: "'init' Initial Forms in Arabic lookup 1 subtable" afii52305
EndChar

StartChar: afii62816
Encoding: 65242 65242 239
Width: 2098
GlyphClass: 2
Flags: W
AnchorPoint: "Anchor-3" 720 -405 basechar 0
AnchorPoint: "Anchor-2" 1215 1440 basechar 0
LayerCount: 2
Fore
SplineSet
2089 155 m 1,0,1
 2138 150 2138 150 2157 117.5 c 128,-1,2
 2176 85 2176 85 2158 49.5 c 128,-1,3
 2140 14 2140 14 2114.5 5.5 c 128,-1,4
 2089 -3 2089 -3 2056 -1.5 c 128,-1,5
 2023 0 2023 0 1982.5 21 c 128,-1,6
 1942 42 1942 42 1902 120 c 128,-1,7
 1862 198 1862 198 1887 360 c 0,8,9
 1889 376 1889 376 1893 393 c 1,10,11
 1770 267 1770 267 1571 163 c 1,12,13
 1231 9 1231 9 938 9 c 2,14,-1
 903 9 l 2,15,16
 514 9 514 9 277 202 c 1,17,18
 172 312 172 312 172 436 c 0,19,20
 172 763 172 763 724 999 c 1,21,-1
 836 1034 l 1,22,-1
 850 1034 l 1,23,24
 920 1020 920 1020 920 964 c 2,25,-1
 920 953 l 2,26,27
 920 888 920 888 801 863 c 1,28,29
 326 668 326 668 326 422 c 0,30,31
 326 223 326 223 745 139 c 0,32,33
 818 125 818 125 899 125 c 0,34,35
 1192 125 1192 125 1574 338 c 1,36,37
 1680 402 1680 402 1826 551 c 1,38,39
 1975 748 1975 748 1937 1235 c 1,40,41
 1959 1298 1959 1298 2000 1298 c 2,42,-1
 2021 1298 l 1,43,44
 2110 1289 2110 1289 2100.5 1025 c 128,-1,45
 2091 761 2091 761 2071 689 c 0,46,47
 2070 683 2070 683 2069 676 c 0,48,49
 2025 430 2025 430 2020 327 c 128,-1,50
 2015 224 2015 224 2039.5 188 c 128,-1,51
 2064 152 2064 152 2089 155 c 1,0,1
1401 1126 m 1,52,53
 1442 1111 1442 1111 1465.5 1071.5 c 128,-1,54
 1489 1032 1489 1032 1489 1028 c 2,55,-1
 1489 1023 l 2,56,57
 1486 1003 1486 1003 1442 1006 c 1,58,-1
 1436 1008 l 1,59,60
 1428 1004 1428 1004 1427 995 c 2,61,-1
 1426 989 l 2,62,63
 1422 966 1422 966 1462 882 c 0,64,65
 1476 846 1476 846 1471 809 c 0,66,67
 1461 751 1461 751 1361 685 c 128,-1,68
 1261 619 1261 619 1236 623 c 1,69,-1
 1227 623 l 1,70,-1
 1214 625 l 2,71,72
 1187 629 1187 629 1181 664.5 c 128,-1,73
 1175 700 1175 700 1229 729 c 1,74,75
 1354 810 1354 810 1359 840 c 0,76,77
 1364 885 1364 885 1333 946 c 128,-1,78
 1302 1007 1302 1007 1307 1056 c 1,79,80
 1317 1102 1317 1102 1343.5 1116.5 c 128,-1,81
 1370 1131 1370 1131 1401 1126 c 1,52,53
EndSplineSet
EndChar

StartChar: afii57444
Encoding: 1604 1604 242
Width: 2198
GlyphClass: 2
Flags: W
AnchorPoint: "Anchor-3" 810 -900 basechar 0
AnchorPoint: "Anchor-2" 1815 1455 basechar 0
LayerCount: 2
Fore
SplineSet
2047 1288 m 1,0,1
 2109 1288 2109 1288 2130 1215 c 1,2,-1
 2130 1210 l 1,3,-1
 2133 1004 l 2,4,5
 2140 416 2140 416 2014 213 c 1,6,7
 1962 109 1962 109 1778 -85 c 1,8,9
 1372 -481 1372 -481 817 -481 c 2,10,-1
 749 -481 l 2,11,12
 402 -481 402 -481 186 -321 c 1,13,14
 31 -190 31 -190 31 -35 c 2,15,-1
 31 -4 l 2,16,17
 31 171 31 171 224 363 c 1,18,19
 412 528 412 528 581 578 c 0,20,21
 794 644 794 644 929 644 c 0,22,23
 1074 644 1074 644 1098 548 c 1,24,-1
 1101 520 l 1,25,26
 1087 416 1087 416 1005 416 c 0,27,28
 951 416 951 416 939 472 c 1,29,-1
 934 472 l 2,30,31
 784 472 784 472 556 386 c 1,32,33
 176 195 176 195 176 -40 c 0,34,35
 176 -214 176 -214 439 -301 c 0,36,37
 548 -334 548 -334 705 -334 c 2,38,-1
 708 -334 l 2,39,40
 1545 -334 1545 -334 1874 312 c 1,41,42
 1961 457 1961 457 1961 982 c 2,43,-1
 1961 1182 l 1,44,-1
 1958 1205 l 1,45,46
 1958 1261 1958 1261 2024 1286 c 1,47,-1
 2047 1288 l 1,0,1
EndSplineSet
Substitution2: "'medi' Medial Forms in Arabic lookup 3 subtable" afii62818
Substitution2: "'fina' Terminal Forms in Arabic lookup 2 subtable" afii62819
Substitution2: "'init' Initial Forms in Arabic lookup 1 subtable" afii62817
EndChar

StartChar: afii62817
Encoding: 65247 65247 243
Width: 400
GlyphClass: 2
Flags: W
AnchorPoint: "Anchor-3" 75 -420 basechar 0
AnchorPoint: "Anchor-2" 210 1200 basechar 0
LayerCount: 2
Fore
SplineSet
12 0 m 1,0,1
 -73 8 -73 8 -73 70 c 2,2,-1
 -73 93 l 2,3,4
 -73 155 -73 155 12 155 c 0,5,6
 112 155 112 155 146.5 262.5 c 128,-1,7
 181 370 181 370 167.5 526.5 c 128,-1,8
 154 683 154 683 141 798.5 c 128,-1,9
 128 914 128 914 154 942.5 c 128,-1,10
 180 971 180 971 226 959.5 c 128,-1,11
 272 948 272 948 293 812.5 c 128,-1,12
 314 677 314 677 318 459.5 c 128,-1,13
 322 242 322 242 254.5 127 c 128,-1,14
 187 12 187 12 12 0 c 1,0,1
EndSplineSet
EndChar

StartChar: afii62818
Encoding: 65248 65248 244
Width: 343
GlyphClass: 2
Flags: W
AnchorPoint: "Anchor-3" 195 -435 basechar 0
AnchorPoint: "Anchor-2" 255 1155 basechar 0
LayerCount: 2
Fore
SplineSet
12 0 m 1,0,1
 -73 8 -73 8 -73 70 c 2,2,-1
 -73 93 l 2,3,4
 -73 155 -73 155 12 155 c 0,5,6
 112 155 112 155 140.5 289 c 128,-1,7
 169 423 169 423 177.5 539 c 128,-1,8
 186 655 186 655 192.5 790.5 c 128,-1,9
 199 926 199 926 233.5 959.5 c 128,-1,10
 268 993 268 993 305 963.5 c 128,-1,11
 342 934 342 934 338 802 c 128,-1,12
 334 670 334 670 321 522 c 128,-1,13
 308 374 308 374 284 276 c 1,14,15
 282 157 282 157 329 155 c 128,-1,16
 376 153 376 153 390 128 c 128,-1,17
 404 103 404 103 399 67 c 128,-1,18
 394 31 394 31 364 11 c 128,-1,19
 334 -9 334 -9 285 14 c 0,20,21
 244 33 244 33 205 88 c 1,22,23
 139 8 139 8 12 0 c 1,0,1
EndSplineSet
EndChar

StartChar: afii57445
Encoding: 1605 1605 245
Width: 1500
GlyphClass: 2
Flags: W
AnchorPoint: "Anchor-3" 510 -1005 basechar 0
AnchorPoint: "Anchor-2" 1080 930 basechar 0
LayerCount: 2
Fore
SplineSet
1157 728 m 0,0,1
 1325 728 1325 728 1426 578 c 1,2,3
 1480 488 1480 488 1480 380 c 0,4,5
 1480 193 1480 193 1273 55 c 1,6,7
 1175 3 1175 3 1108 3 c 2,8,-1
 1080 3 l 2,9,10
 972 3 972 3 882 104 c 1,11,12
 814 190 814 190 814 313 c 2,13,-1
 814 318 l 2,14,15
 814 420 814 420 933 568 c 1,16,-1
 933 570 l 1,17,18
 811 535 811 535 705 488 c 0,19,20
 579 431 579 431 455 344 c 1,21,22
 227 167 227 167 227 -7 c 0,23,24
 227 -261 227 -261 458 -504 c 0,25,26
 477 -525 477 -525 477 -551 c 2,27,-1
 477 -566 l 2,28,29
 477 -625 477 -625 413 -645 c 1,30,-1
 397 -646 l 2,31,32
 352 -646 352 -646 312 -587 c 1,33,34
 144 -383 144 -383 93 -149 c 0,35,36
 74 -51 74 -51 74 12 c 0,37,38
 74 341 74 341 554 575 c 1,39,40
 903 728 903 728 1157 728 c 0,0,1
971 312 m 2,41,-1
 971 300 l 2,42,43
 971 182 971 182 1083 140 c 1,44,-1
 1116 135 l 1,45,46
 1190 135 1190 135 1286 237 c 1,47,48
 1347 318 1347 318 1347 385 c 0,49,50
 1347 467 1347 467 1249 545 c 1,51,52
 1210 564 1210 564 1194 564 c 0,53,54
 1133 564 1133 564 1020 434 c 1,55,56
 971 362 971 362 971 312 c 2,41,-1
EndSplineSet
Substitution2: "'medi' Medial Forms in Arabic lookup 3 subtable" afii62821
Substitution2: "'fina' Terminal Forms in Arabic lookup 2 subtable" afii62822
Substitution2: "'init' Initial Forms in Arabic lookup 1 subtable" afii62820
EndChar

StartChar: afii62822
Encoding: 65250 65250 246
Width: 1458
GlyphClass: 2
Flags: W
AnchorPoint: "Anchor-3" 690 -885 basechar 0
AnchorPoint: "Anchor-2" 750 930 basechar 0
LayerCount: 2
Fore
SplineSet
1465 154 m 0,0,1
 1504 145 1504 145 1519.5 109.5 c 128,-1,2
 1535 74 1535 74 1522.5 42 c 128,-1,3
 1510 10 1510 10 1484.5 1.5 c 128,-1,4
 1459 -7 1459 -7 1406 12 c 0,5,6
 1358 31 1358 31 1330 94 c 1,7,8
 1305 74 1305 74 1277 55 c 0,9,10
 1179 3 1179 3 1112 3 c 2,11,-1
 1084 3 l 2,12,13
 976 3 976 3 886 104 c 1,14,15
 818 190 818 190 818 313 c 2,16,-1
 818 318 l 2,17,18
 818 420 818 420 937 568 c 1,19,-1
 937 570 l 1,20,21
 815 535 815 535 709 488 c 0,22,23
 583 431 583 431 459 344 c 1,24,25
 231 167 231 167 231 -7 c 0,26,27
 231 -261 231 -261 462 -504 c 0,28,29
 481 -525 481 -525 481 -551 c 2,30,-1
 481 -566 l 2,31,32
 481 -625 481 -625 417 -645 c 1,33,-1
 401 -646 l 2,34,35
 356 -646 356 -646 316 -587 c 1,36,37
 148 -383 148 -383 97 -149 c 0,38,39
 78 -51 78 -51 78 12 c 0,40,41
 78 341 78 341 558 575 c 1,42,43
 907 728 907 728 1161 728 c 0,44,45
 1329 728 1329 728 1430 578 c 1,46,47
 1484 488 1484 488 1484 380 c 0,48,49
 1484 294 1484 294 1440 218 c 1,50,51
 1437 160 1437 160 1465 154 c 0,0,1
975 312 m 2,52,-1
 975 300 l 2,53,54
 975 182 975 182 1087 140 c 1,55,-1
 1120 135 l 1,56,57
 1194 135 1194 135 1290 237 c 1,58,59
 1351 318 1351 318 1351 385 c 0,60,61
 1351 467 1351 467 1253 545 c 1,62,63
 1214 564 1214 564 1198 564 c 0,64,65
 1137 564 1137 564 1024 434 c 1,66,67
 975 362 975 362 975 312 c 2,52,-1
EndSplineSet
EndChar

StartChar: afii62820
Encoding: 65251 65251 247
Width: 706
GlyphClass: 2
Flags: W
AnchorPoint: "Anchor-3" 255 -495 basechar 0
AnchorPoint: "Anchor-2" 420 840 basechar 0
LayerCount: 2
Fore
SplineSet
447 567 m 2,0,-1
 452 567 l 2,1,2
 516 567 516 567 558.5 504 c 128,-1,3
 601 441 601 441 597.5 321.5 c 128,-1,4
 594 202 594 202 531 101 c 128,-1,5
 468 0 468 0 328 -3 c 1,6,7
 204 7 204 7 157 99 c 1,8,9
 65 -11 65 -11 -12 1 c 1,10,11
 -75 18 -75 18 -77.5 72.5 c 128,-1,12
 -80 127 -80 127 -48 140.5 c 128,-1,13
 -16 154 -16 154 21.5 158.5 c 128,-1,14
 59 163 59 163 104 226 c 128,-1,15
 149 289 149 289 244 428 c 128,-1,16
 339 567 339 567 447 567 c 2,0,-1
250 195 m 1,17,18
 262 162 262 162 319 147 c 128,-1,19
 376 132 376 132 430.5 183.5 c 128,-1,20
 485 235 485 235 481.5 300.5 c 128,-1,21
 478 366 478 366 436 384 c 128,-1,22
 394 402 394 402 327 312 c 128,-1,23
 260 222 260 222 250 195 c 1,17,18
EndSplineSet
EndChar

StartChar: afii57446
Encoding: 1606 1606 248
Width: 2442
GlyphClass: 2
Flags: W
AnchorPoint: "Anchor-3" 1125 -1005 basechar 0
AnchorPoint: "Anchor-2" 1575 1305 basechar 0
LayerCount: 2
Fore
SplineSet
2268 982 m 2,0,-1
 2290 982 l 2,1,2
 2355 982 2355 982 2364 883 c 1,3,4
 2403 640 2403 640 2403 461 c 0,5,6
 2403 214 2403 214 2318 103 c 1,7,8
 2157 -127 2157 -127 1932 -251 c 1,9,10
 1507 -509 1507 -509 1032 -509 c 0,11,12
 576 -509 576 -509 202 -261 c 1,13,14
 18 -110 18 -110 18 71 c 0,15,16
 18 338 18 338 355 585 c 1,17,18
 840 889 840 889 1216 939 c 1,19,20
 1290 926 1290 926 1290 869 c 2,21,-1
 1290 847 l 2,22,23
 1290 784 1290 784 1138 766 c 1,24,25
 1083 766 1083 766 787 652 c 1,26,27
 537 531 537 531 348 383 c 1,28,29
 174 212 174 212 174 75 c 0,30,31
 174 -79 174 -79 351 -219 c 1,32,33
 605 -375 605 -375 954 -375 c 2,34,-1
 993 -375 l 2,35,36
 1587 -375 1587 -375 2049 7 c 1,37,38
 2203 158 2203 158 2233 284 c 0,39,40
 2247 352 2247 352 2247 468 c 0,41,42
 2247 611 2247 611 2205 915 c 1,43,-1
 2205 918 l 1,44,45
 2226 982 2226 982 2268 982 c 2,0,-1
1545 412 m 1,46,47
 1618 412 1618 412 1669 316 c 1,48,-1
 1669 296 l 2,49,50
 1669 247 1669 247 1581 228 c 1,51,-1
 1561 228 l 2,52,53
 1485 228 1485 228 1469 344 c 1,54,55
 1469 402 1469 402 1545 412 c 1,46,47
EndSplineSet
Substitution2: "'medi' Medial Forms in Arabic lookup 3 subtable" afii62824
Substitution2: "'fina' Terminal Forms in Arabic lookup 2 subtable" afii62825
Substitution2: "'init' Initial Forms in Arabic lookup 1 subtable" afii62823
EndChar

StartChar: afii62825
Encoding: 65254 65254 249
Width: 2481
GlyphClass: 2
Flags: W
AnchorPoint: "Anchor-3" 1035 -960 basechar 0
AnchorPoint: "Anchor-2" 1695 975 basechar 0
LayerCount: 2
Fore
SplineSet
2365 731 m 2,0,1
 2430 730 2430 730 2436 632 c 0,2,3
 2440 540 2440 540 2401 323 c 1,4,5
 2398 262 2398 262 2403 236 c 0,6,7
 2413 183 2413 183 2481 155 c 1,8,9
 2530 150 2530 150 2549 114.5 c 128,-1,10
 2568 79 2568 79 2557.5 49 c 128,-1,11
 2547 19 2547 19 2514 5 c 128,-1,12
 2481 -9 2481 -9 2416 14 c 0,13,14
 2355 35 2355 35 2312 92 c 1,15,16
 2151 -136 2151 -136 1927 -260 c 1,17,18
 1502 -518 1502 -518 1027 -518 c 0,19,20
 571 -518 571 -518 197 -270 c 1,21,22
 13 -119 13 -119 13 62 c 0,23,24
 13 329 13 329 350 576 c 1,25,26
 835 880 835 880 1211 930 c 1,27,28
 1285 917 1285 917 1285 860 c 2,29,-1
 1285 838 l 2,30,31
 1285 775 1285 775 1133 757 c 1,32,33
 1078 757 1078 757 782 643 c 1,34,35
 532 522 532 522 343 374 c 1,36,37
 169 203 169 203 169 66 c 0,38,39
 169 -88 169 -88 346 -228 c 1,40,41
 600 -384 600 -384 949 -384 c 2,42,-1
 988 -384 l 2,43,44
 1582 -384 1582 -384 2044 -2 c 1,45,46
 2198 149 2198 149 2228 275 c 0,47,48
 2240 334 2240 334 2248 386.5 c 128,-1,49
 2256 439 2256 439 2255 454 c 0,50,51
 2254 613 2254 613 2282 673 c 1,52,53
 2303 731 2303 731 2343 731 c 2,54,-1
 2365 731 l 2,0,1
1496 434 m 1,55,56
 1569 434 1569 434 1620 338 c 1,57,-1
 1620 318 l 2,58,59
 1620 269 1620 269 1532 250 c 1,60,-1
 1512 250 l 2,61,62
 1436 250 1436 250 1420 366 c 1,63,64
 1420 425 1420 425 1496 434 c 1,55,56
EndSplineSet
EndChar

StartChar: afii62828
Encoding: 65258 65258 253
Width: 906
GlyphClass: 2
Flags: W
AnchorPoint: "Anchor-3" 495 -540 basechar 0
AnchorPoint: "Anchor-2" 525 720 basechar 0
LayerCount: 2
Fore
SplineSet
634 488 m 0,0,1
 812 488 812 488 867 358 c 0,2,3
 882 319 882 319 890 189 c 0,4,5
 895 156 895 156 919 156 c 1,6,7
 985 141 985 141 985 76.5 c 128,-1,8
 985 12 985 12 912 0 c 1,9,-1
 856 1 l 2,10,11
 774 1 774 1 749 54 c 1,12,13
 726 82 726 82 712 280 c 1,14,15
 697 338 697 338 626 340 c 0,16,17
 469 340 469 340 247 97 c 1,18,19
 170 -1 170 -1 157 -48 c 1,20,-1
 160 -48 l 1,21,-1
 195 -43 l 1,22,-1
 202 -43 l 1,23,24
 283 -55 283 -55 283 -121 c 1,25,-1
 285 -124 l 1,26,-1
 285 -126 l 2,27,28
 285 -221 285 -221 135 -221 c 0,29,30
 16 -221 16 -221 -13 -119 c 1,31,-1
 -16 -93 l 1,32,-1
 -16 -71 l 2,33,34
 -16 69 -16 69 252 313 c 1,35,36
 465 488 465 488 634 488 c 0,0,1
EndSplineSet
EndChar

StartChar: afii57448
Encoding: 1608 1608 254
Width: 555
GlyphClass: 2
Flags: W
AnchorPoint: "Anchor-3" -15 -945 basechar 0
AnchorPoint: "Anchor-2" 315 795 basechar 0
LayerCount: 2
Fore
SplineSet
482 585 m 0,0,1
 569 577 569 577 596 469 c 1,2,3
 600 431 600 431 597 400 c 0,4,5
 579 193 579 193 370 -109 c 0,6,7
 303 -205 303 -205 130 -363 c 0,8,9
 -47 -524 -47 -524 -97 -538 c 1,10,-1
 -112 -537 l 2,11,12
 -149 -534 -149 -534 -171 -485 c 0,13,14
 -178 -472 -178 -472 -176 -452 c 2,15,-1
 -175 -448 l 1,16,17
 -170 -391 -170 -391 -99 -348 c 1,18,19
 -23 -283 -23 -283 66 -198 c 0,20,21
 192 -78 192 -78 243 1 c 1,22,23
 112 57 112 57 123 182 c 0,24,25
 136 322 136 322 321 520 c 1,26,27
 406 592 406 592 482 585 c 0,0,1
325 144 m 1,28,29
 351 162 351 162 409 310 c 1,30,-1
 428 390 l 1,31,32
 337 301 337 301 295 194 c 1,33,34
 289 154 289 154 325 144 c 1,28,29
EndSplineSet
Substitution2: "'fina' Terminal Forms in Arabic lookup 2 subtable" afii62829
PairPos2: "'kern' Horizontal Kerning in Arabic lookup 0 subtable" uniFBFE dx=0 dy=0 dh=0 dv=0 dx=0 dy=0 dh=200 dv=0
PairPos2: "'kern' Horizontal Kerning in Arabic lookup 0 subtable" afii62831 dx=0 dy=0 dh=0 dv=0 dx=0 dy=0 dh=200 dv=0
PairPos2: "'kern' Horizontal Kerning in Arabic lookup 0 subtable" afii62817 dx=0 dy=0 dh=0 dv=0 dx=0 dy=0 dh=50 dv=0
PairPos2: "'kern' Horizontal Kerning in Arabic lookup 0 subtable" afii57443 dx=0 dy=0 dh=0 dv=0 dx=0 dy=0 dh=50 dv=0
PairPos2: "'kern' Horizontal Kerning in Arabic lookup 0 subtable" afii57441 dx=0 dy=0 dh=0 dv=0 dx=0 dy=0 dh=100 dv=0
PairPos2: "'kern' Horizontal Kerning in Arabic lookup 0 subtable" afii57422 dx=0 dy=0 dh=0 dv=0 dx=0 dy=0 dh=60 dv=0
PairPos2: "'kern' Horizontal Kerning in Arabic lookup 0 subtable" afii57421 dx=0 dy=0 dh=0 dv=0 dx=0 dy=0 dh=60 dv=0
PairPos2: "'kern' Horizontal Kerning in Arabic lookup 0 subtable" afii57420 dx=0 dy=0 dh=0 dv=0 dx=0 dy=0 dh=60 dv=0
PairPos2: "'kern' Horizontal Kerning in Arabic lookup 0 subtable" afii57419 dx=0 dy=0 dh=0 dv=0 dx=0 dy=0 dh=100 dv=0
PairPos2: "'kern' Horizontal Kerning in Arabic lookup 0 subtable" afii57418 dx=0 dy=0 dh=0 dv=0 dx=0 dy=0 dh=100 dv=0
PairPos2: "'kern' Horizontal Kerning in Arabic lookup 0 subtable" afii62761 dx=0 dy=0 dh=0 dv=0 dx=0 dy=0 dh=200 dv=0
PairPos2: "'kern' Horizontal Kerning in Arabic lookup 0 subtable" afii57416 dx=0 dy=0 dh=0 dv=0 dx=0 dy=0 dh=100 dv=0
PairPos2: "'kern' Horizontal Kerning in Arabic lookup 0 subtable" afii57413 dx=0 dy=0 dh=0 dv=0 dx=0 dy=0 dh=100 dv=0
PairPos2: "'kern' Horizontal Kerning in Arabic lookup 0 subtable" afii57509 dx=0 dy=0 dh=0 dv=0 dx=0 dy=0 dh=100 dv=0
PairPos2: "'kern' Horizontal Kerning in Arabic lookup 0 subtable" afii57567 dx=0 dy=0 dh=0 dv=0 dx=0 dy=0 dh=100 dv=0
PairPos2: "'kern' Horizontal Kerning in Arabic lookup 0 subtable" afii57507 dx=0 dy=0 dh=0 dv=0 dx=0 dy=0 dh=60 dv=0
PairPos2: "'kern' Horizontal Kerning in Arabic lookup 0 subtable" afii57505 dx=0 dy=0 dh=0 dv=0 dx=0 dy=0 dh=100 dv=0
PairPos2: "'kern' Horizontal Kerning in Arabic lookup 0 subtable" afii62956 dx=0 dy=0 dh=0 dv=0 dx=0 dy=0 dh=200 dv=0
PairPos2: "'kern' Horizontal Kerning in Arabic lookup 0 subtable" afii57506 dx=0 dy=0 dh=0 dv=0 dx=0 dy=0 dh=100 dv=0
EndChar

StartChar: afii62829
Encoding: 65262 65262 255
Width: 589
GlyphClass: 2
Flags: W
AnchorPoint: "Anchor-3" -60 -930 basechar 0
AnchorPoint: "Anchor-2" 375 840 basechar 0
LayerCount: 2
Fore
SplineSet
496 585 m 0,0,1
 583 577 583 577 610 469 c 1,2,3
 614 431 614 431 611 400 c 0,4,5
 602 295 602 295 553 158 c 1,6,7
 570 158 570 158 590 156 c 0,8,9
 639 151 639 151 653.5 119.5 c 128,-1,10
 668 88 668 88 657.5 55 c 128,-1,11
 647 22 647 22 614 8.5 c 128,-1,12
 581 -5 581 -5 465 -1 c 0,13,14
 459 -1 459 -1 454 -1 c 1,15,16
 422 -53 422 -53 384 -109 c 0,17,18
 317 -205 317 -205 144 -363 c 0,19,20
 -33 -524 -33 -524 -83 -538 c 1,21,-1
 -98 -537 l 2,22,23
 -135 -534 -135 -534 -157 -485 c 0,24,25
 -164 -472 -164 -472 -162 -452 c 2,26,-1
 -161 -448 l 1,27,28
 -156 -391 -156 -391 -85 -348 c 1,29,30
 -9 -283 -9 -283 80 -198 c 0,31,32
 206 -78 206 -78 267 21 c 1,33,34
 137 75 137 75 151 194 c 1,35,36
 150 322 150 322 335 520 c 1,37,38
 420 592 420 592 496 585 c 0,0,1
362 171 m 1,39,40
 388 189 388 189 442 390 c 1,41,42
 349 301 349 301 326.5 240.5 c 128,-1,43
 304 180 304 180 362 171 c 1,39,40
EndSplineSet
PairPos2: "'kern' Horizontal Kerning in Arabic lookup 0 subtable" uniFBFE dx=0 dy=0 dh=0 dv=0 dx=0 dy=0 dh=200 dv=0
PairPos2: "'kern' Horizontal Kerning in Arabic lookup 0 subtable" afii62831 dx=0 dy=0 dh=0 dv=0 dx=0 dy=0 dh=200 dv=0
PairPos2: "'kern' Horizontal Kerning in Arabic lookup 0 subtable" afii62817 dx=0 dy=0 dh=0 dv=0 dx=0 dy=0 dh=70 dv=0
PairPos2: "'kern' Horizontal Kerning in Arabic lookup 0 subtable" afii57443 dx=0 dy=0 dh=0 dv=0 dx=0 dy=0 dh=70 dv=0
PairPos2: "'kern' Horizontal Kerning in Arabic lookup 0 subtable" afii57441 dx=0 dy=0 dh=0 dv=0 dx=0 dy=0 dh=100 dv=0
PairPos2: "'kern' Horizontal Kerning in Arabic lookup 0 subtable" afii57419 dx=0 dy=0 dh=0 dv=0 dx=0 dy=0 dh=100 dv=0
PairPos2: "'kern' Horizontal Kerning in Arabic lookup 0 subtable" afii57418 dx=0 dy=0 dh=0 dv=0 dx=0 dy=0 dh=100 dv=0
PairPos2: "'kern' Horizontal Kerning in Arabic lookup 0 subtable" afii62761 dx=0 dy=0 dh=0 dv=0 dx=0 dy=0 dh=200 dv=0
PairPos2: "'kern' Horizontal Kerning in Arabic lookup 0 subtable" afii57416 dx=0 dy=0 dh=0 dv=0 dx=0 dy=0 dh=100 dv=0
PairPos2: "'kern' Horizontal Kerning in Arabic lookup 0 subtable" afii57413 dx=0 dy=0 dh=0 dv=0 dx=0 dy=0 dh=100 dv=0
PairPos2: "'kern' Horizontal Kerning in Arabic lookup 0 subtable" afii57509 dx=0 dy=0 dh=0 dv=0 dx=0 dy=0 dh=100 dv=0
PairPos2: "'kern' Horizontal Kerning in Arabic lookup 0 subtable" afii57567 dx=0 dy=0 dh=0 dv=0 dx=0 dy=0 dh=100 dv=0
PairPos2: "'kern' Horizontal Kerning in Arabic lookup 0 subtable" afii57505 dx=0 dy=0 dh=0 dv=0 dx=0 dy=0 dh=100 dv=0
PairPos2: "'kern' Horizontal Kerning in Arabic lookup 0 subtable" afii62956 dx=0 dy=0 dh=0 dv=0 dx=0 dy=0 dh=200 dv=0
PairPos2: "'kern' Horizontal Kerning in Arabic lookup 0 subtable" afii57506 dx=0 dy=0 dh=0 dv=0 dx=0 dy=0 dh=100 dv=0
EndChar

StartChar: afii62840
Encoding: 65275 65275 268
Width: 1145
GlyphClass: 3
Flags: W
AnchorPoint: "Anchor-1" 690 -585 baselig 0
AnchorPoint: "Anchor-0" 1185 1455 baselig 0
AnchorPoint: "Anchor-1" 300 -615 baselig 1
AnchorPoint: "Anchor-0" 255 1260 baselig 1
LayerCount: 2
Fore
SplineSet
1352 1341 m 0,0,1
 1412 1341 1412 1341 1432 1269 c 1,2,-1
 1432 1259 l 2,3,4
 1432 1212 1432 1212 1382 1182 c 1,5,6
 1194 1044 1194 1044 954 833 c 0,7,8
 825 720 825 720 719 600 c 1,9,-1
 719 598 l 1,10,11
 792 502 792 502 870 299.5 c 128,-1,12
 948 97 948 97 831 -91 c 1,13,14
 762 -170 762 -170 718 -189 c 1,15,16
 668 -223 668 -223 594 -254 c 0,17,18
 553 -270 553 -270 494 -270 c 2,19,-1
 487 -270 l 2,20,21
 322 -270 322 -270 276 -152 c 1,22,23
 244 -85 244 -85 244 -7 c 0,24,25
 244 201 244 201 520 583 c 1,26,27
 232 940 232 940 232 980 c 2,28,-1
 232 984 l 2,29,30
 232 1031 232 1031 299 1060 c 1,31,-1
 314 1062 l 1,32,33
 368 1062 368 1062 604 728 c 1,34,-1
 620 711 l 1,35,36
 621 716 621 716 685 783 c 0,37,38
 954 1050 954 1050 1100 1165 c 1,39,40
 1256 1297 1256 1297 1319 1335 c 1,41,42
 1337 1341 1337 1341 1352 1341 c 0,0,1
615 478 m 1,43,44
 417 185 417 185 398 14 c 1,45,-1
 398 -4 l 2,46,47
 398 -81 398 -81 453 -113 c 1,48,-1
 502 -120 l 1,49,50
 585 -120 585 -120 672 -37 c 1,51,52
 719 16 719 16 733 85 c 0,53,54
 742 138 742 138 742 159 c 0,55,56
 742 303 742 303 617 478 c 1,57,-1
 615 478 l 1,43,44
EndSplineSet
Ligature2: "'rlig' Required Ligatures in Arabic lookup 6 subtable" afii62817 afii62760
Substitution2: "'fina' Terminal Forms in Arabic lookup 2 subtable" afii62841
PairPos2: "'kern' Horizontal Kerning in Arabic lookup 0 subtable" afii62817 dx=0 dy=0 dh=0 dv=0 dx=0 dy=0 dh=100 dv=0
PairPos2: "'kern' Horizontal Kerning in Arabic lookup 0 subtable" afii57410 dx=0 dy=0 dh=0 dv=0 dx=0 dy=0 dh=350 dv=0
PairPos2: "'kern' Horizontal Kerning in Arabic lookup 0 subtable" afii57443 dx=0 dy=0 dh=0 dv=0 dx=0 dy=0 dh=100 dv=0
PairPos2: "'kern' Horizontal Kerning in Arabic lookup 0 subtable" afii57434 dx=0 dy=0 dh=0 dv=0 dx=0 dy=0 dh=-100 dv=0
PairPos2: "'kern' Horizontal Kerning in Arabic lookup 0 subtable" afii57433 dx=0 dy=0 dh=0 dv=0 dx=0 dy=0 dh=-100 dv=0
PairPos2: "'kern' Horizontal Kerning in Arabic lookup 0 subtable" afii57422 dx=0 dy=0 dh=0 dv=0 dx=0 dy=0 dh=-100 dv=0
PairPos2: "'kern' Horizontal Kerning in Arabic lookup 0 subtable" afii57421 dx=0 dy=0 dh=0 dv=0 dx=0 dy=0 dh=-100 dv=0
PairPos2: "'kern' Horizontal Kerning in Arabic lookup 0 subtable" afii57420 dx=0 dy=0 dh=0 dv=0 dx=0 dy=0 dh=-100 dv=0
PairPos2: "'kern' Horizontal Kerning in Arabic lookup 0 subtable" afii62965 dx=0 dy=0 dh=0 dv=0 dx=0 dy=0 dh=350 dv=0
PairPos2: "'kern' Horizontal Kerning in Arabic lookup 0 subtable" afii57509 dx=0 dy=0 dh=0 dv=0 dx=0 dy=0 dh=450 dv=0
PairPos2: "'kern' Horizontal Kerning in Arabic lookup 0 subtable" afii52305 dx=0 dy=0 dh=0 dv=0 dx=0 dy=0 dh=350 dv=0
PairPos2: "'kern' Horizontal Kerning in Arabic lookup 0 subtable" afii57567 dx=0 dy=0 dh=0 dv=0 dx=0 dy=0 dh=450 dv=0
PairPos2: "'kern' Horizontal Kerning in Arabic lookup 0 subtable" afii57507 dx=0 dy=0 dh=0 dv=0 dx=0 dy=0 dh=-100 dv=0
EndChar

StartChar: afii62841
Encoding: 65276 65276 269
Width: 934
GlyphClass: 3
Flags: W
AnchorPoint: "Anchor-1" 660 -450 baselig 0
AnchorPoint: "Anchor-0" 690 1200 baselig 0
AnchorPoint: "Anchor-1" -45 -675 baselig 1
AnchorPoint: "Anchor-0" 270 1095 baselig 1
LayerCount: 2
Fore
SplineSet
938 -3 m 1,0,1
 794 19 794 19 743 145 c 1,2,3
 669 18 669 18 584 -85 c 0,4,5
 467 -224 467 -224 350 -224 c 2,6,-1
 332 -224 l 2,7,8
 264 -224 264 -224 216 -176 c 1,9,10
 153 -282 153 -282 105 -333 c 128,-1,11
 57 -384 57 -384 18 -384 c 0,12,13
 -41 -384 -41 -384 -63 -319 c 1,14,-1
 -65 -303 l 1,15,-1
 -65 -295 l 2,16,17
 -65 -255 -65 -255 -15 -219 c 1,18,19
 79 -127 79 -127 156 -10.5 c 128,-1,20
 233 106 233 106 286 286 c 1,21,22
 338 509 338 509 354 636 c 1,23,24
 381 709 381 709 438 709 c 0,25,26
 503 709 503 709 521 644 c 1,27,-1
 523 626 l 1,28,29
 494 395 494 395 428 170 c 1,30,-1
 342 -54 l 1,31,-1
 342 -59 l 1,32,-1
 365 -62 l 1,33,34
 482 -62 482 -62 619 226 c 1,35,36
 701 420 701 420 716.5 560.5 c 128,-1,37
 732 701 732 701 736 827 c 128,-1,38
 740 953 740 953 819 953 c 2,39,-1
 835 953 l 2,40,41
 883 953 883 953 913 895 c 0,42,43
 920 879 920 879 920 862 c 2,44,-1
 920 846 l 2,45,46
 920 754 920 754 855 357 c 1,47,-1
 853 330 l 1,48,49
 859 194 859 194 934 157 c 1,50,51
 1025 147 1025 147 1014 64.5 c 128,-1,52
 1003 -18 1003 -18 938 -3 c 1,0,1
EndSplineSet
Ligature2: "'rlig' Required Ligatures in Arabic lookup 6 subtable" afii62818 afii62760
PairPos2: "'kern' Horizontal Kerning in Arabic lookup 0 subtable" uniFBFE dx=0 dy=0 dh=0 dv=0 dx=0 dy=0 dh=200 dv=0
PairPos2: "'kern' Horizontal Kerning in Arabic lookup 0 subtable" afii62831 dx=0 dy=0 dh=0 dv=0 dx=0 dy=0 dh=200 dv=0
PairPos2: "'kern' Horizontal Kerning in Arabic lookup 0 subtable" afii57448 dx=0 dy=0 dh=0 dv=0 dx=0 dy=0 dh=100 dv=0
PairPos2: "'kern' Horizontal Kerning in Arabic lookup 0 subtable" afii57434 dx=0 dy=0 dh=0 dv=0 dx=0 dy=0 dh=200 dv=0
PairPos2: "'kern' Horizontal Kerning in Arabic lookup 0 subtable" afii57433 dx=0 dy=0 dh=0 dv=0 dx=0 dy=0 dh=200 dv=0
PairPos2: "'kern' Horizontal Kerning in Arabic lookup 0 subtable" afii57426 dx=0 dy=0 dh=0 dv=0 dx=0 dy=0 dh=100 dv=0
PairPos2: "'kern' Horizontal Kerning in Arabic lookup 0 subtable" afii57425 dx=0 dy=0 dh=0 dv=0 dx=0 dy=0 dh=100 dv=0
PairPos2: "'kern' Horizontal Kerning in Arabic lookup 0 subtable" afii62761 dx=0 dy=0 dh=0 dv=0 dx=0 dy=0 dh=200 dv=0
PairPos2: "'kern' Horizontal Kerning in Arabic lookup 0 subtable" afii52399 dx=0 dy=0 dh=0 dv=0 dx=0 dy=0 dh=100 dv=0
PairPos2: "'kern' Horizontal Kerning in Arabic lookup 0 subtable" afii62956 dx=0 dy=0 dh=0 dv=0 dx=0 dy=0 dh=200 dv=0
EndChar

StartChar: afii59759
Encoding: 3663 3663 276
Width: 1233
GlyphClass: 2
Flags: W
LayerCount: 2
Fore
SplineSet
616 983 m 0,0,1
 823 983 823 983 969.5 836.5 c 128,-1,2
 1116 690 1116 690 1116 483 c 0,3,4
 1116 277 1116 277 969.5 130.5 c 128,-1,5
 823 -16 823 -16 616 -16 c 0,6,7
 410 -16 410 -16 263.5 130.5 c 128,-1,8
 117 277 117 277 117 483 c 0,9,10
 117 690 117 690 263.5 836.5 c 128,-1,11
 410 983 410 983 616 983 c 0,0,1
616 147 m 0,12,13
 758 147 758 147 849 242 c 128,-1,14
 940 337 940 337 940 483 c 256,15,16
 940 629 940 629 849 724 c 128,-1,17
 758 819 758 819 616 819 c 0,18,19
 475 819 475 819 384 724 c 128,-1,20
 293 629 293 629 293 483 c 256,21,22
 293 337 293 337 384 242 c 128,-1,23
 475 147 475 147 616 147 c 0,12,13
616 598 m 0,24,25
 664 598 664 598 697.5 565 c 128,-1,26
 731 532 731 532 731 485 c 256,27,28
 731 438 731 438 697.5 404.5 c 128,-1,29
 664 371 664 371 616 371 c 0,30,31
 569 371 569 371 535.5 404.5 c 128,-1,32
 502 438 502 438 502 485 c 256,33,34
 502 532 502 532 535.5 565 c 128,-1,35
 569 598 569 598 616 598 c 0,24,25
EndSplineSet
EndChar

StartChar: afii59760
Encoding: 3664 3664 277
Width: 1233
GlyphClass: 2
Flags: W
LayerCount: 2
Fore
SplineSet
616 924 m 0,0,1
 834 924 834 924 975 794.5 c 128,-1,2
 1116 665 1116 665 1116 453 c 0,3,4
 1116 242 1116 242 975 113 c 128,-1,5
 834 -16 834 -16 616 -16 c 0,6,7
 399 -16 399 -16 258 113 c 128,-1,8
 117 242 117 242 117 453 c 0,9,10
 117 665 117 665 258 794.5 c 128,-1,11
 399 924 399 924 616 924 c 0,0,1
616 150 m 0,12,13
 765 150 765 150 852.5 231 c 128,-1,14
 940 312 940 312 940 453 c 256,15,16
 940 594 940 594 852 677 c 128,-1,17
 764 760 764 760 616 760 c 0,18,19
 469 760 469 760 381 677 c 128,-1,20
 293 594 293 594 293 453 c 0,21,22
 293 310 293 310 381.5 230 c 128,-1,23
 470 150 470 150 616 150 c 0,12,13
EndSplineSet
EndChar

StartChar: glyph279
Encoding: 65559 -1 279
Width: 0
GlyphClass: 2
Flags: W
LayerCount: 2
Fore
SplineSet
36 1831 m 1,0,-1
 36 863 l 1,1,-1
 -36 863 l 1,2,-1
 -36 1831 l 1,3,-1
 36 1831 l 1,0,-1
36 543 m 1,4,-1
 36 -423 l 1,5,-1
 -36 -423 l 1,6,-1
 -36 543 l 1,7,-1
 36 543 l 1,4,-1
EndSplineSet
EndChar

StartChar: glyph280
Encoding: 65560 -1 280
Width: 0
GlyphClass: 2
Flags: W
LayerCount: 2
Fore
SplineSet
-234 -423 m 1,0,-1
 -234 -352 l 1,1,-1
 -36 -352 l 1,2,-1
 -36 1760 l 1,3,-1
 -234 1760 l 1,4,-1
 -234 1831 l 1,5,-1
 234 1831 l 1,6,-1
 234 1760 l 1,7,-1
 36 1760 l 1,8,-1
 36 -352 l 1,9,-1
 234 -352 l 1,10,-1
 234 -423 l 1,11,-1
 -234 -423 l 1,0,-1
EndSplineSet
EndChar

StartChar: glyph281
Encoding: 65561 -1 281
Width: 0
GlyphClass: 2
Flags: W
LayerCount: 2
Fore
SplineSet
224 1646 m 1,0,-1
 36 1504 l 1,1,-1
 36 -423 l 1,2,-1
 -36 -423 l 1,3,-1
 -36 1831 l 1,4,-1
 224 1646 l 1,0,-1
EndSplineSet
EndChar

StartChar: glyph282
Encoding: 65562 -1 282
Width: 0
GlyphClass: 2
Flags: W
LayerCount: 2
Fore
SplineSet
36 1831 m 1,0,-1
 36 -423 l 1,1,-1
 -36 -423 l 1,2,-1
 -36 1504 l 1,3,-1
 -224 1646 l 1,4,-1
 36 1831 l 1,0,-1
EndSplineSet
EndChar

StartChar: glyph283
Encoding: 65563 -1 283
Width: 0
GlyphClass: 2
Flags: W
LayerCount: 2
Fore
SplineSet
36 1831 m 1,0,-1
 36 -352 l 1,1,-1
 234 -352 l 1,2,-1
 234 -423 l 1,3,-1
 -36 -423 l 1,4,-1
 -36 1831 l 1,5,-1
 36 1831 l 1,0,-1
EndSplineSet
EndChar

StartChar: glyph284
Encoding: 65564 -1 284
Width: 0
GlyphClass: 2
Flags: W
LayerCount: 2
Fore
SplineSet
224 1646 m 1,0,-1
 36 1504 l 1,1,-1
 36 -423 l 1,2,-1
 -36 -423 l 1,3,-1
 -36 1504 l 1,4,-1
 -224 1641 l 1,5,-1
 0 1831 l 1,6,-1
 224 1646 l 1,0,-1
EndSplineSet
EndChar

StartChar: uni0670
Encoding: 1648 1648 297
Width: 0
GlyphClass: 4
Flags: W
AnchorPoint: "Anchor-2" 0 0 mark 0
AnchorPoint: "Anchor-0" 0 0 mark 0
LayerCount: 2
Fore
SplineSet
-22 -1 m 1,0,1
 -10 168 -10 168 -24 345 c 1,2,3
 -10 393 -10 393 12.5 418.5 c 128,-1,4
 35 444 35 444 40 430 c 1,5,6
 59 114 59 114 -22 -1 c 1,0,1
EndSplineSet
EndChar

StartChar: glyph298
Encoding: 65565 -1 298
Width: 458
GlyphClass: 2
Flags: W
LayerCount: 2
Fore
SplineSet
235 1433 m 2,0,1
 266 1457 266 1457 294 1461.5 c 128,-1,2
 322 1466 322 1466 343 1455 c 128,-1,3
 364 1444 364 1444 377 1419 c 128,-1,4
 390 1394 390 1394 390 1357 c 2,5,-1
 389 1277 l 1,6,-1
 69 1277 l 1,7,-1
 69 1335 l 1,8,-1
 123 1335 l 1,9,-1
 235 1433 l 2,0,1
203 1335 m 1,10,-1
 331 1335 l 1,11,-1
 331 1365 l 2,12,13
 329 1394 329 1394 311 1402 c 128,-1,14
 293 1410 293 1410 263 1388 c 2,15,-1
 203 1335 l 1,10,-1
EndSplineSet
EndChar

StartChar: glyph299
Encoding: 65566 -1 299
Width: 2696
GlyphClass: 2
Flags: W
LayerCount: 2
Fore
SplineSet
1708 1294 m 1,0,1
 2069 1286 2069 1286 2069 1272 c 1,2,3
 2114 1246 2114 1246 2114 1195 c 0,4,5
 2114 1142 2114 1142 2052 1119 c 1,6,-1
 2038 1117 l 1,7,8
 1808 1130 1808 1130 1701 1130 c 0,9,10
 1217 1130 1217 1130 799 937 c 1,11,12
 632 865 632 865 475 756 c 1,13,14
 290 621 290 621 235 449 c 1,15,16
 216 372 216 372 216 301 c 0,17,18
 216 100 216 100 464 -86 c 1,19,20
 733 -264 733 -264 1080 -264 c 2,21,-1
 1102 -264 l 2,22,23
 1485 -264 1485 -264 1906 -67 c 0,24,25
 2010 -14 2010 -14 2112 62 c 1,26,27
 2208 144 2208 144 2253 206 c 2,28,-1
 2300 273 l 1,29,-1
 2300 275 l 1,30,-1
 2298 275 l 2,31,32
 2158 275 2158 275 2103 407 c 0,33,34
 2088 447 2088 447 2088 492 c 2,35,-1
 2088 505 l 2,36,37
 2088 678 2088 678 2242 769 c 1,38,39
 2299 794 2299 794 2345 794 c 2,40,-1
 2354 794 l 2,41,42
 2480 794 2480 794 2542 658 c 1,43,44
 2560 607 2560 607 2560 546 c 0,45,46
 2560 410 2560 410 2458 215 c 0,47,48
 2411 125 2411 125 2291 1 c 1,49,50
 2177 -104 2177 -104 2079 -158 c 1,51,52
 1975 -222 1975 -222 1786 -289 c 1,53,54
 1476 -389 1476 -389 1163 -389 c 0,55,56
 664 -389 664 -389 306 -123 c 1,57,58
 62 81 62 81 62 291 c 2,59,-1
 62 319 l 2,60,61
 62 431 62 431 123 582 c 0,62,63
 160 670 160 670 272 792 c 1,64,65
 418 926 418 926 518 976 c 1,66,67
 690 1081 690 1081 947 1171 c 0,68,69
 1292 1294 1292 1294 1708 1294 c 1,0,1
2252 502 m 2,70,-1
 2252 492 l 2,71,72
 2252 451 2252 451 2281 438 c 0,73,74
 2315 422 2315 422 2341 422 c 2,75,-1
 2345 422 l 2,76,77
 2392 422 2392 422 2404 544 c 1,78,-1
 2406 559 l 1,79,80
 2397 630 2397 630 2345 630 c 0,81,82
 2290 630 2290 630 2259 552 c 0,83,84
 2252 528 2252 528 2252 502 c 2,70,-1
EndSplineSet
EndChar

StartChar: uni06DD
Encoding: 1757 1757 388
Width: 2300
GlyphClass: 2
Flags: W
LayerCount: 2
Fore
SplineSet
2250 715 m 256,0,1
 2250 469 2250 469 2146 249 c 0,2,3
 2046 35 2046 35 1867 -119 c 1,4,5
 1870 -133 1870 -133 1870 -148 c 0,6,7
 1870 -203 1870 -203 1831 -241.5 c 128,-1,8
 1792 -280 1792 -280 1737 -280 c 0,9,10
 1697 -280 1697 -280 1664 -258 c 1,11,12
 1424 -385 1424 -385 1149 -385 c 0,13,14
 876 -385 876 -385 636 -258 c 1,15,16
 603 -280 603 -280 563 -280 c 0,17,18
 508 -280 508 -280 469 -241.5 c 128,-1,19
 430 -203 430 -203 430 -148 c 0,20,21
 430 -133 430 -133 433 -119 c 1,22,23
 254 35 254 35 154 249 c 0,24,25
 50 469 50 469 50 715 c 256,26,27
 50 961 50 961 154 1181 c 0,28,29
 254 1394 254 1394 433 1548 c 1,30,31
 430 1562 430 1562 430 1577 c 0,32,33
 430 1632 430 1632 469 1670.5 c 128,-1,34
 508 1709 508 1709 563 1709 c 0,35,36
 603 1709 603 1709 636 1687 c 1,37,38
 876 1814 876 1814 1151 1814 c 0,39,40
 1424 1814 1424 1814 1664 1687 c 1,41,42
 1697 1709 1697 1709 1737 1709 c 0,43,44
 1792 1709 1792 1709 1831 1670.5 c 128,-1,45
 1870 1632 1870 1632 1870 1577 c 0,46,47
 1870 1562 1870 1562 1867 1548 c 1,48,49
 2046 1394 2046 1394 2146 1181 c 0,50,51
 2250 961 2250 961 2250 715 c 256,0,1
1816 1576 m 0,52,53
 1816 1609 1816 1609 1793 1632 c 128,-1,54
 1770 1655 1770 1655 1738 1655 c 256,55,56
 1706 1655 1706 1655 1682.5 1631.5 c 128,-1,57
 1659 1608 1659 1608 1659 1576 c 256,58,59
 1659 1544 1659 1544 1682 1521 c 128,-1,60
 1705 1498 1705 1498 1738 1498 c 0,61,62
 1770 1498 1770 1498 1793 1521 c 128,-1,63
 1816 1544 1816 1544 1816 1576 c 0,52,53
1602 1595 m 1,64,65
 1390 1704 1390 1704 1151 1704 c 0,66,67
 910 1704 910 1704 698 1595 c 1,68,-1
 1602 1595 l 1,64,65
641 1576 m 256,69,70
 641 1608 641 1608 617.5 1631.5 c 128,-1,71
 594 1655 594 1655 562 1655 c 256,72,73
 530 1655 530 1655 507 1632 c 128,-1,74
 484 1609 484 1609 484 1576 c 0,75,76
 484 1544 484 1544 507 1521 c 128,-1,77
 530 1498 530 1498 562 1498 c 0,78,79
 595 1498 595 1498 618 1521 c 128,-1,80
 641 1544 641 1544 641 1576 c 256,69,70
2140 714 m 0,81,82
 2140 933 2140 933 2048 1131 c 0,83,84
 1960 1321 1960 1321 1801 1460 c 1,85,86
 1772 1444 1772 1444 1737 1444 c 0,87,88
 1681 1444 1681 1444 1642 1485 c 1,89,-1
 658 1485 l 1,90,91
 619 1444 619 1444 563 1444 c 0,92,93
 528 1444 528 1444 499 1460 c 1,94,95
 340 1321 340 1321 252 1131 c 0,96,97
 160 933 160 933 160 714 c 0,98,99
 160 265 160 265 499 -31 c 1,100,101
 528 -15 528 -15 563 -15 c 0,102,103
 619 -15 619 -15 658 -56 c 1,104,-1
 1642 -56 l 1,105,106
 1681 -15 1681 -15 1737 -15 c 0,107,108
 1772 -15 1772 -15 1801 -31 c 1,109,110
 2140 265 2140 265 2140 714 c 0,81,82
1816 -147 m 0,111,112
 1816 -115 1816 -115 1793 -92 c 128,-1,113
 1770 -69 1770 -69 1738 -69 c 0,114,115
 1705 -69 1705 -69 1682 -92 c 128,-1,116
 1659 -115 1659 -115 1659 -147 c 256,117,118
 1659 -179 1659 -179 1682.5 -202.5 c 128,-1,119
 1706 -226 1706 -226 1738 -226 c 256,120,121
 1770 -226 1770 -226 1793 -203 c 128,-1,122
 1816 -180 1816 -180 1816 -147 c 0,111,112
1602 -166 m 1,123,-1
 698 -166 l 1,124,125
 910 -275 910 -275 1151 -275 c 0,126,127
 1390 -275 1390 -275 1602 -166 c 1,123,-1
641 -147 m 256,128,129
 641 -115 641 -115 618 -92 c 128,-1,130
 595 -69 595 -69 562 -69 c 0,131,132
 530 -69 530 -69 507 -92 c 128,-1,133
 484 -115 484 -115 484 -147 c 0,134,135
 484 -180 484 -180 507 -203 c 128,-1,136
 530 -226 530 -226 562 -226 c 256,137,138
 594 -226 594 -226 617.5 -202.5 c 128,-1,139
 641 -179 641 -179 641 -147 c 256,128,129
EndSplineSet
EndChar

StartChar: uni06DE
Encoding: 1758 1758 389
Width: 2221
GlyphClass: 2
Flags: W
LayerCount: 2
Fore
SplineSet
2171 750 m 1,0,-1
 1861 439 l 1,1,-1
 1861 0 l 1,2,-1
 1421 0 l 1,3,-1
 1111 -311 l 1,4,-1
 800 0 l 1,5,-1
 361 0 l 1,6,-1
 361 439 l 1,7,-1
 50 750 l 1,8,-1
 361 1061 l 1,9,-1
 361 1500 l 1,10,-1
 800 1500 l 1,11,-1
 1111 1811 l 1,12,-1
 1421 1500 l 1,13,-1
 1861 1500 l 1,14,-1
 1861 1061 l 1,15,-1
 2171 750 l 1,0,-1
436 364 m 1,16,-1
 436 75 l 1,17,-1
 725 75 l 1,18,-1
 436 364 l 1,16,-1
725 1425 m 1,19,-1
 436 1425 l 1,20,-1
 436 1136 l 1,21,-1
 725 1425 l 1,19,-1
1786 1136 m 1,22,-1
 1786 1425 l 1,23,-1
 1496 1425 l 1,24,-1
 1786 1136 l 1,22,-1
1786 75 m 1,25,-1
 1786 364 l 1,26,-1
 1496 75 l 1,27,-1
 1786 75 l 1,25,-1
906 0 m 1,28,-1
 1111 -205 l 1,29,-1
 1315 0 l 1,30,-1
 906 0 l 1,28,-1
361 955 m 1,31,-1
 156 750 l 1,32,-1
 361 545 l 1,33,-1
 361 955 l 1,31,-1
1315 1500 m 1,34,-1
 1111 1705 l 1,35,-1
 906 1500 l 1,36,-1
 1315 1500 l 1,34,-1
1786 1030 m 1,37,-1
 1390 1425 l 1,38,-1
 831 1425 l 1,39,-1
 436 1030 l 1,40,-1
 436 470 l 1,41,-1
 831 75 l 1,42,-1
 1390 75 l 1,43,-1
 1786 470 l 1,44,-1
 1786 1030 l 1,37,-1
2065 750 m 1,45,-1
 1861 955 l 1,46,-1
 1861 545 l 1,47,-1
 2065 750 l 1,45,-1
1328 750 m 256,48,49
 1328 660 1328 660 1264.5 596 c 128,-1,50
 1201 532 1201 532 1111 532 c 256,51,52
 1021 532 1021 532 957 596 c 128,-1,53
 893 660 893 660 893 750 c 256,54,55
 893 840 893 840 957 903.5 c 128,-1,56
 1021 967 1021 967 1111 967 c 256,57,58
 1201 967 1201 967 1264.5 903.5 c 128,-1,59
 1328 840 1328 840 1328 750 c 256,48,49
1253 750 m 256,60,61
 1253 809 1253 809 1211 850.5 c 128,-1,62
 1169 892 1169 892 1110 892 c 256,63,64
 1051 892 1051 892 1009 850.5 c 128,-1,65
 967 809 967 809 967 750 c 256,66,67
 967 691 967 691 1009 649 c 128,-1,68
 1051 607 1051 607 1110 607 c 256,69,70
 1169 607 1169 607 1211 649 c 128,-1,71
 1253 691 1253 691 1253 750 c 256,60,61
EndSplineSet
EndChar

StartChar: uni06DF
Encoding: 1759 1759 390
Width: 0
GlyphClass: 2
Flags: W
LayerCount: 2
Fore
SplineSet
75 1429 m 256,0,1
 75 1398 75 1398 53 1376 c 128,-1,2
 31 1354 31 1354 0 1354 c 256,3,4
 -31 1354 -31 1354 -53 1376 c 128,-1,5
 -75 1398 -75 1398 -75 1429 c 256,6,7
 -75 1460 -75 1460 -53 1482 c 128,-1,8
 -31 1504 -31 1504 0 1504 c 256,9,10
 31 1504 31 1504 53 1482 c 128,-1,11
 75 1460 75 1460 75 1429 c 256,0,1
EndSplineSet
EndChar

StartChar: uni06E9
Encoding: 1769 1769 391
Width: 1229
GlyphClass: 2
Flags: W
LayerCount: 2
Fore
SplineSet
1179 0 m 1,0,-1
 50 0 l 1,1,-1
 278 261 l 1,2,-1
 278 849 l 1,3,-1
 50 1108 l 1,4,-1
 614 1676 l 1,5,-1
 1179 1108 l 1,6,-1
 951 849 l 1,7,-1
 951 261 l 1,8,-1
 1179 0 l 1,0,-1
1101 1108 m 1,9,-1
 614 1598 l 1,10,-1
 128 1108 l 1,11,-1
 338 871 l 1,12,-1
 338 239 l 1,13,-1
 178 56 l 1,14,-1
 1051 56 l 1,15,-1
 891 239 l 1,16,-1
 891 871 l 1,17,-1
 1101 1108 l 1,9,-1
995 1108 m 1,18,-1
 845 937 l 1,19,-1
 845 131 l 1,20,-1
 384 131 l 1,21,-1
 384 937 l 1,22,-1
 234 1108 l 1,23,-1
 614 1489 l 1,24,-1
 995 1108 l 1,18,-1
922 1108 m 1,25,-1
 614 1416 l 1,26,-1
 307 1108 l 1,27,-1
 433 968 l 1,28,-1
 433 186 l 1,29,-1
 796 186 l 1,30,-1
 796 968 l 1,31,-1
 922 1108 l 1,25,-1
833 1108 m 1,32,-1
 745 1011 l 1,33,-1
 745 267 l 1,34,-1
 484 267 l 1,35,-1
 484 1011 l 1,36,-1
 396 1108 l 1,37,-1
 614 1331 l 1,38,-1
 833 1108 l 1,32,-1
780 1108 m 1,39,-1
 614 1278 l 1,40,-1
 449 1108 l 1,41,-1
 523 1027 l 1,42,-1
 523 309 l 1,43,-1
 705 309 l 1,44,-1
 705 1027 l 1,45,-1
 780 1108 l 1,39,-1
EndSplineSet
EndChar

StartChar: uni06EB
Encoding: 1771 1771 393
Width: 0
GlyphClass: 2
Flags: W
LayerCount: 2
Fore
SplineSet
168 1522 m 1,0,-1
 -1 1354 l 1,1,-1
 -168 1521 l 1,2,-1
 1 1689 l 1,3,-1
 168 1522 l 1,0,-1
104 1522 m 1,4,-1
 0 1626 l 1,5,-1
 -104 1521 l 1,6,-1
 0 1417 l 1,7,-1
 104 1522 l 1,4,-1
EndSplineSet
EndChar

StartChar: comma
Encoding: 44 44 402
Width: 478
Flags: W
LayerCount: 2
Fore
SplineSet
103 -318 m 1,0,-1
 103 -278 l 1,1,2
 198 -245 198 -245 251 -178.5 c 128,-1,3
 304 -112 304 -112 304 -37 c 0,4,5
 304 -20 304 -20 296 -7 c 0,6,7
 289 1 289 1 282 1 c 0,8,9
 272 1 272 1 237 -18 c 0,10,11
 222 -25 222 -25 202 -25 c 0,12,13
 156 -25 156 -25 129.5 1.5 c 128,-1,14
 103 28 103 28 103 75 c 0,15,16
 103 121 103 121 138 154 c 128,-1,17
 173 187 173 187 223 187 c 0,18,19
 284 187 284 187 332.5 133 c 128,-1,20
 381 79 381 79 381 -10 c 0,21,22
 381 -105 381 -105 314 -187.5 c 128,-1,23
 247 -270 247 -270 103 -318 c 1,0,-1
EndSplineSet
EndChar

StartChar: afii57407
Encoding: 1567 1567 403
Width: 1074
GlyphClass: 2
Flags: W
LayerCount: 2
Fore
SplineSet
448 1125 m 0,0,1
 629 1184 629 1184 742.5 1123 c 128,-1,2
 856 1062 856 1062 857 952 c 128,-1,3
 858 842 858 842 817.5 816.5 c 128,-1,4
 777 791 777 791 734.5 816 c 128,-1,5
 692 841 692 841 712 930 c 128,-1,6
 732 1019 732 1019 657.5 1046 c 128,-1,7
 583 1073 583 1073 462.5 1005.5 c 128,-1,8
 342 938 342 938 333.5 834 c 128,-1,9
 325 730 325 730 480 687 c 128,-1,10
 635 644 635 644 684.5 560.5 c 128,-1,11
 734 477 734 477 716 399.5 c 128,-1,12
 698 322 698 322 664.5 260.5 c 128,-1,13
 631 199 631 199 593 200 c 128,-1,14
 555 201 555 201 530.5 234.5 c 128,-1,15
 506 268 506 268 557 379 c 128,-1,16
 608 490 608 490 502.5 531 c 128,-1,17
 397 572 397 572 287.5 649.5 c 128,-1,18
 178 727 178 727 222.5 897 c 128,-1,19
 267 1067 267 1067 448 1125 c 0,0,1
549 132 m 1,20,21
 595 142 595 142 644 83 c 1,22,-1
 654 88 l 1,23,24
 704 99 704 99 727 39 c 1,25,-1
 729 29 l 2,26,27
 741 -23 741 -23 674 -61 c 128,-1,28
 607 -99 607 -99 546.5 -64 c 128,-1,29
 486 -29 486 -29 484 44 c 128,-1,30
 482 117 482 117 546 131 c 1,31,-1
 549 132 l 1,20,21
EndSplineSet
EndChar

StartChar: afii57392
Encoding: 1776 1776 404
Width: 757
Flags: W
LayerCount: 2
Fore
SplineSet
356 571 m 1,0,-1
 396 571 l 2,1,2
 535 571 535 571 600 423 c 1,3,-1
 608 367 l 1,4,5
 608 244 608 244 468 191 c 0,6,7
 442 179 442 179 404 179 c 2,8,-1
 368 179 l 2,9,10
 251 179 251 179 176 287 c 0,11,12
 152 326 152 326 152 367 c 2,13,-1
 152 395 l 2,14,15
 152 477 152 477 240 539 c 1,16,-1
 356 571 l 1,0,-1
312 419 m 1,17,-1
 308 399 l 1,18,19
 308 354 308 354 372 343 c 1,20,-1
 388 343 l 2,21,22
 408 343 408 343 436 359 c 1,23,24
 436 402 436 402 328 407 c 1,25,-1
 312 419 l 1,17,-1
EndSplineSet
EndChar

StartChar: afii57393
Encoding: 1777 1777 405
Width: 478
Flags: W
LayerCount: 2
Fore
SplineSet
148 1103 m 1,0,1
 216 1103 216 1103 272.5 886 c 128,-1,2
 329 669 329 669 400 233 c 1,3,-1
 404 178 l 1,4,-1
 404 151 l 2,5,6
 404 0 404 0 333 0 c 2,7,-1
 325 0 l 2,8,9
 240 0 240 0 231.5 141.5 c 128,-1,10
 223 283 223 283 77 1016 c 1,11,-1
 77 1027 l 2,12,13
 77 1088 77 1088 148 1103 c 1,0,1
EndSplineSet
EndChar

StartChar: afii57394
Encoding: 1778 1778 406
Width: 929
Flags: W
LayerCount: 2
Fore
SplineSet
806 1106 m 1,0,-1
 831 1106 l 2,1,2
 874 1106 874 1106 886 1041 c 1,3,4
 816 822 816 822 666 736 c 1,5,6
 583 701 583 701 526 701 c 1,7,-1
 475 706 l 1,8,-1
 455 706 l 1,9,10
 653 297 653 297 681 75 c 1,11,12
 662 0 662 0 606 0 c 2,13,-1
 581 0 l 2,14,15
 499 0 499 0 485 135 c 1,16,17
 392 484 392 484 285 681 c 1,18,-1
 102 995 l 1,19,-1
 97 1020 l 1,20,-1
 97 1030 l 1,21,22
 112 1110 112 1110 172 1110 c 2,23,-1
 207 1110 l 2,24,25
 234 1110 234 1110 300 994.5 c 128,-1,26
 366 879 366 879 511 871 c 1,27,28
 657 879 657 879 781 1101 c 1,29,-1
 806 1106 l 1,0,-1
EndSplineSet
EndChar

StartChar: afii57395
Encoding: 1779 1779 407
Width: 1055
Flags: W
LayerCount: 2
Fore
SplineSet
150 1120 m 1,0,1
 183 1120 183 1120 256.5 1015 c 128,-1,2
 330 910 330 910 422 901 c 1,3,4
 514 918 514 918 509.5 1006 c 128,-1,5
 505 1094 505 1094 563 1088 c 1,6,-1
 578 1088 l 2,7,8
 617 1088 617 1088 649 980.5 c 128,-1,9
 681 873 681 873 740.5 860 c 128,-1,10
 800 847 800 847 823 908 c 128,-1,11
 846 969 846 969 842 1029.5 c 128,-1,12
 838 1090 838 1090 888 1100 c 128,-1,13
 938 1110 938 1110 953.5 1045 c 128,-1,14
 969 980 969 980 939 857.5 c 128,-1,15
 909 735 909 735 788.5 725 c 128,-1,16
 668 715 668 715 597 835 c 1,17,-1
 593 835 l 1,18,19
 525 694 525 694 392 743 c 1,20,21
 475 547 475 547 546 204 c 1,22,-1
 569 68 l 1,23,24
 569 12 569 12 497 0 c 1,25,-1
 486 0 l 2,26,27
 421 0 421 0 410 94 c 1,28,29
 311 552 311 552 239 702.5 c 128,-1,30
 167 853 167 853 75 1014 c 1,31,-1
 71 1037 l 1,32,-1
 71 1045 l 2,33,34
 71 1106 71 1106 150 1120 c 1,0,1
EndSplineSet
EndChar

StartChar: afii62843
Encoding: 1780 1780 408
Width: 1142
Flags: W
LayerCount: 2
Fore
SplineSet
530 785 m 1,0,1
 504 833 504 833 504 883 c 2,2,-1
 504 887 l 2,3,4
 504 1062 504 1062 785 1198 c 1,5,-1
 802 1202 l 1,6,-1
 819 1202 l 1,7,8
 874 1188 874 1188 874 1147 c 2,9,-1
 874 1130 l 2,10,11
 874 1088 874 1088 768 1049 c 1,12,13
 662 972 662 972 662 883 c 1,14,15
 675 798 675 798 747 798 c 1,16,-1
 768 794 l 1,17,-1
 976 811 l 1,18,19
 1053 790 1053 790 1053 730 c 2,20,-1
 1053 725 l 2,21,22
 1053 659 1053 659 908 636 c 0,23,24
 815 619 815 619 730 619 c 2,25,-1
 687 619 l 2,26,27
 577 619 577 619 432 649 c 1,28,29
 599 364 599 364 619 64 c 1,30,-1
 619 47 l 2,31,32
 619 1 619 1 547 -12 c 1,33,34
 466 -3 466 -3 466 64 c 1,35,36
 448 290 448 290 317 551 c 1,37,38
 197 748 197 748 128.5 820.5 c 128,-1,39
 60 893 60 893 68 949.5 c 128,-1,40
 76 1006 76 1006 134 1008.5 c 128,-1,41
 192 1011 192 1011 261.5 909.5 c 128,-1,42
 331 808 331 808 530 785 c 1,0,1
EndSplineSet
EndChar

StartChar: afii62844
Encoding: 1781 1781 409
Width: 1096
Flags: W
LayerCount: 2
Fore
SplineSet
274 808 m 2,0,-1
 293 808 l 2,1,2
 617 808 617 808 908 531 c 1,3,4
 1002 404 1002 404 1002 305 c 2,5,-1
 1002 258 l 2,6,7
 1002 68 1002 68 795 19 c 1,8,-1
 730 19 l 2,9,10
 595 19 595 19 467 146 c 1,11,12
 345 0 345 0 232 0 c 0,13,14
 99 0 99 0 77 178 c 1,15,-1
 72 197 l 1,16,17
 72 421 72 421 354 620 c 1,18,-1
 359 620 l 1,19,-1
 359 625 l 1,20,21
 204 630 204 630 204 695 c 1,22,-1
 199 723 l 1,23,24
 206 808 206 808 274 808 c 2,0,-1
556 564 m 1,25,26
 441 514 441 514 331.5 406 c 128,-1,27
 222 298 222 298 222 178 c 1,28,29
 228 141 228 141 255 141 c 0,30,31
 336 141 336 141 434 272 c 1,32,33
 434 310 434 310 490 319 c 1,34,35
 521 318 521 318 631 197 c 1,36,37
 686 160 686 160 739 160 c 2,38,-1
 748 160 l 1,39,40
 856 171 856 171 856 240 c 1,41,-1
 861 258 l 1,42,43
 861 374 861 374 636 526 c 0,44,45
 574 564 574 564 556 564 c 1,25,26
EndSplineSet
EndChar

StartChar: afii62845
Encoding: 1782 1782 410
Width: 1198
Flags: W
LayerCount: 2
Fore
SplineSet
437 1016 m 1,0,1
 463 1040 463 1040 496 1051.5 c 128,-1,2
 529 1063 529 1063 557.5 1061 c 128,-1,3
 586 1059 586 1059 604 1043 c 128,-1,4
 622 1027 622 1027 616 996 c 1,5,6
 381 740 381 740 522 699 c 0,7,8
 657 656 657 656 791 804 c 128,-1,9
 925 952 925 952 952 946 c 1,10,11
 1043 948 1043 948 1040 854 c 1,12,-1
 1038 844 l 1,13,-1
 1027 821 l 1,14,-1
 777 558 l 1,15,16
 627 391 627 391 456 73 c 1,17,18
 411 -55 411 -55 331 -36 c 2,19,-1
 307 -31 l 2,20,21
 252 -18 252 -18 251 60 c 1,22,23
 330 269 330 269 567 530 c 1,24,25
 412 548 412 548 340 603 c 1,26,27
 214 722 214 722 437 1016 c 1,0,1
EndSplineSet
EndChar

StartChar: afii57399
Encoding: 1783 1783 411
Width: 1125
Flags: W
LayerCount: 2
Fore
SplineSet
880 882 m 2,0,-1
 877 871 l 2,1,2
 848 779 848 779 745 600.5 c 128,-1,3
 642 422 642 422 579 219 c 2,4,-1
 569 188 l 1,5,-1
 531 28 l 2,6,7
 514 -28 514 -28 423 -15 c 1,8,9
 380 -2 380 -2 334 234 c 1,10,11
 248 539 248 539 148 707.5 c 128,-1,12
 48 876 48 876 64 924 c 2,13,-1
 69 940 l 2,14,15
 82 983 82 983 153 979 c 1,16,-1
 163 977 l 1,17,18
 297 883 297 883 477 387 c 1,19,20
 662 882 662 882 721.5 936.5 c 128,-1,21
 781 991 781 991 839.5 966.5 c 128,-1,22
 898 942 898 942 880 882 c 2,0,-1
EndSplineSet
EndChar

StartChar: afii57400
Encoding: 1784 1784 412
Width: 1163
Flags: W
LayerCount: 2
Fore
SplineSet
478 985 m 1,0,1
 508 1034 508 1034 563 1030 c 128,-1,2
 618 1026 618 1026 770 700.5 c 128,-1,3
 922 375 922 375 1021 91 c 1,4,-1
 1017 43 l 1,5,6
 982 -28 982 -28 906 -3 c 0,7,8
 854 12 854 12 834 79 c 128,-1,9
 814 146 814 146 637 600 c 1,10,-1
 549 788 l 1,11,12
 424 435 424 435 341.5 205 c 128,-1,13
 259 -25 259 -25 177 5 c 0,14,15
 119 28 119 28 152.5 144.5 c 128,-1,16
 186 261 186 261 297.5 516 c 128,-1,17
 409 771 409 771 478 985 c 1,0,1
EndSplineSet
EndChar

StartChar: afii57401
Encoding: 1785 1785 413
Width: 984
Flags: W
LayerCount: 2
Fore
SplineSet
360 1111 m 1,0,1
 596 1111 596 1111 728 771 c 1,2,3
 810 771 810 771 810 702 c 2,4,-1
 810 684 l 2,5,6
 810 662 810 662 778 629 c 1,7,8
 806 375 806 375 952 138 c 1,9,-1
 962 78 l 1,10,11
 962 20 962 20 879 0 c 1,12,13
 779 0 779 0 682 294 c 1,14,-1
 608 588 l 1,15,16
 516 569 516 569 438 569 c 2,17,-1
 369 569 l 2,18,19
 157 569 157 569 80 730 c 1,20,-1
 71 794 l 1,21,22
 71 966 71 966 255 1088 c 1,23,24
 309 1106 309 1106 360 1111 c 1,0,1
236 817 m 2,25,26
 236 744 236 744 406 744 c 2,27,-1
 429 744 l 1,28,-1
 558 753 l 1,29,-1
 558 758 l 1,30,31
 472 955 472 955 374 955 c 0,32,33
 274 955 274 955 236 826 c 1,34,-1
 236 817 l 2,25,26
EndSplineSet
EndChar

StartChar: afii57392.001
Encoding: 1632 1632 414
Width: 757
Flags: W
LayerCount: 2
Fore
SplineSet
356 571 m 1,0,-1
 396 571 l 2,1,2
 535 571 535 571 600 423 c 1,3,-1
 608 367 l 1,4,5
 608 244 608 244 468 191 c 0,6,7
 442 179 442 179 404 179 c 2,8,-1
 368 179 l 2,9,10
 251 179 251 179 176 287 c 0,11,12
 152 326 152 326 152 367 c 2,13,-1
 152 395 l 2,14,15
 152 477 152 477 240 539 c 1,16,-1
 356 571 l 1,0,-1
312 419 m 1,17,-1
 308 399 l 1,18,19
 308 354 308 354 372 343 c 1,20,-1
 388 343 l 2,21,22
 408 343 408 343 436 359 c 1,23,24
 436 402 436 402 328 407 c 1,25,-1
 312 419 l 1,17,-1
EndSplineSet
EndChar

StartChar: afii57393.001
Encoding: 1633 1633 415
Width: 478
Flags: W
LayerCount: 2
Fore
SplineSet
148 1103 m 1,0,1
 216 1103 216 1103 272.5 886 c 128,-1,2
 329 669 329 669 400 233 c 1,3,-1
 404 178 l 1,4,-1
 404 151 l 2,5,6
 404 0 404 0 333 0 c 2,7,-1
 325 0 l 2,8,9
 240 0 240 0 231.5 141.5 c 128,-1,10
 223 283 223 283 77 1016 c 1,11,-1
 77 1027 l 2,12,13
 77 1088 77 1088 148 1103 c 1,0,1
EndSplineSet
EndChar

StartChar: afii57394.001
Encoding: 1634 1634 416
Width: 929
Flags: W
LayerCount: 2
Fore
SplineSet
806 1106 m 1,0,-1
 831 1106 l 2,1,2
 874 1106 874 1106 886 1041 c 1,3,4
 816 822 816 822 666 736 c 1,5,6
 583 701 583 701 526 701 c 1,7,-1
 475 706 l 1,8,-1
 455 706 l 1,9,10
 653 297 653 297 681 75 c 1,11,12
 662 0 662 0 606 0 c 2,13,-1
 581 0 l 2,14,15
 499 0 499 0 485 135 c 1,16,17
 392 484 392 484 285 681 c 1,18,-1
 102 995 l 1,19,-1
 97 1020 l 1,20,-1
 97 1030 l 1,21,22
 112 1110 112 1110 172 1110 c 2,23,-1
 207 1110 l 2,24,25
 234 1110 234 1110 300 994.5 c 128,-1,26
 366 879 366 879 511 871 c 1,27,28
 657 879 657 879 781 1101 c 1,29,-1
 806 1106 l 1,0,-1
EndSplineSet
EndChar

StartChar: afii57395.001
Encoding: 1635 1635 417
Width: 1055
Flags: W
LayerCount: 2
Fore
SplineSet
150 1120 m 1,0,1
 183 1120 183 1120 256.5 1015 c 128,-1,2
 330 910 330 910 422 901 c 1,3,4
 514 918 514 918 509.5 1006 c 128,-1,5
 505 1094 505 1094 563 1088 c 1,6,-1
 578 1088 l 2,7,8
 617 1088 617 1088 649 980.5 c 128,-1,9
 681 873 681 873 740.5 860 c 128,-1,10
 800 847 800 847 823 908 c 128,-1,11
 846 969 846 969 842 1029.5 c 128,-1,12
 838 1090 838 1090 888 1100 c 128,-1,13
 938 1110 938 1110 953.5 1045 c 128,-1,14
 969 980 969 980 939 857.5 c 128,-1,15
 909 735 909 735 788.5 725 c 128,-1,16
 668 715 668 715 597 835 c 1,17,-1
 593 835 l 1,18,19
 525 694 525 694 392 743 c 1,20,21
 475 547 475 547 546 204 c 1,22,-1
 569 68 l 1,23,24
 569 12 569 12 497 0 c 1,25,-1
 486 0 l 2,26,27
 421 0 421 0 410 94 c 1,28,29
 311 552 311 552 239 702.5 c 128,-1,30
 167 853 167 853 75 1014 c 1,31,-1
 71 1037 l 1,32,-1
 71 1045 l 2,33,34
 71 1106 71 1106 150 1120 c 1,0,1
EndSplineSet
EndChar

StartChar: afii57396
Encoding: 1636 1636 418
Width: 1142
Flags: W
LayerCount: 2
Fore
SplineSet
223 654 m 1,0,1
 292 818 292 818 433 818 c 0,2,3
 461 817 461 817 526 797 c 1,4,-1
 504 883 l 1,5,-1
 504 887 l 2,6,7
 504 1062 504 1062 785 1198 c 1,8,-1
 802 1202 l 1,9,-1
 819 1202 l 1,10,11
 874 1188 874 1188 874 1147 c 2,12,-1
 874 1130 l 2,13,14
 874 1088 874 1088 768 1049 c 1,15,16
 662 972 662 972 662 883 c 1,17,18
 675 798 675 798 747 798 c 1,19,-1
 768 794 l 1,20,-1
 976 811 l 1,21,22
 1053 790 1053 790 1053 730 c 2,23,-1
 1053 725 l 2,24,25
 1053 659 1053 659 921 635 c 128,-1,26
 789 611 789 611 667 616 c 1,27,28
 633 611 633 611 445 645 c 0,29,30
 386 653 386 653 356 589 c 1,31,32
 328 471 328 471 444.5 321.5 c 128,-1,33
 561 172 561 172 700.5 153 c 128,-1,34
 840 134 840 134 792 83 c 1,35,36
 746 -27 746 -27 595 2 c 0,37,38
 429 33 429 33 295.5 219.5 c 128,-1,39
 162 406 162 406 223 654 c 1,0,1
EndSplineSet
EndChar

StartChar: afii57397
Encoding: 1637 1637 419
Width: 1096
Flags: W
LayerCount: 2
Fore
SplineSet
284 999 m 2,0,-1
 303 999 l 1,1,2
 612 948 612 948 809 796 c 128,-1,3
 1006 644 1006 644 1002 449 c 1,4,5
 980 253 980 253 808 170.5 c 128,-1,6
 636 88 636 88 409 139.5 c 128,-1,7
 182 191 182 191 159 365 c 128,-1,8
 136 539 136 539 375 811 c 1,9,-1
 380 811 l 1,10,-1
 380 816 l 1,11,12
 214 821 214 821 214 886 c 1,13,-1
 209 914 l 1,14,15
 216 999 216 999 284 999 c 2,0,-1
552 765 m 1,16,17
 451 705 451 705 346.5 554 c 128,-1,18
 242 403 242 403 338 332 c 1,19,20
 496 236 496 236 673 284 c 128,-1,21
 850 332 850 332 861 449 c 1,22,23
 866 581 866 581 725 668 c 128,-1,24
 584 755 584 755 552 765 c 1,16,17
EndSplineSet
EndChar

StartChar: afii57398
Encoding: 1638 1638 420
Width: 1263
Flags: W
LayerCount: 2
Fore
SplineSet
663 991 m 1,0,1
 711 976 711 976 710 922 c 1,2,-1
 709 918 l 1,3,-1
 682 724 l 1,4,5
 670 339 670 339 1145 160 c 1,6,7
 1185 158 1185 158 1201 85 c 1,8,9
 1186 -16 1186 -16 1109 -14 c 2,10,-1
 1105 -14 l 1,11,12
 528 216 528 216 543 718 c 1,13,-1
 556 830 l 1,14,15
 254 837 254 837 160 839.5 c 128,-1,16
 66 842 66 842 60 915 c 1,17,18
 63 999 63 999 189.5 996.5 c 128,-1,19
 316 994 316 994 539 991 c 1,20,-1
 601 989 l 1,21,-1
 663 991 l 1,0,1
EndSplineSet
EndChar

StartChar: afii57399.001
Encoding: 1639 1639 421
Width: 1125
Flags: W
LayerCount: 2
Fore
SplineSet
880 882 m 2,0,-1
 877 871 l 2,1,2
 848 779 848 779 745 600.5 c 128,-1,3
 642 422 642 422 579 219 c 2,4,-1
 569 188 l 1,5,-1
 531 28 l 2,6,7
 514 -28 514 -28 423 -15 c 1,8,9
 380 -2 380 -2 334 234 c 1,10,11
 248 539 248 539 148 707.5 c 128,-1,12
 48 876 48 876 64 924 c 2,13,-1
 69 940 l 2,14,15
 82 983 82 983 153 979 c 1,16,-1
 163 977 l 1,17,18
 297 883 297 883 477 387 c 1,19,20
 662 882 662 882 721.5 936.5 c 128,-1,21
 781 991 781 991 839.5 966.5 c 128,-1,22
 898 942 898 942 880 882 c 2,0,-1
EndSplineSet
EndChar

StartChar: afii57400.001
Encoding: 1640 1640 422
Width: 1163
Flags: W
LayerCount: 2
Fore
SplineSet
478 985 m 1,0,1
 508 1034 508 1034 563 1030 c 128,-1,2
 618 1026 618 1026 770 700.5 c 128,-1,3
 922 375 922 375 1021 91 c 1,4,-1
 1017 43 l 1,5,6
 982 -28 982 -28 906 -3 c 0,7,8
 854 12 854 12 834 79 c 128,-1,9
 814 146 814 146 637 600 c 1,10,-1
 549 788 l 1,11,12
 424 435 424 435 341.5 205 c 128,-1,13
 259 -25 259 -25 177 5 c 0,14,15
 119 28 119 28 152.5 144.5 c 128,-1,16
 186 261 186 261 297.5 516 c 128,-1,17
 409 771 409 771 478 985 c 1,0,1
EndSplineSet
EndChar

StartChar: afii57401.001
Encoding: 1641 1641 423
Width: 984
Flags: W
LayerCount: 2
Fore
SplineSet
360 1111 m 1,0,1
 596 1111 596 1111 728 771 c 1,2,3
 810 771 810 771 810 702 c 2,4,-1
 810 684 l 2,5,6
 810 662 810 662 778 629 c 1,7,8
 806 375 806 375 952 138 c 1,9,-1
 962 78 l 1,10,11
 962 20 962 20 879 0 c 1,12,13
 779 0 779 0 682 294 c 1,14,-1
 608 588 l 1,15,16
 516 569 516 569 438 569 c 2,17,-1
 369 569 l 2,18,19
 157 569 157 569 80 730 c 1,20,-1
 71 794 l 1,21,22
 71 966 71 966 255 1088 c 1,23,24
 309 1106 309 1106 360 1111 c 1,0,1
236 817 m 2,25,26
 236 744 236 744 406 744 c 2,27,-1
 429 744 l 1,28,-1
 558 753 l 1,29,-1
 558 758 l 1,30,31
 472 955 472 955 374 955 c 0,32,33
 274 955 274 955 236 826 c 1,34,-1
 236 817 l 2,25,26
EndSplineSet
EndChar

StartChar: guillemotleft
Encoding: 171 171 424
Width: 836
Flags: W
LayerCount: 2
Fore
SplineSet
442 616 m 1,0,1
 387 507 387 507 387 393 c 0,2,3
 387 255 387 255 518 82 c 1,4,-1
 518 83 l 1,5,6
 538 60 538 60 547.5 44 c 128,-1,7
 557 28 557 28 560 20 c 0,8,9
 560 -5 560 -5 534 -5 c 0,10,11
 528 -5 528 -5 513 1 c 0,12,13
 377 71 377 71 294 168 c 1,14,-1
 294 167 l 1,15,16
 202 276 202 276 202 396 c 0,17,18
 203 448 203 448 222.5 500 c 128,-1,19
 242 552 242 552 280 603 c 0,20,21
 307 640 307 640 344.5 676.5 c 128,-1,22
 382 713 382 713 426 745 c 0,23,24
 499 799 499 799 528 799 c 0,25,26
 563 799 563 799 563 775 c 0,27,28
 563 765 563 765 555 757 c 0,29,30
 528 730 528 730 509 708 c 128,-1,31
 490 686 490 686 477 668.5 c 128,-1,32
 464 651 464 651 455.5 638 c 128,-1,33
 447 625 447 625 441 615 c 2,34,-1
 442 616 l 1,0,1
721 616 m 1,35,36
 666 507 666 507 666 393 c 0,37,38
 666 255 666 255 797 82 c 1,39,-1
 797 83 l 1,40,41
 817 60 817 60 826.5 44 c 128,-1,42
 836 28 836 28 839 20 c 0,43,44
 839 -5 839 -5 813 -5 c 0,45,46
 806 -5 806 -5 793 1 c 0,47,48
 725 36 725 36 670 77 c 128,-1,49
 615 118 615 118 573 168 c 1,50,-1
 573 167 l 1,51,52
 481 276 481 276 481 396 c 0,53,54
 482 448 482 448 501.5 500 c 128,-1,55
 521 552 521 552 559 603 c 0,56,57
 586 640 586 640 623.5 676.5 c 128,-1,58
 661 713 661 713 705 745 c 0,59,60
 778 799 778 799 807 799 c 0,61,62
 842 799 842 799 842 775 c 0,63,64
 842 765 842 765 834 757 c 0,65,66
 807 730 807 730 788 708 c 128,-1,67
 769 686 769 686 756 668.5 c 128,-1,68
 743 651 743 651 734.5 638 c 128,-1,69
 726 625 726 625 720 615 c 2,70,-1
 721 616 l 1,35,36
EndSplineSet
EndChar

StartChar: guillemotright
Encoding: 187 187 425
Width: 836
Flags: W
LayerCount: 2
Fore
SplineSet
573 622 m 1,0,1
 561 641 561 641 537.5 674.5 c 128,-1,2
 514 708 514 708 460 762 c 0,3,4
 452 770 452 770 452 780 c 0,5,6
 452 804 452 804 487 804 c 0,7,8
 514 804 514 804 588 751 c 0,9,10
 631 719 631 719 668 683 c 128,-1,11
 705 647 705 647 732 610 c 0,12,13
 769 559 769 559 788.5 508 c 128,-1,14
 808 457 808 457 809 406 c 0,15,16
 809 287 809 287 718 179 c 1,17,-1
 718 180 l 1,18,19
 636 83 636 83 501 15 c 0,20,21
 487 9 487 9 481 9 c 0,22,23
 455 9 455 9 455 34 c 0,24,25
 458 42 458 42 467.5 57.5 c 128,-1,26
 477 73 477 73 497 96 c 1,27,-1
 497 95 l 1,28,29
 626 266 626 266 626 403 c 0,30,31
 626 515 626 515 572 623 c 1,32,-1
 573 622 l 1,0,1
297 622 m 1,33,34
 285 641 285 641 261.5 674.5 c 128,-1,35
 238 708 238 708 184 762 c 0,36,37
 176 770 176 770 176 780 c 0,38,39
 176 804 176 804 211 804 c 0,40,41
 238 804 238 804 312 751 c 0,42,43
 355 719 355 719 392 683 c 128,-1,44
 429 647 429 647 456 610 c 0,45,46
 493 559 493 559 512.5 508 c 128,-1,47
 532 457 532 457 533 406 c 0,48,49
 533 287 533 287 442 179 c 1,50,-1
 442 180 l 1,51,52
 360 83 360 83 225 15 c 0,53,54
 211 9 211 9 205 9 c 0,55,56
 179 9 179 9 179 34 c 0,57,58
 182 42 182 42 191.5 57.5 c 128,-1,59
 201 73 201 73 221 96 c 1,60,-1
 221 95 l 1,61,62
 350 266 350 266 350 403 c 0,63,64
 350 515 350 515 296 623 c 1,65,-1
 297 622 l 1,33,34
EndSplineSet
EndChar

StartChar: quoteleft
Encoding: 8216 8216 426
Width: 425
Flags: W
LayerCount: 2
Fore
SplineSet
121 993 m 0,0,1
 122 1058 122 1058 166 1121.5 c 128,-1,2
 210 1185 210 1185 265 1211 c 1,3,-1
 296 1153 l 1,4,5
 280 1144 280 1144 258 1120 c 128,-1,6
 236 1096 236 1096 226 1058 c 1,7,8
 292 1030 292 1030 289 975 c 0,9,10
 289 959 289 959 282.5 944.5 c 128,-1,11
 276 930 276 930 265 919 c 128,-1,12
 254 908 254 908 239 901.5 c 128,-1,13
 224 895 224 895 208 895 c 0,14,15
 188 895 188 895 171.5 903.5 c 128,-1,16
 155 912 155 912 144 925.5 c 128,-1,17
 133 939 133 939 127 957 c 128,-1,18
 121 975 121 975 121 993 c 0,0,1
EndSplineSet
EndChar

StartChar: quoteright
Encoding: 8217 8217 427
Width: 372
Flags: W
LayerCount: 2
Fore
SplineSet
311 1113 m 0,0,1
 310 1048 310 1048 266 984.5 c 128,-1,2
 222 921 222 921 167 895 c 1,3,-1
 136 953 l 1,4,5
 152 962 152 962 174 986 c 128,-1,6
 196 1010 196 1010 206 1048 c 1,7,8
 140 1076 140 1076 143 1131 c 0,9,10
 143 1147 143 1147 149.5 1161.5 c 128,-1,11
 156 1176 156 1176 167 1187 c 128,-1,12
 178 1198 178 1198 192.5 1204.5 c 128,-1,13
 207 1211 207 1211 224 1211 c 0,14,15
 244 1211 244 1211 260 1202.5 c 128,-1,16
 276 1194 276 1194 287.5 1180.5 c 128,-1,17
 299 1167 299 1167 305 1149 c 128,-1,18
 311 1131 311 1131 311 1113 c 0,0,1
EndSplineSet
EndChar

StartChar: afii57451
Encoding: 1611 1611 428
Width: 0
GlyphClass: 4
Flags: W
AnchorPoint: "Anchor-2" 0 0 mark 0
AnchorPoint: "Anchor-0" 0 0 mark 0
LayerCount: 2
Fore
SplineSet
167 111 m 1,0,1
 105 65 105 65 -13 32.5 c 128,-1,2
 -131 0 -131 0 -208 0 c 1,3,-1
 -245 33 l 1,4,5
 23 94 23 94 177 199 c 1,6,7
 217 198 217 198 167 111 c 1,0,1
165 281 m 1,8,9
 106 232 106 232 -10 193 c 128,-1,10
 -126 154 -126 154 -203 149 c 1,11,-1
 -242 180 l 1,12,13
 22 256 22 256 170 370 c 1,14,15
 210 371 210 371 165 281 c 1,8,9
EndSplineSet
EndChar

StartChar: afii57454
Encoding: 1614 1614 429
Width: 0
GlyphClass: 4
Flags: W
AnchorPoint: "Anchor-2" 0 0 mark 0
AnchorPoint: "Anchor-0" 0 0 mark 0
LayerCount: 2
Fore
SplineSet
165 133 m 1,0,1
 106 84 106 84 -10 45 c 128,-1,2
 -126 6 -126 6 -203 1 c 1,3,-1
 -242 32 l 1,4,5
 22 108 22 108 170 222 c 1,6,7
 210 223 210 223 165 133 c 1,0,1
EndSplineSet
EndChar

StartChar: afii57455
Encoding: 1615 1615 430
Width: 0
GlyphClass: 4
Flags: W
AnchorPoint: "Anchor-2" 0 0 mark 0
AnchorPoint: "Anchor-0" 0 0 mark 0
LayerCount: 2
Fore
SplineSet
183 352 m 0,0,1
 178 281 178 281 121 203.5 c 128,-1,2
 64 126 64 126 28 95 c 128,-1,3
 -8 64 -8 64 -62.5 35.5 c 128,-1,4
 -117 7 -117 7 -208 -2 c 0,5,6
 -238 -3 -238 -3 -234.5 15.5 c 128,-1,7
 -231 34 -231 34 -199 36 c 1,8,9
 -102 59 -102 59 -45 106 c 128,-1,10
 12 153 12 153 41 216 c 1,11,12
 -58 221 -58 221 -58 288 c 0,13,14
 -58 344 -58 344 -11.5 388.5 c 128,-1,15
 35 433 35 433 84 436 c 0,16,17
 185 439 185 439 183 352 c 0,0,1
EndSplineSet
EndChar

StartChar: afii57452
Encoding: 1612 1612 431
Width: 0
GlyphClass: 4
Flags: W
AnchorPoint: "Anchor-2" 0 0 mark 0
AnchorPoint: "Anchor-0" 0 0 mark 0
LayerCount: 2
Fore
SplineSet
183 352 m 0,0,1
 178 281 178 281 122 203.5 c 128,-1,2
 66 126 66 126 29 95.5 c 128,-1,3
 -8 65 -8 65 -62.5 36 c 128,-1,4
 -117 7 -117 7 -208 -2 c 0,5,6
 -238 -3 -238 -3 -234 15 c 0,7,8
 -232 30 -232 30 -188 37 c 1,9,10
 -135 126 -135 126 -160 155.5 c 128,-1,11
 -185 185 -185 185 -256 165 c 1,12,13
 -201 232 -201 232 -141 207.5 c 128,-1,14
 -81 183 -81 183 -141 49 c 1,15,16
 -92 67 -92 67 -45 106 c 0,17,18
 12 153 12 153 41 216 c 1,19,20
 -58 221 -58 221 -58 288 c 0,21,22
 -58 344 -58 344 -11.5 388.5 c 128,-1,23
 35 433 35 433 84 436 c 0,24,25
 185 439 185 439 183 352 c 0,0,1
EndSplineSet
EndChar

StartChar: afii57456
Encoding: 1616 1616 432
Width: 0
GlyphClass: 4
Flags: W
AnchorPoint: "Anchor-3" 0 0 mark 0
AnchorPoint: "Anchor-1" 0 0 mark 0
LayerCount: 2
Fore
SplineSet
165 133 m 1,0,1
 106 84 106 84 -10 45 c 128,-1,2
 -126 6 -126 6 -203 1 c 1,3,-1
 -242 32 l 1,4,5
 22 108 22 108 170 222 c 1,6,7
 210 223 210 223 165 133 c 1,0,1
EndSplineSet
EndChar

StartChar: afii57457
Encoding: 1617 1617 433
Width: 0
GlyphClass: 4
Flags: W
AnchorPoint: "Anchor-2" 0 0 mark 0
AnchorPoint: "Anchor-0" 0 0 mark 0
LayerCount: 2
Fore
SplineSet
147 325 m 1,0,1
 162 290 162 290 160.5 191 c 128,-1,2
 159 92 159 92 102.5 57.5 c 128,-1,3
 46 23 46 23 -10 58 c 1,4,5
 -64 -5 -64 -5 -124 2 c 128,-1,6
 -184 9 -184 9 -192.5 67.5 c 128,-1,7
 -201 126 -201 126 -156 227 c 1,8,-1
 -125 226 l 1,9,10
 -138 184 -138 184 -142 136 c 128,-1,11
 -146 88 -146 88 -113 88 c 1,12,13
 -39 74 -39 74 -26 262 c 1,14,-1
 9 262 l 1,15,16
 22 147 22 147 66 147 c 0,17,18
 119 147 119 147 119 291 c 1,19,-1
 147 325 l 1,0,1
EndSplineSet
EndChar

StartChar: afii57458
Encoding: 1618 1618 434
Width: 0
GlyphClass: 4
Flags: W
AnchorPoint: "Anchor-2" 0 0 mark 0
AnchorPoint: "Anchor-0" 0 0 mark 0
LayerCount: 2
Fore
SplineSet
136 139 m 0,0,1
 119 45 119 45 71 14 c 0,2,3
 29 -14 29 -14 -55 1 c 0,4,5
 -171 21 -171 21 -146 162 c 0,6,7
 -133 239 -133 239 -86 296 c 0,8,9
 -33 365 -33 365 35 353 c 256,10,11
 103 341 103 341 127 276 c 0,12,13
 150 220 150 220 136 139 c 0,0,1
63 146 m 0,14,15
 85 258 85 258 22 275 c 0,16,17
 3 279 3 279 -23 257 c 0,18,19
 -58 231 -58 231 -69 174 c 0,20,21
 -82 100 -82 100 -14 82 c 0,22,23
 49 65 49 65 63 146 c 0,14,15
EndSplineSet
EndChar

StartChar: exclam
Encoding: 33 33 437
Width: 399
GlyphClass: 2
Flags: W
LayerCount: 2
Fore
SplineSet
317 974 m 0,0,1
 317 904 317 904 294 758 c 0,2,3
 267 589 267 589 262 507 c 2,4,-1
 247 277 l 1,5,-1
 185 277 l 1,6,7
 183 302 183 302 168 505 c 0,8,9
 162 588 162 588 134 761 c 0,10,11
 110 911 110 911 110 976 c 0,12,13
 110 1217 110 1217 213 1217 c 0,14,15
 317 1217 317 1217 317 974 c 0,0,1
319 102 m 0,16,17
 319 59 319 59 289.5 30 c 128,-1,18
 260 1 260 1 217 1 c 256,19,20
 174 1 174 1 145.5 30 c 128,-1,21
 117 59 117 59 117 102 c 0,22,23
 117 144 117 144 146 173 c 128,-1,24
 175 202 175 202 217 202 c 0,25,26
 258 202 258 202 288.5 172.5 c 128,-1,27
 319 143 319 143 319 102 c 0,16,17
EndSplineSet
EndChar

StartChar: afii64060
Encoding: 64830 64830 438
Width: 576
GlyphClass: 2
Flags: W
LayerCount: 2
Fore
SplineSet
502 932 m 0,0,1
 299 643 299 643 299 408 c 0,2,3
 299 214 299 214 402 26 c 0,4,5
 418 -4 418 -4 459 -64.5 c 128,-1,6
 500 -125 500 -125 568 -216 c 0,7,8
 574 -224 574 -224 574 -233 c 0,9,10
 574 -256 574 -256 543 -256 c 0,11,12
 469 -256 469 -256 380 -168 c 0,13,14
 270 -61 270 -61 202 65 c 0,15,16
 110 235 110 235 110 403 c 0,17,18
 110 595 110 595 220 774 c 0,19,20
 321 938 321 938 538 1055 c 0,21,22
 547 1061 547 1061 554 1061 c 0,23,24
 573 1061 573 1061 573 1036 c 1,25,26
 563 1019 563 1019 502 932 c 0,0,1
EndSplineSet
EndChar

StartChar: afii64061
Encoding: 64831 64831 439
Width: 576
GlyphClass: 2
Flags: W
LayerCount: 2
Fore
SplineSet
182 932 m 0,0,1
 121 1019 121 1019 111 1036 c 1,2,3
 111 1061 111 1061 130 1061 c 0,4,5
 137 1061 137 1061 146 1055 c 0,6,7
 363 938 363 938 464 774 c 0,8,9
 574 595 574 595 574 403 c 0,10,11
 574 235 574 235 482 65 c 0,12,13
 414 -61 414 -61 304 -168 c 0,14,15
 215 -256 215 -256 141 -256 c 0,16,17
 110 -256 110 -256 110 -233 c 0,18,19
 110 -224 110 -224 116 -216 c 0,20,21
 184 -125 184 -125 225 -64.5 c 128,-1,22
 266 -4 266 -4 282 26 c 0,23,24
 385 214 385 214 385 408 c 0,25,26
 385 643 385 643 182 932 c 0,0,1
EndSplineSet
EndChar

StartChar: afii62821
Encoding: 65252 65252 440
Width: 638
GlyphClass: 2
Flags: W
AnchorPoint: "Anchor-3" 270 -585 basechar 0
AnchorPoint: "Anchor-2" 435 825 basechar 0
LayerCount: 2
Fore
SplineSet
455 567 m 2,0,-1
 460 567 l 2,1,2
 524 567 524 567 566.5 504 c 128,-1,3
 609 441 609 441 605 321 c 0,4,5
 603 257 603 257 585 194 c 0,6,7
 583 178 583 178 606 167 c 128,-1,8
 629 156 629 156 657 153.5 c 128,-1,9
 685 151 685 151 701.5 116.5 c 128,-1,10
 718 82 718 82 700 46.5 c 128,-1,11
 682 11 682 11 646.5 2.5 c 128,-1,12
 611 -6 611 -6 561 24 c 0,13,14
 534 41 534 41 513 67 c 1,15,16
 450 0 450 0 336 -3 c 1,17,18
 212 7 212 7 165 99 c 1,19,20
 73 -11 73 -11 -4 1 c 1,21,22
 -67 18 -67 18 -69.5 67 c 128,-1,23
 -72 116 -72 116 -40 136.5 c 128,-1,24
 -8 157 -8 157 29.5 161.5 c 128,-1,25
 67 166 67 166 112 227.5 c 128,-1,26
 157 289 157 289 252 428 c 128,-1,27
 347 567 347 567 455 567 c 2,0,-1
258 195 m 1,28,29
 270 162 270 162 327 147 c 128,-1,30
 384 132 384 132 438.5 183.5 c 128,-1,31
 493 235 493 235 489.5 300.5 c 128,-1,32
 486 366 486 366 444 384 c 128,-1,33
 402 402 402 402 335 312 c 128,-1,34
 268 222 268 222 258 195 c 1,28,29
EndSplineSet
EndChar

StartChar: uni25CC
Encoding: 9676 9676 441
Width: 911
Flags: W
AnchorPoint: "Anchor-3" 435 -450 basechar 0
AnchorPoint: "Anchor-2" 465 975 basechar 0
LayerCount: 2
Fore
SplineSet
771 629 m 256,0,1
 771 592 771 592 734 592 c 0,2,3
 695 592 695 592 695 629 c 256,4,5
 695 666 695 666 734 666 c 0,6,7
 771 666 771 666 771 629 c 256,0,1
658 703 m 0,8,9
 658 666 658 666 621 666 c 0,10,11
 582 666 582 666 582 703 c 0,12,13
 582 742 582 742 621 742 c 0,14,15
 658 742 658 742 658 703 c 0,8,9
847 516 m 0,16,17
 847 477 847 477 808 477 c 0,18,19
 771 477 771 477 771 516 c 0,20,21
 771 553 771 553 810 553 c 0,22,23
 847 553 847 553 847 516 c 0,16,17
873 384 m 256,24,25
 873 347 873 347 836 347 c 0,26,27
 797 347 797 347 797 384 c 256,28,29
 797 421 797 421 836 421 c 0,30,31
 873 421 873 421 873 384 c 256,24,25
525 731 m 0,32,33
 525 692 525 692 488 692 c 256,34,35
 451 692 451 692 451 731 c 0,36,37
 451 768 451 768 488 768 c 256,38,39
 525 768 525 768 525 731 c 0,32,33
847 251 m 0,40,41
 847 214 847 214 808 214 c 0,42,43
 771 214 771 214 771 251 c 0,44,45
 771 290 771 290 808 290 c 0,46,47
 847 290 847 290 847 251 c 0,40,41
394 703 m 0,48,49
 394 666 394 666 356 666 c 0,50,51
 319 666 319 666 319 703 c 0,52,53
 319 742 319 742 356 742 c 0,54,55
 394 742 394 742 394 703 c 0,48,49
282 629 m 256,56,57
 282 592 282 592 243 592 c 0,58,59
 206 592 206 592 206 627 c 0,60,61
 206 666 206 666 243 666 c 0,62,63
 282 666 282 666 282 629 c 256,56,57
771 138 m 0,64,65
 771 101 771 101 734 101 c 256,66,67
 697 101 697 101 697 138 c 0,68,69
 697 177 697 177 734 177 c 256,70,71
 771 177 771 177 771 138 c 0,64,65
658 64 m 0,72,73
 658 27 658 27 621 27 c 256,74,75
 584 27 584 27 584 64 c 0,76,77
 584 103 584 103 621 103 c 256,78,79
 658 103 658 103 658 64 c 0,72,73
206 516 m 0,80,81
 206 477 206 477 171 477 c 0,82,83
 132 477 132 477 132 516 c 0,84,85
 132 553 132 553 169 553 c 256,86,87
 206 553 206 553 206 516 c 0,80,81
180 384 m 256,88,89
 180 347 180 347 143 347 c 0,90,91
 104 347 104 347 104 384 c 256,92,93
 104 421 104 421 143 421 c 0,94,95
 180 421 180 421 180 384 c 256,88,89
525 38 m 0,96,97
 525 -1 525 -1 488 -1 c 256,98,99
 451 -1 451 -1 451 38 c 0,100,101
 451 75 451 75 488 75 c 256,102,103
 525 75 525 75 525 38 c 0,96,97
394 66 m 0,104,105
 394 27 394 27 356 27 c 0,106,107
 319 27 319 27 319 64 c 0,108,109
 319 103 319 103 356 103 c 0,110,111
 394 103 394 103 394 66 c 0,104,105
206 251 m 0,112,113
 206 214 206 214 169 214 c 256,114,115
 132 214 132 214 132 251 c 0,116,117
 132 290 132 290 169 290 c 256,118,119
 206 290 206 290 206 251 c 0,112,113
282 138 m 0,120,121
 282 101 282 101 245 101 c 0,122,123
 206 101 206 101 206 138 c 0,124,125
 206 177 206 177 243 177 c 0,126,127
 282 177 282 177 282 138 c 0,120,121
EndSplineSet
EndChar

StartChar: afii62819
Encoding: 65246 65246 442
Width: 2133
GlyphClass: 2
Flags: W
AnchorPoint: "Anchor-3" 750 -945 basechar 0
AnchorPoint: "Anchor-2" 1440 1275 basechar 0
LayerCount: 2
Fore
SplineSet
2174 151 m 0,0,1
 2195 141 2195 141 2208 114.5 c 128,-1,2
 2221 88 2221 88 2219 56.5 c 128,-1,3
 2217 25 2217 25 2175.5 8 c 128,-1,4
 2134 -9 2134 -9 2085.5 14 c 128,-1,5
 2037 37 2037 37 1990 109 c 0,6,7
 1978 128 1978 128 1971 148 c 1,8,9
 1907 55 1907 55 1774 -85 c 1,10,11
 1368 -481 1368 -481 813 -481 c 2,12,-1
 745 -481 l 2,13,14
 398 -481 398 -481 182 -321 c 1,15,16
 27 -190 27 -190 27 -35 c 2,17,-1
 27 -4 l 2,18,19
 27 171 27 171 220 363 c 1,20,21
 408 528 408 528 577 578 c 0,22,23
 790 644 790 644 925 644 c 0,24,25
 1070 644 1070 644 1094 548 c 1,26,-1
 1097 520 l 1,27,28
 1083 416 1083 416 1001 416 c 0,29,30
 947 416 947 416 935 472 c 1,31,-1
 930 472 l 2,32,33
 780 472 780 472 552 386 c 1,34,35
 172 195 172 195 172 -40 c 0,36,37
 172 -214 172 -214 435 -301 c 0,38,39
 544 -334 544 -334 701 -334 c 2,40,-1
 704 -334 l 2,41,42
 1541 -334 1541 -334 1870 312 c 1,43,44
 1957 457 1957 457 1957 982 c 2,45,-1
 1957 1182 l 1,46,-1
 1954 1205 l 1,47,48
 1954 1261 1954 1261 2020 1286 c 1,49,-1
 2043 1288 l 1,50,51
 2105 1288 2105 1288 2126 1215 c 1,52,-1
 2126 1210 l 1,53,-1
 2129 1004 l 1,54,55
 2129 584 2129 584 2076 372 c 1,56,57
 2068 293 2068 293 2078 248 c 0,58,59
 2097 179 2097 179 2174 151 c 0,0,1
EndSplineSet
EndChar

StartChar: braceright
Encoding: 125 125 445
Width: 833
GlyphClass: 2
Flags: W
LayerCount: 2
Fore
SplineSet
151 1177 m 1,0,-1
 151 1206 l 1,1,2
 291 1187 291 1187 380 1091.5 c 128,-1,3
 469 996 469 996 469 880 c 0,4,5
 469 818 469 818 449.5 737.5 c 128,-1,6
 430 657 430 657 430 613 c 0,7,8
 430 551 430 551 481 498 c 128,-1,9
 532 445 532 445 623 434 c 1,10,-1
 623 399 l 1,11,12
 532 387 532 387 481 334 c 128,-1,13
 430 281 430 281 430 219 c 0,14,15
 430 175 430 175 449.5 94 c 128,-1,16
 469 13 469 13 469 -49 c 0,17,18
 469 -163 469 -163 380 -259 c 128,-1,19
 291 -355 291 -355 151 -375 c 1,20,-1
 151 -346 l 1,21,22
 249 -320 249 -320 295 -267 c 128,-1,23
 341 -214 341 -214 341 -148 c 0,24,25
 341 -99 341 -99 322 -16.5 c 128,-1,26
 303 66 303 66 303 122 c 0,27,28
 303 209 303 209 366 289.5 c 128,-1,29
 429 370 429 370 553 413 c 1,30,31
 431 459 431 459 367 541 c 128,-1,32
 303 623 303 623 303 709 c 0,33,34
 303 766 303 766 322 848.5 c 128,-1,35
 341 931 341 931 341 980 c 0,36,37
 341 1045 341 1045 295 1098.5 c 128,-1,38
 249 1152 249 1152 151 1177 c 1,0,-1
EndSplineSet
EndChar

StartChar: uni0656
Encoding: 1622 1622 452
Width: 0
GlyphClass: 4
Flags: W
AnchorPoint: "Anchor-3" 0 0 mark 0
AnchorPoint: "Anchor-1" 0 0 mark 0
LayerCount: 2
Fore
SplineSet
-22 -1 m 1,0,1
 -10 168 -10 168 -24 345 c 1,2,3
 -10 393 -10 393 12.5 418.5 c 128,-1,4
 35 444 35 444 40 430 c 1,5,6
 59 114 59 114 -22 -1 c 1,0,1
EndSplineSet
EndChar

StartChar: E005
Encoding: 65578 -1 470
Width: 295
GlyphClass: 3
Flags: W
LayerCount: 2
Fore
SplineSet
-10 0 m 1,0,-1
 -10 147 l 1,1,-1
 305 147 l 1,2,-1
 305 0 l 1,3,-1
 -10 0 l 1,0,-1
EndSplineSet
EndChar

StartChar: afii57470
Encoding: 1726 1726 480
Width: 1199
Flags: W
AnchorPoint: "Anchor-3" 495 -525 basechar 0
AnchorPoint: "Anchor-2" 585 915 basechar 0
LayerCount: 2
Fore
SplineSet
427 575 m 0,0,1
 567 575 567 575 857 541 c 1,2,3
 1101 500 1101 500 1101 347 c 0,4,5
 1101 215 1101 215 930 112 c 1,6,7
 859 60 859 60 635 32 c 0,8,9
 536 16 536 16 427 16 c 0,10,11
 318 19 318 19 318 23 c 1,12,13
 171 -7 171 -7 1 0 c 1,14,15
 -72 14 -72 14 -79.5 78.5 c 128,-1,16
 -87 143 -87 143 -1 156 c 1,17,18
 61 157 61 157 90 160 c 1,19,20
 80 175 80 175 80 190 c 0,21,22
 80 301 80 301 208 427 c 1,23,24
 286 498 286 498 364 525 c 1,25,26
 386 575 386 575 427 575 c 0,0,1
731 397 m 1,27,28
 738 386 738 386 738 372 c 0,29,30
 738 302 738 302 649 190 c 1,31,32
 760 203 760 203 834 235 c 1,33,34
 946 301 946 301 946 349 c 0,35,36
 946 369 946 369 795 393 c 1,37,-1
 731 400 l 1,38,-1
 731 397 l 1,27,28
231 178 m 0,39,40
 231 155 231 155 268 155 c 0,41,42
 384 155 384 155 528 295 c 1,43,44
 583 357 583 357 583 375 c 1,45,46
 559 397 559 397 501 397 c 0,47,48
 349 397 349 397 249 233 c 0,49,50
 231 199 231 199 231 178 c 0,39,40
EndSplineSet
Substitution2: "'medi' Medial Forms in Arabic lookup 3 subtable" afii62827
Substitution2: "'fina' Terminal Forms in Arabic lookup 2 subtable" afii62827
Substitution2: "'init' Initial Forms in Arabic lookup 1 subtable" afii57470
EndChar

StartChar: at
Encoding: 64 64 489
Width: 1600
Flags: W
LayerCount: 2
Fore
SplineSet
1194 812 m 1,0,-1
 1095 474 l 2,1,2
 1040 284 1040 284 1027.5 233 c 128,-1,3
 1015 182 1015 182 1015 152 c 0,4,5
 1015 125 1015 125 1034 106 c 128,-1,6
 1053 87 1053 87 1079 87 c 0,7,8
 1142 87 1142 87 1228.5 149 c 128,-1,9
 1315 211 1315 211 1377 350.5 c 128,-1,10
 1439 490 1439 490 1439 640 c 0,11,12
 1439 785 1439 785 1369.5 908 c 128,-1,13
 1300 1031 1300 1031 1172 1097 c 128,-1,14
 1044 1163 1044 1163 889 1163 c 0,15,16
 693 1163 693 1163 525.5 1059 c 128,-1,17
 358 955 358 955 260 760 c 128,-1,18
 162 565 162 565 162 354 c 0,19,20
 162 159 162 159 248 0 c 128,-1,21
 334 -159 334 -159 490.5 -241 c 128,-1,22
 647 -323 647 -323 826 -323 c 0,23,24
 1049 -323 1049 -323 1229.5 -203.5 c 128,-1,25
 1410 -84 1410 -84 1507 146 c 1,26,-1
 1557 146 l 1,27,28
 1481 -87 1481 -87 1280 -231 c 128,-1,29
 1079 -375 1079 -375 821 -375 c 0,30,31
 620 -375 620 -375 446.5 -279.5 c 128,-1,32
 273 -184 273 -184 178 -9 c 128,-1,33
 83 166 83 166 83 376 c 0,34,35
 83 600 83 600 188 794 c 128,-1,36
 293 988 293 988 482.5 1097 c 128,-1,37
 672 1206 672 1206 884 1206 c 0,38,39
 1060 1206 1060 1206 1201 1133.5 c 128,-1,40
 1342 1061 1342 1061 1416 921.5 c 128,-1,41
 1490 782 1490 782 1490 625 c 0,42,43
 1490 470 1490 470 1420.5 317.5 c 128,-1,44
 1351 165 1351 165 1244.5 95.5 c 128,-1,45
 1138 26 1138 26 1022 26 c 0,46,47
 957 26 957 26 925 56.5 c 128,-1,48
 893 87 893 87 893 142 c 0,49,50
 893 190 893 190 907 267 c 1,51,52
 782 116 782 116 706.5 70.5 c 128,-1,53
 631 25 631 25 573 25 c 0,54,55
 513 25 513 25 466.5 79.5 c 128,-1,56
 420 134 420 134 420 223 c 0,57,58
 420 346 420 346 500 498.5 c 128,-1,59
 580 651 580 651 712 747 c 0,60,61
 810 817 810 817 887 817 c 0,62,63
 943 817 943 817 981.5 788 c 128,-1,64
 1020 759 1020 759 1032 701 c 1,65,-1
 1061 794 l 1,66,-1
 1194 812 l 1,0,-1
897 778 m 0,67,68
 833 778 833 778 767 710 c 0,69,70
 672 613 672 613 604 445 c 0,71,72
 553 323 553 323 553 248 c 0,73,74
 553 195 553 195 583.5 161.5 c 128,-1,75
 614 128 614 128 651 128 c 0,76,77
 701 128 701 128 755 165 c 128,-1,78
 809 202 809 202 868 280 c 128,-1,79
 927 358 927 358 955 436 c 0,80,81
 1003 570 1003 570 1003 655 c 0,82,83
 1003 711 1003 711 971.5 744.5 c 128,-1,84
 940 778 940 778 897 778 c 0,67,68
EndSplineSet
EndChar

StartChar: A
Encoding: 65 65 490
Width: 1254
Flags: W
LayerCount: 2
Fore
SplineSet
795 385 m 1,0,-1
 350 385 l 1,1,-1
 271 204 l 2,2,3
 243 137 243 137 243 104 c 0,4,5
 243 77 243 77 268 57 c 128,-1,6
 293 37 293 37 375 32 c 1,7,-1
 375 0 l 1,8,-1
 14 0 l 1,9,-1
 14 32 l 1,10,11
 86 45 86 45 107 65 c 0,12,13
 151 105 151 105 202 230 c 2,14,-1
 607 1177 l 1,15,-1
 637 1177 l 1,16,-1
 1037 219 l 2,17,18
 1085 104 1085 104 1124.5 70 c 128,-1,19
 1164 36 1164 36 1235 32 c 1,20,-1
 1235 0 l 1,21,-1
 781 0 l 1,22,-1
 781 32 l 1,23,24
 850 35 850 35 874 54.5 c 128,-1,25
 898 74 898 74 898 102 c 0,26,27
 898 139 898 139 864 219 c 2,28,-1
 795 385 l 1,0,-1
771 447 m 1,29,-1
 576 913 l 1,30,-1
 375 447 l 1,31,-1
 771 447 l 1,29,-1
EndSplineSet
EndChar

StartChar: B
Encoding: 66 66 491
Width: 1159
Flags: W
LayerCount: 2
Fore
SplineSet
802 587 m 1,0,1
 922 562 922 562 982 506 c 0,2,3
 1063 427 1063 427 1063 315 c 0,4,5
 1063 229 1063 229 1009 150.5 c 128,-1,6
 955 72 955 72 860 36 c 128,-1,7
 765 0 765 0 571 0 c 2,8,-1
 29 0 l 1,9,-1
 29 32 l 1,10,-1
 72 32 l 2,11,12
 144 32 144 32 176 77 c 0,13,14
 195 107 195 107 195 204 c 2,15,-1
 195 947 l 2,16,17
 195 1054 195 1054 171 1081 c 0,18,19
 138 1118 138 1118 72 1118 c 2,20,-1
 29 1118 l 1,21,-1
 29 1150 l 1,22,-1
 526 1150 l 2,23,24
 665 1150 665 1150 748 1130 c 0,25,26
 876 1099 876 1099 943 1021 c 128,-1,27
 1010 943 1010 943 1010 843 c 0,28,29
 1010 757 1010 757 957.5 688.5 c 128,-1,30
 905 620 905 620 802 587 c 1,0,1
358 633 m 1,31,32
 389 626 389 626 429.5 623.5 c 128,-1,33
 470 621 470 621 518 621 c 0,34,35
 642 621 642 621 704 647.5 c 128,-1,36
 766 674 766 674 799.5 729 c 128,-1,37
 833 784 833 784 833 850 c 0,38,39
 833 951 833 951 750.5 1022 c 128,-1,40
 668 1093 668 1093 511 1093 c 0,41,42
 426 1093 426 1093 358 1075 c 1,43,-1
 358 633 l 1,31,32
358 83 m 1,44,45
 456 60 456 60 552 60 c 0,46,47
 706 60 706 60 786.5 129 c 128,-1,48
 867 198 867 198 867 300 c 0,49,50
 867 367 867 367 830.5 429 c 128,-1,51
 794 491 794 491 712 526.5 c 128,-1,52
 630 562 630 562 508 562 c 0,53,54
 456 562 456 562 418.5 560.5 c 128,-1,55
 381 559 381 559 358 554 c 1,56,-1
 358 83 l 1,44,45
EndSplineSet
EndChar

StartChar: C
Encoding: 67 67 492
Width: 1159
Flags: W
LayerCount: 2
Fore
SplineSet
1045 1177 m 1,0,-1
 1072 785 l 1,1,-1
 1045 785 l 1,2,3
 993 960 993 960 895.5 1037.5 c 128,-1,4
 798 1115 798 1115 661 1115 c 0,5,6
 547 1115 547 1115 455 1057 c 128,-1,7
 363 999 363 999 310 871.5 c 128,-1,8
 257 744 257 744 257 555 c 0,9,10
 257 400 257 400 306.5 285.5 c 128,-1,11
 356 171 356 171 457 110 c 128,-1,12
 558 49 558 49 686 49 c 0,13,14
 798 49 798 49 883.5 96.5 c 128,-1,15
 969 144 969 144 1072 286 c 1,16,-1
 1098 269 l 1,17,18
 1011 117 1011 117 896 45 c 128,-1,19
 781 -27 781 -27 622 -27 c 0,20,21
 337 -27 337 -27 180 185 c 0,22,23
 63 343 63 343 63 558 c 0,24,25
 63 729 63 729 140 873.5 c 128,-1,26
 217 1018 217 1018 352.5 1097.5 c 128,-1,27
 488 1177 488 1177 648 1177 c 0,28,29
 773 1177 773 1177 894 1115 c 0,30,31
 930 1096 930 1096 944 1096 c 0,32,33
 968 1096 968 1096 985 1113 c 0,34,35
 1007 1135 1007 1135 1015 1177 c 1,36,-1
 1045 1177 l 1,0,-1
EndSplineSet
EndChar

